<svg width="61" height="72" viewBox="0 0 61 72" fill="none" xmlns="http://www.w3.org/2000/svg">
<path d="M17.3939 15.9941C16.9092 15.9402 16.3707 15.9402 15.8861 15.9941C15.8322 15.9402 15.7245 15.8864 15.7783 15.8325C15.9938 15.671 15.9399 15.4556 15.9938 15.2401C16.1015 13.6784 16.263 12.1706 16.3707 10.6089C16.6938 10.7704 16.8554 11.0397 17.0708 11.309C17.1785 12.6553 17.2862 14.0016 17.3939 15.3479C17.3939 15.5094 17.3939 15.671 17.5555 15.7787C17.717 15.9402 17.4478 15.9402 17.3939 15.9941Z" fill="#0A4979"/>
<path d="M7.32357 39.635C7.70053 39.635 8.0775 39.6889 8.45446 39.6889C15.5629 40.2274 22.2405 43.5123 28.272 47.3358C28.9182 47.7666 29.5644 48.1975 30.3183 48.2513C31.4492 48.359 32.4185 47.6589 33.334 47.0127C38.4499 43.4585 44.3198 41.0352 50.4589 40.012C52.1822 39.6889 54.0132 39.5273 55.7364 39.8504C57.4597 40.1735 59.1829 41.089 60.1523 42.543C60.8523 43.5662 61.0139 45.1279 60.0984 45.9357C59.5599 46.4203 58.8059 46.4742 58.1059 46.5281C48.0356 47.4435 38.2884 51.5901 30.6414 58.2139C22.1328 50.9978 11.2548 46.7435 0.107422 46.2049C0.969052 43.5662 1.45372 40.8736 4.46943 39.9581C5.38491 39.6889 6.35424 39.635 7.32357 39.635Z" fill="#0A4979"/>
<path d="M7.10844 53.3134C7.86236 53.3672 8.67015 53.4749 9.42408 53.5826C16.0479 54.7135 22.5639 57.083 28.0568 60.9603C28.8107 61.4988 29.6185 62.0912 30.4801 62.0374C31.2879 62.0374 31.988 61.5527 32.6881 61.1219C38.4502 57.2984 44.9124 54.2288 51.7516 53.5288C53.4749 53.3672 55.252 53.3134 56.9214 53.9057C58.5908 54.4442 60.0448 55.6828 60.5834 57.3522C60.8526 58.2677 60.7449 59.4525 59.8833 59.9371C59.5063 60.1525 59.0755 60.1525 58.6447 60.2064C48.3051 60.9603 38.2887 65.2146 30.4801 72C22.0793 64.6761 11.0935 60.3679 0 59.991C1.02319 57.3522 1.72326 54.2288 4.84667 53.4749C5.65445 53.3672 6.40836 53.3134 7.10844 53.3134Z" fill="#DCA148"/>
<path d="M30.695 44.4278C28.9717 41.7352 27.3023 39.0426 25.579 36.35C24.5559 34.6806 23.4788 33.065 22.8864 31.1802C21.3247 26.5489 23.8558 21.3792 28.7563 20.2483C31.4489 19.6559 34.3569 20.4637 36.3494 22.3485C38.3419 24.2333 39.2574 27.1413 38.7189 29.8339C38.3419 31.7726 37.3187 33.4958 36.2955 35.1652C34.4107 38.3425 32.5259 41.3582 30.695 44.4278Z" fill="#DCA148"/>
<path d="M16.2089 10.7165C16.0473 10.555 15.9396 10.3934 15.8319 10.178C14.8088 8.77785 14.7011 8.07778 16.3705 7.21615C20.7325 4.95437 25.0406 2.69259 29.4026 0.430815C29.8334 0.215407 30.2642 0 30.7489 0C31.1259 0 31.5028 0.215407 31.8259 0.376963C36.7803 3.0157 41.7347 5.65445 46.6891 8.23934C45.3428 9.80104 43.9426 11.4166 42.5963 12.9783C42.4348 13.1399 42.3271 13.3014 42.1117 13.3553C41.7886 13.463 41.4654 13.3014 41.1962 13.1399C34.7878 9.9626 26.8716 9.90874 20.4093 13.0322C20.0862 13.1937 19.6554 13.3553 19.2785 13.3014C19.0631 13.2476 18.8477 13.1399 18.6861 12.9783C17.7706 12.3859 16.909 11.5782 16.2089 10.7165Z" fill="#DCA148"/>
<path d="M19.3865 20.0329C19.2249 19.1713 19.0095 17.7173 19.3326 16.8557C19.6557 16.1017 20.7328 15.5632 21.379 15.1863C27.2488 11.8474 34.9496 12.0629 40.6041 15.7248C40.981 15.994 41.4119 16.2633 41.6273 16.6941C42.1658 17.6634 41.5196 18.902 41.735 19.9791C38.827 17.0172 34.6804 15.294 30.5338 15.294C26.4411 15.3478 22.2945 17.0711 19.3865 20.0329Z" fill="#0A4979"/>
<path d="M15.8323 15.9941H17.5017C17.5017 15.9941 17.2325 16.9635 17.394 17.4481C17.5556 17.9328 17.7171 18.579 17.9864 18.7944C17.9864 18.7944 16.9094 19.8176 16.8016 20.41L16.7478 18.956C16.7478 18.956 16.9094 18.8483 16.9094 18.7406C16.9094 18.579 16.7478 18.5252 16.6401 18.5252C16.4785 18.5252 16.4247 18.6329 16.4247 18.7406C16.4247 18.8483 16.4247 18.956 16.5324 18.956L16.5862 20.5177C16.5862 20.5177 15.94 19.0098 15.3477 18.8483C15.3477 18.8483 15.8323 18.0944 15.8862 17.502C15.8862 17.502 16.0477 16.8019 15.8323 15.9941Z" fill="#DCA148"/>
</svg>
