<svg width="224" height="59" viewBox="0 0 224 59" fill="none" xmlns="http://www.w3.org/2000/svg">
<path d="M2.34 7.277C2.34 7.20767 2.36167 7.15133 2.405 7.108C2.44833 7.056 2.50467 7.03 2.574 7.03H3.211C3.35833 7.03 3.432 7.11233 3.432 7.277V13.465C3.432 13.5343 3.41033 13.595 3.367 13.647C3.32367 13.6903 3.26733 13.712 3.198 13.712H2.574C2.50467 13.712 2.44833 13.6903 2.405 13.647C2.36167 13.595 2.34 13.5343 2.34 13.465V7.277ZM0.598 15.116C0.598 14.96 0.680333 14.882 0.845 14.882H5.213C5.29967 14.882 5.395 14.8777 5.499 14.869C5.603 14.8603 5.70267 14.843 5.798 14.817C5.89333 14.7823 5.97133 14.7347 6.032 14.674C6.10133 14.6047 6.136 14.5137 6.136 14.401V6.484C6.136 6.41467 6.15767 6.35833 6.201 6.315C6.24433 6.263 6.30067 6.237 6.37 6.237H7.02C7.08933 6.237 7.14567 6.263 7.189 6.315C7.23233 6.35833 7.254 6.41467 7.254 6.484V14.57C7.28 14.6393 7.332 14.6957 7.41 14.739C7.49667 14.7737 7.592 14.804 7.696 14.83C7.8 14.8473 7.904 14.8603 8.008 14.869C8.112 14.8777 8.19867 14.882 8.268 14.882H8.463V16H8.307C8.047 16 7.76967 15.974 7.475 15.922C7.18033 15.8613 6.929 15.7443 6.721 15.571C6.49567 15.753 6.23133 15.87 5.928 15.922C5.63333 15.974 5.36467 16 5.122 16H0.845C0.680333 16 0.598 15.9263 0.598 15.779V15.116ZM7.94777 15.09C7.94777 15.0207 7.99111 14.9687 8.07777 14.934C8.16444 14.8993 8.26844 14.882 8.38977 14.882H15.2018C15.2104 14.6827 15.2148 14.4703 15.2148 14.245C15.2234 14.0197 15.2278 13.803 15.2278 13.595C15.2278 13.127 15.1584 12.7413 15.0198 12.438C14.8811 12.126 14.6861 11.8833 14.4348 11.71C14.1834 11.528 13.8801 11.4023 13.5248 11.333C13.1694 11.2637 12.7751 11.229 12.3418 11.229C12.0818 11.229 11.8088 11.2333 11.5228 11.242C11.2454 11.242 10.9854 11.242 10.7428 11.242C10.5001 11.242 10.2921 11.2463 10.1188 11.255C9.94544 11.255 9.83277 11.255 9.78077 11.255C9.63344 11.255 9.54677 11.19 9.52077 11.06C9.51211 11.0427 9.50777 10.9993 9.50777 10.93C9.50777 10.8607 9.50777 10.813 9.50777 10.787C9.50777 10.579 9.52511 10.3797 9.55977 10.189C9.59444 9.99833 9.64211 9.80767 9.70277 9.617C9.77211 9.41767 9.85444 9.20967 9.94977 8.993C10.0538 8.77633 10.1751 8.54233 10.3138 8.291L11.2888 6.497C11.3321 6.42767 11.3754 6.367 11.4188 6.315C11.4708 6.263 11.5444 6.237 11.6398 6.237H12.2508C12.3201 6.237 12.3678 6.25433 12.3938 6.289C12.4284 6.315 12.4458 6.34967 12.4458 6.393C12.4458 6.43633 12.4328 6.484 12.4068 6.536L11.1848 8.837C11.0374 9.11433 10.9118 9.383 10.8078 9.643C10.7124 9.89433 10.6604 10.0807 10.6518 10.202C11.0678 10.1847 11.4188 10.1717 11.7048 10.163C11.9908 10.1543 12.2464 10.15 12.4718 10.15C13.0784 10.15 13.6201 10.2107 14.0968 10.332C14.5734 10.4533 14.9764 10.644 15.3058 10.904C15.6351 11.164 15.8864 11.502 16.0598 11.918C16.2331 12.3253 16.3198 12.8193 16.3198 13.4V13.556C16.3198 13.634 16.3198 13.7337 16.3198 13.855C16.3198 13.9677 16.3154 14.089 16.3068 14.219C16.3068 14.3403 16.3024 14.4617 16.2938 14.583C16.2938 14.6957 16.2938 14.7953 16.2938 14.882H17.2688V16H8.38977C8.26844 16 8.16444 15.9827 8.07777 15.948C7.99111 15.9047 7.94777 15.8483 7.94777 15.779V15.09ZM16.7456 15.051C16.7456 14.999 16.789 14.96 16.8756 14.934C16.9623 14.8993 17.0663 14.882 17.1876 14.882H17.6036C17.6643 14.882 17.7423 14.882 17.8376 14.882C17.9416 14.8733 18.0413 14.856 18.1366 14.83C18.232 14.804 18.3143 14.7693 18.3836 14.726C18.4616 14.674 18.5093 14.6047 18.5266 14.518C18.5526 14.414 18.5656 14.2883 18.5656 14.141V12.893C18.5656 12.0003 18.7953 11.3157 19.2546 10.839C19.7226 10.3623 20.39 10.124 21.2566 10.124C22.1233 10.124 22.7776 10.358 23.2196 10.826C23.6616 11.294 23.8826 11.983 23.8826 12.893V13.621C23.8826 13.725 23.8783 13.8377 23.8696 13.959C23.8696 14.0803 23.861 14.1887 23.8436 14.284C23.8523 14.4053 23.8956 14.505 23.9736 14.583C24.0516 14.661 24.1383 14.7217 24.2336 14.765C24.3376 14.8083 24.4416 14.8387 24.5456 14.856C24.6496 14.8733 24.7363 14.882 24.8056 14.882H24.9746V16H24.8056C24.5196 16 24.238 15.961 23.9606 15.883C23.692 15.7963 23.4753 15.6663 23.3106 15.493C22.9033 16.0823 22.21 16.377 21.2306 16.377C20.7453 16.377 20.312 16.3033 19.9306 16.156C19.558 16.0173 19.272 15.8007 19.0726 15.506C18.8993 15.7053 18.674 15.8397 18.3966 15.909C18.1193 15.9697 17.8203 16 17.4996 16H17.1876C17.0663 16 16.9623 15.987 16.8756 15.961C16.789 15.9263 16.7456 15.8787 16.7456 15.818V15.051ZM19.6576 12.984V13.582C19.6576 13.868 19.675 14.1107 19.7096 14.31C19.7876 14.674 19.9566 14.9383 20.2166 15.103C20.4766 15.2677 20.8146 15.35 21.2306 15.35C21.8026 15.35 22.2056 15.207 22.4396 14.921C22.6736 14.6263 22.7906 14.18 22.7906 13.582V12.984C22.7906 12.3947 22.6736 11.944 22.4396 11.632C22.2143 11.3113 21.82 11.151 21.2566 11.151C20.6846 11.151 20.273 11.307 20.0216 11.619C19.779 11.931 19.6576 12.386 19.6576 12.984ZM24.4517 15.051C24.4517 14.999 24.495 14.96 24.5817 14.934C24.6683 14.8993 24.7723 14.882 24.8937 14.882H25.9337C26.185 14.882 26.341 14.8603 26.4017 14.817C26.471 14.7737 26.5057 14.6393 26.5057 14.414V6.484C26.5057 6.41467 26.5273 6.35833 26.5707 6.315C26.6227 6.263 26.6833 6.237 26.7527 6.237H27.3897C27.459 6.237 27.5153 6.263 27.5587 6.315C27.602 6.35833 27.6237 6.41467 27.6237 6.484V13.985C27.6237 14.089 27.6237 14.206 27.6237 14.336C27.6237 14.466 27.6193 14.6003 27.6107 14.739C27.6107 14.8777 27.6063 15.012 27.5977 15.142C27.589 15.272 27.576 15.389 27.5587 15.493C27.5413 15.5797 27.5153 15.6533 27.4807 15.714C27.446 15.7747 27.3767 15.8267 27.2727 15.87C27.2033 15.896 27.1037 15.9177 26.9737 15.935C26.8437 15.9437 26.7007 15.9567 26.5447 15.974C26.3887 15.9827 26.224 15.9913 26.0507 16C25.886 16 25.73 16 25.5827 16H24.8937C24.7723 16 24.6683 15.987 24.5817 15.961C24.495 15.9263 24.4517 15.8787 24.4517 15.818V15.051ZM29.836 6.484C29.836 6.41467 29.8577 6.354 29.901 6.302C29.953 6.25 30.0137 6.224 30.083 6.224H30.72C30.7893 6.224 30.8457 6.25 30.889 6.302C30.9323 6.354 30.954 6.41467 30.954 6.484V15.74C30.954 15.8093 30.9323 15.87 30.889 15.922C30.8457 15.974 30.7893 16 30.72 16H30.083C30.0137 16 29.953 15.974 29.901 15.922C29.8577 15.87 29.836 15.8093 29.836 15.74V6.484ZM39.0361 12.451C39.0361 12.5983 38.9537 12.672 38.7891 12.672H36.2021C36.0374 12.672 35.9551 12.5983 35.9551 12.451V11.944C35.9551 11.8747 35.9767 11.8183 36.0201 11.775C36.0721 11.7317 36.1327 11.71 36.2021 11.71H38.7891C38.9537 11.71 39.0361 11.788 39.0361 11.944V12.451ZM46.8891 8.811C46.8891 8.72433 46.9151 8.655 46.9671 8.603C47.0277 8.551 47.1014 8.525 47.1881 8.525H47.6951C47.7817 8.525 47.8511 8.551 47.9031 8.603C47.9637 8.655 47.9941 8.72433 47.9941 8.811V9.513C47.9941 9.591 47.9637 9.656 47.9031 9.708C47.8424 9.76 47.7731 9.786 47.6951 9.786H47.1881C47.1014 9.786 47.0277 9.76 46.9671 9.708C46.9151 9.656 46.8891 9.591 46.8891 9.513V8.811ZM49.0081 8.811C49.0081 8.72433 49.0384 8.655 49.0991 8.603C49.1684 8.551 49.2421 8.525 49.3201 8.525H49.8271C49.9051 8.525 49.9744 8.551 50.0351 8.603C50.0957 8.655 50.1261 8.72433 50.1261 8.811V9.513C50.1261 9.591 50.0957 9.656 50.0351 9.708C49.9744 9.76 49.9051 9.786 49.8271 9.786H49.3201C49.2421 9.786 49.1684 9.76 49.0991 9.708C49.0384 9.656 49.0081 9.591 49.0081 9.513V8.811ZM51.7511 14.882C51.9937 14.882 52.1497 14.8603 52.2191 14.817C52.2884 14.7737 52.3231 14.6393 52.3231 14.414C52.3231 14.1107 52.3231 13.8247 52.3231 13.556C52.3231 13.2873 52.3231 13.0187 52.3231 12.75C52.3231 12.4813 52.3187 12.2083 52.3101 11.931C52.3101 11.645 52.3057 11.333 52.2971 10.995C52.2971 10.9257 52.3187 10.8693 52.3621 10.826C52.4054 10.774 52.4617 10.748 52.5311 10.748H53.1421C53.2201 10.748 53.2807 10.774 53.3241 10.826C53.3674 10.8693 53.3891 10.9257 53.3891 10.995C53.3977 11.2897 53.4021 11.5367 53.4021 11.736C53.4107 11.9353 53.4151 12.1217 53.4151 12.295C53.4151 12.4683 53.4151 12.6503 53.4151 12.841C53.4151 13.023 53.4151 13.244 53.4151 13.504C53.4151 13.92 53.4107 14.3057 53.4021 14.661C53.4021 15.0163 53.3891 15.2937 53.3631 15.493C53.3457 15.5797 53.3154 15.6533 53.2721 15.714C53.2374 15.7747 53.1681 15.8267 53.0641 15.87C52.9947 15.896 52.8777 15.9177 52.7131 15.935C52.5571 15.9437 52.3707 15.9567 52.1541 15.974C51.9461 15.9827 51.7164 15.9913 51.4651 16C51.2224 16 50.9797 16 50.7371 16H47.6951C46.8631 16 46.1784 15.922 45.6411 15.766C45.1124 15.6013 44.6921 15.3717 44.3801 15.077C44.0767 14.7737 43.8644 14.4097 43.7431 13.985C43.6304 13.5517 43.5741 13.0707 43.5741 12.542C43.5741 12.36 43.5784 12.1737 43.5871 11.983C43.6044 11.7837 43.6347 11.5583 43.6781 11.307C43.7041 11.1423 43.7907 11.06 43.9381 11.06H44.4841C44.6314 11.06 44.6964 11.1467 44.6791 11.32C44.6617 11.5193 44.6487 11.6883 44.6401 11.827C44.6314 11.9657 44.6271 12.1087 44.6271 12.256C44.6271 12.646 44.6617 13.0013 44.7311 13.322C44.8004 13.6427 44.9434 13.92 45.1601 14.154C45.3854 14.388 45.7017 14.57 46.1091 14.7C46.5251 14.8213 47.0754 14.882 47.7601 14.882H51.7511ZM55.7372 18.184C55.7372 18.0627 55.8065 18.002 55.9452 18.002C56.0925 18.002 56.2789 18.002 56.5042 18.002C56.7295 18.0107 56.9115 18.015 57.0502 18.015C57.3969 18.015 57.7045 17.9933 57.9732 17.95C58.2505 17.9153 58.4845 17.8417 58.6752 17.729C58.8745 17.625 59.0262 17.4733 59.1302 17.274C59.2342 17.0833 59.2905 16.832 59.2992 16.52V16H57.9992C57.1239 16 56.4522 15.7747 55.9842 15.324C55.5162 14.8733 55.2822 14.193 55.2822 13.283V12.958C55.2822 12.048 55.5509 11.3287 56.0882 10.8C56.6255 10.2713 57.3882 10.007 58.3762 10.007C58.7229 10.007 59.0565 10.0243 59.3772 10.059C59.7065 10.085 59.9839 10.1327 60.2092 10.202C60.2872 10.228 60.3392 10.2583 60.3652 10.293C60.3912 10.319 60.4042 10.3667 60.4042 10.436V14.882H61.5352V16H60.3912V16.494C60.3739 16.9793 60.2872 17.3823 60.1312 17.703C59.9752 18.0323 59.7629 18.2923 59.4942 18.483C59.2255 18.6823 58.9005 18.821 58.5192 18.899C58.1465 18.9857 57.7349 19.029 57.2842 19.029C57.1975 19.029 57.0849 19.0247 56.9462 19.016C56.8162 19.016 56.6819 19.0117 56.5432 19.003C56.4132 19.003 56.2919 18.9987 56.1792 18.99C56.0665 18.9813 55.9885 18.9727 55.9452 18.964C55.8585 18.9467 55.8022 18.9207 55.7762 18.886C55.7502 18.86 55.7372 18.8167 55.7372 18.756V18.184ZM56.3742 13.153C56.3742 13.7683 56.5042 14.2147 56.7642 14.492C57.0242 14.7693 57.4445 14.908 58.0252 14.908H59.3122V11.086C59.1389 11.0687 58.9699 11.0557 58.8052 11.047C58.6405 11.0383 58.4499 11.034 58.2332 11.034C57.6612 11.034 57.2062 11.1943 56.8682 11.515C56.5389 11.8357 56.3742 12.295 56.3742 12.893V13.153ZM61.0142 15.051C61.0142 14.999 61.0575 14.96 61.1442 14.934C61.2308 14.8993 61.3348 14.882 61.4562 14.882H61.8722C61.9328 14.882 62.0108 14.8777 62.1062 14.869C62.2015 14.8603 62.2968 14.8387 62.3922 14.804C62.4875 14.7693 62.5698 14.726 62.6392 14.674C62.7172 14.6133 62.7692 14.531 62.7952 14.427C62.8212 14.323 62.8342 14.1973 62.8342 14.05V12.802C62.8342 11.9093 63.0638 11.2247 63.5232 10.748C63.9912 10.2713 64.6585 10.033 65.5252 10.033C66.3918 10.033 67.0462 10.267 67.4882 10.735C67.9302 11.203 68.1512 11.8877 68.1512 12.789V13.452C68.1512 14.3533 67.9432 15.038 67.5272 15.506C67.1112 15.9653 66.4352 16.195 65.4992 16.195C65.0138 16.195 64.5848 16.13 64.2122 16C63.8482 15.8613 63.5578 15.6533 63.3412 15.376C63.1938 15.61 62.9685 15.7747 62.6652 15.87C62.3618 15.9567 62.0282 16 61.6642 16H61.4562C61.3348 16 61.2308 15.987 61.1442 15.961C61.0575 15.9263 61.0142 15.8787 61.0142 15.818V15.051ZM63.9262 13.478C63.9262 13.7553 63.9435 13.9937 63.9782 14.193C64.0648 14.5743 64.2382 14.8343 64.4982 14.973C64.7582 15.103 65.0918 15.168 65.4992 15.168C66.0712 15.168 66.4742 15.0337 66.7082 14.765C66.9422 14.4877 67.0592 14.0283 67.0592 13.387V12.906C67.0592 12.3167 66.9422 11.8617 66.7082 11.541C66.4828 11.2203 66.0885 11.06 65.5252 11.06C64.9532 11.06 64.5415 11.2203 64.2902 11.541C64.0475 11.853 63.9262 12.308 63.9262 12.906V13.478ZM68.4675 18.21C68.4675 18.0887 68.5412 18.028 68.6885 18.028H68.9615C69.2475 18.028 69.4815 18.015 69.6635 17.989C69.8455 17.963 69.9929 17.9067 70.1055 17.82C70.2182 17.7333 70.2962 17.6033 70.3395 17.43C70.3829 17.2653 70.4045 17.04 70.4045 16.754V10.995C70.4045 10.9257 70.4262 10.8693 70.4695 10.826C70.5129 10.774 70.5692 10.748 70.6385 10.748H71.2755C71.3362 10.748 71.3882 10.774 71.4315 10.826C71.4749 10.8693 71.4965 10.9257 71.4965 10.995V14.882H72.6925V16H71.4835V16.832C71.4835 17.1093 71.4662 17.365 71.4315 17.599C71.3969 17.833 71.3319 18.0367 71.2365 18.21C71.0632 18.5133 70.8205 18.7257 70.5085 18.847C70.2052 18.9683 69.8022 19.029 69.2995 19.029C69.2562 19.029 69.1609 19.0247 69.0135 19.016C68.8749 19.0073 68.7622 18.9943 68.6755 18.977C68.5889 18.9597 68.5325 18.9337 68.5065 18.899C68.4805 18.873 68.4675 18.8297 68.4675 18.769V18.21ZM72.1734 15.051C72.1734 14.999 72.2167 14.96 72.3034 14.934C72.39 14.8993 72.494 14.882 72.6154 14.882H74.0974V10.306C74.0974 10.2367 74.119 10.176 74.1624 10.124C74.2144 10.072 74.275 10.046 74.3444 10.046H74.9424C75.0117 10.046 75.068 10.072 75.1114 10.124C75.1634 10.176 75.1894 10.2367 75.1894 10.306V10.826C75.4147 10.6527 75.666 10.514 75.9434 10.41C76.2207 10.2973 76.4937 10.215 76.7624 10.163C77.031 10.1023 77.2824 10.0633 77.5164 10.046C77.7504 10.0287 77.941 10.02 78.0884 10.02C78.643 10.02 79.1327 10.0807 79.5574 10.202C79.9907 10.3233 80.3547 10.5183 80.6494 10.787C80.944 11.0557 81.165 11.4023 81.3124 11.827C81.4684 12.2517 81.5464 12.7673 81.5464 13.374V13.569C81.5464 13.6643 81.5464 13.777 81.5464 13.907C81.5464 14.0283 81.542 14.1497 81.5334 14.271C81.5247 14.3923 81.5117 14.5093 81.4944 14.622C81.477 14.726 81.4554 14.8127 81.4294 14.882H82.4824V16H72.6154C72.494 16 72.39 15.987 72.3034 15.961C72.2167 15.9263 72.1734 15.8787 72.1734 15.818V15.051ZM75.1894 14.882C75.406 14.8907 75.627 14.895 75.8524 14.895C76.0864 14.895 76.3854 14.895 76.7494 14.895H80.1164C80.2377 14.895 80.3244 14.8257 80.3764 14.687C80.4284 14.5397 80.4544 14.2363 80.4544 13.777V13.543C80.4544 13.0663 80.398 12.672 80.2854 12.36C80.1814 12.048 80.021 11.801 79.8044 11.619C79.5877 11.4283 79.3147 11.294 78.9854 11.216C78.656 11.138 78.2704 11.099 77.8284 11.099C77.6984 11.099 77.5207 11.112 77.2954 11.138C77.0787 11.1553 76.8447 11.19 76.5934 11.242C76.342 11.294 76.0907 11.3677 75.8394 11.463C75.588 11.5497 75.3714 11.6667 75.1894 11.814V14.882ZM77.2044 7.55C77.2044 7.46333 77.2347 7.394 77.2954 7.342C77.356 7.29 77.4254 7.264 77.5034 7.264H78.0754C78.1534 7.264 78.2184 7.29 78.2704 7.342C78.331 7.394 78.3614 7.46333 78.3614 7.55V8.252C78.3614 8.33 78.331 8.395 78.2704 8.447C78.2184 8.499 78.149 8.525 78.0624 8.525H77.5034C77.4167 8.525 77.343 8.499 77.2824 8.447C77.2304 8.395 77.2044 8.33 77.2044 8.252V7.55ZM81.9614 15.051C81.9614 14.999 82.0048 14.96 82.0914 14.934C82.1781 14.8993 82.2821 14.882 82.4034 14.882H88.4354L87.9674 13.764L87.6684 13.075C87.3824 12.4163 87.0011 11.9267 86.5244 11.606C86.0564 11.2767 85.4151 11.112 84.6004 11.112C84.5658 11.112 84.5094 11.1163 84.4314 11.125C84.3621 11.125 84.2798 11.1293 84.1844 11.138C84.0978 11.1467 84.0068 11.1553 83.9114 11.164C83.8248 11.164 83.7468 11.1683 83.6774 11.177C83.4868 11.1943 83.3914 11.1337 83.3914 10.995V10.462C83.3914 10.3927 83.4088 10.3407 83.4434 10.306C83.4781 10.2627 83.5431 10.2323 83.6384 10.215C83.8291 10.1717 84.0414 10.1413 84.2754 10.124C84.5181 10.1067 84.7174 10.098 84.8734 10.098C85.3068 10.098 85.7141 10.1413 86.0954 10.228C86.4768 10.306 86.8364 10.4577 87.1744 10.683C87.5124 10.8997 87.8244 11.203 88.1104 11.593C88.3964 11.9743 88.6651 12.4683 88.9164 13.075L89.0464 13.413L89.5924 14.804C89.6098 14.8647 89.6228 14.9253 89.6314 14.986C89.6488 15.0467 89.6574 15.1247 89.6574 15.22V15.688C89.6574 15.7833 89.6314 15.8613 89.5794 15.922C89.5274 15.974 89.4278 16 89.2804 16H82.4034C82.2734 16 82.1694 15.9827 82.0914 15.948C82.0048 15.9047 81.9614 15.8613 81.9614 15.818V15.051ZM97.1298 12.451C97.1298 12.5983 97.0475 12.672 96.8828 12.672H94.2958C94.1311 12.672 94.0488 12.5983 94.0488 12.451V11.944C94.0488 11.8747 94.0705 11.8183 94.1138 11.775C94.1658 11.7317 94.2265 11.71 94.2958 11.71H96.8828C97.0475 11.71 97.1298 11.788 97.1298 11.944V12.451ZM104.346 8.928C104.346 8.84133 104.376 8.772 104.437 8.72C104.497 8.668 104.567 8.642 104.645 8.642H105.217C105.295 8.642 105.36 8.668 105.412 8.72C105.472 8.772 105.503 8.84133 105.503 8.928V9.63C105.503 9.708 105.472 9.773 105.412 9.825C105.36 9.877 105.29 9.903 105.204 9.903H104.645C104.558 9.903 104.484 9.877 104.424 9.825C104.372 9.773 104.346 9.708 104.346 9.63V8.928ZM102.617 12.412C102.755 12.412 102.82 12.4987 102.812 12.672C102.803 12.776 102.79 12.8887 102.773 13.01C102.764 13.1227 102.755 13.2397 102.747 13.361C102.738 13.4737 102.729 13.582 102.721 13.686C102.721 13.79 102.721 13.8767 102.721 13.946C102.721 14.3967 102.751 14.817 102.812 15.207C102.881 15.5883 103.02 15.9177 103.228 16.195C103.444 16.481 103.748 16.702 104.138 16.858C104.536 17.0227 105.065 17.105 105.724 17.105C105.949 17.105 106.153 17.1007 106.335 17.092C106.525 17.0833 106.729 17.0573 106.946 17.014C106.946 16.78 106.946 16.5677 106.946 16.377C106.954 16.195 106.959 16.0217 106.959 15.857C106.959 15.6923 106.959 15.532 106.959 15.376C106.959 15.22 106.959 15.051 106.959 14.869V10.995C106.959 10.9257 106.98 10.8693 107.024 10.826C107.076 10.774 107.132 10.748 107.193 10.748H107.83C107.899 10.748 107.951 10.774 107.986 10.826C108.029 10.8693 108.051 10.9257 108.051 10.995V14.882H109.26V16H108.051C108.051 16.13 108.051 16.273 108.051 16.429C108.051 16.5937 108.051 16.754 108.051 16.91C108.051 17.0747 108.046 17.2307 108.038 17.378C108.038 17.5253 108.033 17.651 108.025 17.755C108.025 17.8937 107.934 17.9847 107.752 18.028C107.422 18.0973 107.084 18.145 106.738 18.171C106.391 18.2057 106.044 18.223 105.698 18.223C104.944 18.223 104.307 18.1363 103.787 17.963C103.275 17.7983 102.859 17.5513 102.539 17.222C102.227 16.8927 102.001 16.4853 101.863 16C101.724 15.5233 101.655 14.9773 101.655 14.362C101.655 14.284 101.659 14.1757 101.668 14.037C101.676 13.8897 101.685 13.7337 101.694 13.569C101.711 13.4043 101.728 13.244 101.746 13.088C101.763 12.9233 101.785 12.7803 101.811 12.659C101.828 12.5637 101.854 12.4987 101.889 12.464C101.923 12.4293 101.984 12.412 102.071 12.412H102.617ZM108.736 15.051C108.736 14.999 108.779 14.96 108.866 14.934C108.953 14.8993 109.057 14.882 109.178 14.882H109.594C109.655 14.882 109.733 14.882 109.828 14.882C109.932 14.8733 110.032 14.856 110.127 14.83C110.222 14.804 110.305 14.7693 110.374 14.726C110.452 14.674 110.5 14.6047 110.517 14.518C110.543 14.414 110.556 14.2883 110.556 14.141V12.893C110.556 12.0003 110.786 11.3157 111.245 10.839C111.713 10.3623 112.38 10.124 113.247 10.124C114.114 10.124 114.768 10.358 115.21 10.826C115.652 11.294 115.873 11.983 115.873 12.893V13.621C115.873 13.725 115.869 13.8377 115.86 13.959C115.86 14.0803 115.851 14.1887 115.834 14.284C115.843 14.4053 115.886 14.505 115.964 14.583C116.042 14.661 116.129 14.7217 116.224 14.765C116.328 14.8083 116.432 14.8387 116.536 14.856C116.64 14.8733 116.727 14.882 116.796 14.882H116.965V16H116.796C116.51 16 116.228 15.961 115.951 15.883C115.682 15.7963 115.466 15.6663 115.301 15.493C114.894 16.0823 114.2 16.377 113.221 16.377C112.736 16.377 112.302 16.3033 111.921 16.156C111.548 16.0173 111.262 15.8007 111.063 15.506C110.89 15.7053 110.664 15.8397 110.387 15.909C110.11 15.9697 109.811 16 109.49 16H109.178C109.057 16 108.953 15.987 108.866 15.961C108.779 15.9263 108.736 15.8787 108.736 15.818V15.051ZM111.648 12.984V13.582C111.648 13.868 111.665 14.1107 111.7 14.31C111.778 14.674 111.947 14.9383 112.207 15.103C112.467 15.2677 112.805 15.35 113.221 15.35C113.793 15.35 114.196 15.207 114.43 14.921C114.664 14.6263 114.781 14.18 114.781 13.582V12.984C114.781 12.3947 114.664 11.944 114.43 11.632C114.205 11.3113 113.81 11.151 113.247 11.151C112.675 11.151 112.263 11.307 112.012 11.619C111.769 11.931 111.648 12.386 111.648 12.984ZM116.442 15.051C116.442 14.999 116.485 14.96 116.572 14.934C116.659 14.8993 116.763 14.882 116.884 14.882H117.469C117.556 14.882 117.651 14.8777 117.755 14.869C117.859 14.8603 117.959 14.843 118.054 14.817C118.149 14.7823 118.227 14.7347 118.288 14.674C118.357 14.6047 118.392 14.5137 118.392 14.401V10.995C118.392 10.9257 118.414 10.8693 118.457 10.826C118.509 10.774 118.57 10.748 118.639 10.748H119.237C119.306 10.748 119.363 10.774 119.406 10.826C119.458 10.8693 119.484 10.9257 119.484 10.995V14.57C119.51 14.6393 119.562 14.6957 119.64 14.739C119.727 14.7737 119.818 14.804 119.913 14.83C120.017 14.8473 120.121 14.8603 120.225 14.869C120.329 14.8777 120.42 14.882 120.498 14.882H120.68V16H120.524C120.255 16 119.965 15.974 119.653 15.922C119.35 15.8613 119.098 15.7443 118.899 15.571C118.682 15.7443 118.422 15.8613 118.119 15.922C117.824 15.974 117.556 16 117.313 16H116.884C116.763 16 116.659 15.987 116.572 15.961C116.485 15.9263 116.442 15.8787 116.442 15.818V15.051ZM117.131 17.495C117.131 17.4083 117.157 17.339 117.209 17.287C117.27 17.235 117.343 17.209 117.43 17.209H117.937C118.024 17.209 118.093 17.235 118.145 17.287C118.206 17.339 118.236 17.4083 118.236 17.495V18.197C118.236 18.2663 118.206 18.327 118.145 18.379C118.084 18.4397 118.015 18.47 117.937 18.47H117.43C117.343 18.47 117.27 18.4397 117.209 18.379C117.157 18.327 117.131 18.2663 117.131 18.197V17.495ZM119.25 17.495C119.25 17.4083 119.28 17.339 119.341 17.287C119.41 17.235 119.484 17.209 119.562 17.209H120.069C120.147 17.209 120.216 17.235 120.277 17.287C120.338 17.339 120.368 17.4083 120.368 17.495V18.197C120.368 18.2663 120.338 18.327 120.277 18.379C120.216 18.4397 120.147 18.47 120.069 18.47H119.562C119.484 18.47 119.41 18.4397 119.341 18.379C119.28 18.327 119.25 18.2663 119.25 18.197V17.495ZM120.162 15.051C120.162 14.999 120.205 14.96 120.292 14.934C120.378 14.8993 120.482 14.882 120.604 14.882H121.644C121.895 14.882 122.051 14.8603 122.112 14.817C122.181 14.7737 122.216 14.6393 122.216 14.414V6.484C122.216 6.41467 122.237 6.35833 122.281 6.315C122.333 6.263 122.393 6.237 122.463 6.237H123.1C123.169 6.237 123.225 6.263 123.269 6.315C123.312 6.35833 123.334 6.41467 123.334 6.484V13.985C123.334 14.089 123.334 14.206 123.334 14.336C123.334 14.466 123.329 14.6003 123.321 14.739C123.321 14.8777 123.316 15.012 123.308 15.142C123.299 15.272 123.286 15.389 123.269 15.493C123.251 15.5797 123.225 15.6533 123.191 15.714C123.156 15.7747 123.087 15.8267 122.983 15.87C122.913 15.896 122.814 15.9177 122.684 15.935C122.554 15.9437 122.411 15.9567 122.255 15.974C122.099 15.9827 121.934 15.9913 121.761 16C121.596 16 121.44 16 121.293 16H120.604C120.482 16 120.378 15.987 120.292 15.961C120.205 15.9263 120.162 15.8787 120.162 15.818V15.051ZM125.546 6.484C125.546 6.41467 125.568 6.354 125.611 6.302C125.663 6.25 125.724 6.224 125.793 6.224H126.43C126.499 6.224 126.556 6.25 126.599 6.302C126.642 6.354 126.664 6.41467 126.664 6.484V15.74C126.664 15.8093 126.642 15.87 126.599 15.922C126.556 15.974 126.499 16 126.43 16H125.793C125.724 16 125.663 15.974 125.611 15.922C125.568 15.87 125.546 15.8093 125.546 15.74V6.484Z" fill="#0F4173"/>
<path d="M212 11.5C211.337 11.5 210.701 11.2366 210.232 10.7678C209.763 10.2989 209.5 9.66304 209.5 9C209.5 8.33696 209.763 7.70107 210.232 7.23223C210.701 6.76339 211.337 6.5 212 6.5C212.663 6.5 213.299 6.76339 213.768 7.23223C214.237 7.70107 214.5 8.33696 214.5 9C214.5 9.3283 214.435 9.65339 214.31 9.95671C214.184 10.26 214 10.5356 213.768 10.7678C213.536 10.9999 213.26 11.1841 212.957 11.3097C212.653 11.4353 212.328 11.5 212 11.5ZM212 2C210.143 2 208.363 2.7375 207.05 4.05025C205.737 5.36301 205 7.14348 205 9C205 14.25 212 22 212 22C212 22 219 14.25 219 9C219 7.14348 218.263 5.36301 216.95 4.05025C215.637 2.7375 213.857 2 212 2Z" fill="#0F4173"/>
<path d="M9.49 50.24C9.49 50.3093 9.464 50.37 9.412 50.422C9.36 50.474 9.29933 50.5 9.23 50.5H8.606C8.53667 50.5 8.476 50.474 8.424 50.422C8.372 50.37 8.346 50.3093 8.346 50.24V45.638C8.346 45.3693 8.31567 45.144 8.255 44.962C8.19433 44.78 8.112 44.637 8.008 44.533C7.904 44.429 7.77833 44.3553 7.631 44.312C7.48367 44.2687 7.32767 44.247 7.163 44.247C6.929 44.247 6.67767 44.2817 6.409 44.351C6.149 44.4203 5.89333 44.5027 5.642 44.598C5.72 44.884 5.759 45.222 5.759 45.612V50.24C5.759 50.3093 5.73733 50.37 5.694 50.422C5.65067 50.474 5.59433 50.5 5.525 50.5H4.836C4.76667 50.5 4.71033 50.474 4.667 50.422C4.63233 50.37 4.615 50.3093 4.615 50.24V45.612C4.615 45.326 4.59333 45.0963 4.55 44.923C4.51533 44.741 4.45467 44.6023 4.368 44.507C4.28133 44.403 4.173 44.3337 4.043 44.299C3.92167 44.2643 3.77867 44.247 3.614 44.247C3.38 44.247 3.12433 44.299 2.847 44.403C2.57833 44.4983 2.30533 44.6153 2.028 44.754V50.24C2.028 50.3093 2.00633 50.37 1.963 50.422C1.91967 50.474 1.86333 50.5 1.794 50.5H1.105C1.03567 50.5 0.979333 50.474 0.936 50.422C0.901333 50.37 0.884 50.3093 0.884 50.24V43.61C0.884 43.5407 0.905667 43.48 0.949 43.428C1.001 43.376 1.06167 43.35 1.131 43.35H1.781C1.85033 43.35 1.90667 43.376 1.95 43.428C2.002 43.48 2.028 43.5407 2.028 43.61V43.857C2.288 43.6923 2.57833 43.5493 2.899 43.428C3.21967 43.3067 3.562 43.246 3.926 43.246C4.20333 43.246 4.446 43.2893 4.654 43.376C4.87067 43.454 5.06133 43.5883 5.226 43.779C5.59 43.6057 5.954 43.4757 6.318 43.389C6.69067 43.2937 7.046 43.246 7.384 43.246C7.67867 43.246 7.95167 43.285 8.203 43.363C8.463 43.441 8.68833 43.5753 8.879 43.766C9.06967 43.948 9.217 44.195 9.321 44.507C9.43367 44.8103 9.49 45.1873 9.49 45.638V50.24ZM14.4671 44.026C14.4671 44.1733 14.3761 44.247 14.1941 44.247C13.8907 44.247 13.5961 44.2903 13.3101 44.377C13.0327 44.455 12.7294 44.5937 12.4001 44.793V50.24C12.4001 50.3093 12.3741 50.37 12.3221 50.422C12.2701 50.474 12.2094 50.5 12.1401 50.5H11.5031C11.4337 50.5 11.3731 50.474 11.3211 50.422C11.2777 50.37 11.2561 50.3093 11.2561 50.24V43.61C11.2561 43.5407 11.2777 43.48 11.3211 43.428C11.3731 43.376 11.4337 43.35 11.5031 43.35H12.1141C12.1834 43.35 12.2397 43.376 12.2831 43.428C12.3351 43.48 12.3611 43.5407 12.3611 43.61V43.883C12.6904 43.6577 13.0024 43.4973 13.2971 43.402C13.6004 43.3067 13.8994 43.259 14.1941 43.259C14.3761 43.259 14.4671 43.337 14.4671 43.493V44.026ZM20.8084 50.331C20.8084 50.4437 20.7608 50.5 20.6654 50.5H19.7294C19.6601 50.5 19.6038 50.4913 19.5604 50.474C19.5258 50.448 19.4824 50.4003 19.4304 50.331L16.8434 47.133V50.24C16.8434 50.3093 16.8174 50.37 16.7654 50.422C16.7134 50.474 16.6528 50.5 16.5834 50.5H15.9594C15.8901 50.5 15.8294 50.474 15.7774 50.422C15.7254 50.37 15.6994 50.3093 15.6994 50.24V40.984C15.6994 40.9147 15.7254 40.854 15.7774 40.802C15.8294 40.75 15.8901 40.724 15.9594 40.724H16.5834C16.6528 40.724 16.7134 40.75 16.7654 40.802C16.8174 40.854 16.8434 40.9147 16.8434 40.984V46.392L19.4434 43.467C19.4868 43.4237 19.5214 43.3933 19.5474 43.376C19.5821 43.3587 19.6341 43.35 19.7034 43.35H20.6134C20.7434 43.35 20.8084 43.3977 20.8084 43.493C20.8084 43.545 20.7868 43.5927 20.7434 43.636L17.8834 46.73L20.7694 50.214C20.7954 50.24 20.8084 50.279 20.8084 50.331ZM26.8806 50.24C26.8806 50.3093 26.8546 50.37 26.8026 50.422C26.7506 50.474 26.69 50.5 26.6206 50.5H22.6946C22.4173 50.5 22.2136 50.4263 22.0836 50.279C21.9623 50.1317 21.9016 49.967 21.9016 49.785V49.538C21.9016 49.356 21.9233 49.2087 21.9666 49.096C22.01 48.9747 22.088 48.8403 22.2006 48.693L25.5546 44.52C25.5893 44.468 25.6066 44.429 25.6066 44.403C25.6066 44.3423 25.5633 44.312 25.4766 44.312H22.3176C22.2483 44.312 22.1876 44.286 22.1356 44.234C22.0836 44.182 22.0576 44.1213 22.0576 44.052V43.61C22.0576 43.5407 22.0836 43.48 22.1356 43.428C22.1876 43.376 22.2483 43.35 22.3176 43.35H26.1396C26.4083 43.35 26.5946 43.4063 26.6986 43.519C26.8113 43.6317 26.8676 43.7877 26.8676 43.987V44.299C26.8676 44.4377 26.8416 44.5633 26.7896 44.676C26.7463 44.78 26.6726 44.8927 26.5686 45.014L23.1496 49.291C23.1063 49.3343 23.0846 49.382 23.0846 49.434C23.0846 49.5033 23.1193 49.538 23.1886 49.538H26.6206C26.69 49.538 26.7506 49.564 26.8026 49.616C26.8546 49.668 26.8806 49.7287 26.8806 49.798V50.24ZM33.3991 50.24C33.3991 50.3093 33.3731 50.37 33.3211 50.422C33.2691 50.474 33.2085 50.5 33.1391 50.5H32.5411C32.4718 50.5 32.4111 50.474 32.3591 50.422C32.3071 50.37 32.2811 50.3093 32.2811 50.24V49.954C31.9691 50.136 31.6485 50.2877 31.3191 50.409C30.9898 50.5303 30.6431 50.591 30.2791 50.591C30.0018 50.591 29.7331 50.5607 29.4731 50.5C29.2218 50.4307 28.9965 50.3137 28.7971 50.149C28.6065 49.9843 28.4505 49.7677 28.3291 49.499C28.2165 49.2303 28.1601 48.8923 28.1601 48.485V48.329C28.1601 47.9823 28.2121 47.679 28.3161 47.419C28.4288 47.1503 28.6065 46.9293 28.8491 46.756C29.1005 46.574 29.4255 46.4397 29.8241 46.353C30.2228 46.2663 30.7125 46.223 31.2931 46.223H32.2551V45.703C32.2551 45.157 32.1511 44.7757 31.9431 44.559C31.7351 44.3423 31.3755 44.234 30.8641 44.234C30.4395 44.234 30.0668 44.247 29.7461 44.273C29.4255 44.2903 29.1351 44.312 28.8751 44.338H28.8101C28.7495 44.338 28.6931 44.325 28.6411 44.299C28.5978 44.273 28.5761 44.2167 28.5761 44.13V43.675C28.5761 43.5363 28.6671 43.454 28.8491 43.428C29.1178 43.3847 29.4081 43.3457 29.7201 43.311C30.0408 43.2763 30.4221 43.259 30.8641 43.259C31.7655 43.259 32.4111 43.4757 32.8011 43.909C33.1998 44.3423 33.3991 44.9403 33.3991 45.703V50.24ZM32.2551 47.042H31.2931C30.9031 47.042 30.5781 47.068 30.3181 47.12C30.0581 47.1633 29.8545 47.237 29.7071 47.341C29.5598 47.4363 29.4558 47.5663 29.3951 47.731C29.3345 47.887 29.3041 48.082 29.3041 48.316V48.472C29.3041 48.94 29.4081 49.2563 29.6161 49.421C29.8241 49.577 30.1188 49.655 30.5001 49.655C30.8035 49.655 31.0938 49.6117 31.3711 49.525C31.6485 49.4383 31.9431 49.3083 32.2551 49.135V47.042ZM36.4353 50.24C36.4353 50.3093 36.4137 50.37 36.3703 50.422C36.327 50.474 36.2707 50.5 36.2013 50.5H35.5253C35.456 50.5 35.3997 50.474 35.3563 50.422C35.313 50.37 35.2913 50.3093 35.2913 50.24V40.971C35.2913 40.9017 35.313 40.8453 35.3563 40.802C35.3997 40.75 35.456 40.724 35.5253 40.724H36.2013C36.2707 40.724 36.327 40.75 36.3703 40.802C36.4137 40.8453 36.4353 40.9017 36.4353 40.971V50.24ZM43.3142 50.24C43.3142 50.3093 43.2882 50.37 43.2362 50.422C43.1842 50.474 43.1235 50.5 43.0542 50.5H42.4562C42.3868 50.5 42.3262 50.474 42.2742 50.422C42.2222 50.37 42.1962 50.3093 42.1962 50.24V49.954C41.8842 50.136 41.5635 50.2877 41.2342 50.409C40.9048 50.5303 40.5582 50.591 40.1942 50.591C39.9168 50.591 39.6482 50.5607 39.3882 50.5C39.1368 50.4307 38.9115 50.3137 38.7122 50.149C38.5215 49.9843 38.3655 49.7677 38.2442 49.499C38.1315 49.2303 38.0752 48.8923 38.0752 48.485V48.329C38.0752 47.9823 38.1272 47.679 38.2312 47.419C38.3438 47.1503 38.5215 46.9293 38.7642 46.756C39.0155 46.574 39.3405 46.4397 39.7392 46.353C40.1378 46.2663 40.6275 46.223 41.2082 46.223H42.1702V45.703C42.1702 45.157 42.0662 44.7757 41.8582 44.559C41.6502 44.3423 41.2905 44.234 40.7792 44.234C40.3545 44.234 39.9818 44.247 39.6612 44.273C39.3405 44.2903 39.0502 44.312 38.7902 44.338H38.7252C38.6645 44.338 38.6082 44.325 38.5562 44.299C38.5128 44.273 38.4912 44.2167 38.4912 44.13V43.675C38.4912 43.5363 38.5822 43.454 38.7642 43.428C39.0328 43.3847 39.3232 43.3457 39.6352 43.311C39.9558 43.2763 40.3372 43.259 40.7792 43.259C41.6805 43.259 42.3262 43.4757 42.7162 43.909C43.1148 44.3423 43.3142 44.9403 43.3142 45.703V50.24ZM42.1702 47.042H41.2082C40.8182 47.042 40.4932 47.068 40.2332 47.12C39.9732 47.1633 39.7695 47.237 39.6222 47.341C39.4748 47.4363 39.3708 47.5663 39.3102 47.731C39.2495 47.887 39.2192 48.082 39.2192 48.316V48.472C39.2192 48.94 39.3232 49.2563 39.5312 49.421C39.7392 49.577 40.0338 49.655 40.4152 49.655C40.7185 49.655 41.0088 49.6117 41.2862 49.525C41.5635 49.4383 41.8582 49.3083 42.1702 49.135V47.042ZM48.2874 44.026C48.2874 44.1733 48.1964 44.247 48.0144 44.247C47.711 44.247 47.4164 44.2903 47.1304 44.377C46.853 44.455 46.5497 44.5937 46.2204 44.793V50.24C46.2204 50.3093 46.1944 50.37 46.1424 50.422C46.0904 50.474 46.0297 50.5 45.9604 50.5H45.3234C45.254 50.5 45.1934 50.474 45.1414 50.422C45.098 50.37 45.0764 50.3093 45.0764 50.24V43.61C45.0764 43.5407 45.098 43.48 45.1414 43.428C45.1934 43.376 45.254 43.35 45.3234 43.35H45.9344C46.0037 43.35 46.06 43.376 46.1034 43.428C46.1554 43.48 46.1814 43.5407 46.1814 43.61V43.883C46.5107 43.6577 46.8227 43.4973 47.1174 43.402C47.4207 43.3067 47.7197 43.259 48.0144 43.259C48.1964 43.259 48.2874 43.337 48.2874 43.493V44.026ZM53.3157 50.305C53.3157 50.4263 53.2377 50.5 53.0817 50.526C52.9517 50.5433 52.8087 50.5563 52.6527 50.565C52.4967 50.5823 52.3581 50.591 52.2367 50.591C51.9334 50.591 51.6691 50.565 51.4437 50.513C51.2271 50.4697 51.0451 50.383 50.8977 50.253C50.7591 50.123 50.6507 49.9453 50.5727 49.72C50.5034 49.4947 50.4687 49.2043 50.4687 48.849V44.312L49.2077 44.169C49.0431 44.1517 48.9607 44.0737 48.9607 43.935V43.584C48.9607 43.428 49.0431 43.35 49.2077 43.35H50.4687V42.076C50.4687 41.9287 50.5467 41.842 50.7027 41.816L51.3787 41.712H51.4177C51.4697 41.712 51.5131 41.7337 51.5477 41.777C51.5911 41.8117 51.6127 41.8637 51.6127 41.933V43.35H53.0167C53.0861 43.35 53.1467 43.376 53.1987 43.428C53.2507 43.48 53.2767 43.5407 53.2767 43.61V44.052C53.2767 44.1213 53.2507 44.182 53.1987 44.234C53.1467 44.286 53.0861 44.312 53.0167 44.312H51.6127V48.849C51.6127 49.2043 51.6647 49.4297 51.7687 49.525C51.8727 49.6203 52.0547 49.668 52.3147 49.668H53.0427C53.2247 49.668 53.3157 49.7287 53.3157 49.85V50.305ZM59.609 52.801C59.609 52.8703 59.5873 52.9267 59.544 52.97C59.5006 53.022 59.4443 53.048 59.375 53.048H58.712C58.6426 53.048 58.582 53.022 58.53 52.97C58.4866 52.9267 58.465 52.8703 58.465 52.801V50.448C58.2136 50.4913 57.9493 50.526 57.672 50.552C57.3946 50.578 57.152 50.591 56.944 50.591C55.9993 50.591 55.2886 50.318 54.812 49.772C54.344 49.2173 54.11 48.4287 54.11 47.406V46.47C54.11 45.9847 54.1663 45.547 54.279 45.157C54.3916 44.7583 54.565 44.4203 54.799 44.143C55.033 43.857 55.3276 43.6403 55.683 43.493C56.0383 43.337 56.4586 43.259 56.944 43.259C57.334 43.259 57.7413 43.2893 58.166 43.35C58.5993 43.402 58.9893 43.4713 59.336 43.558C59.4573 43.584 59.531 43.6187 59.557 43.662C59.5916 43.6967 59.609 43.7617 59.609 43.857V52.801ZM58.465 44.351C58.2916 44.3163 58.062 44.286 57.776 44.26C57.4986 44.234 57.2213 44.221 56.944 44.221C56.6233 44.221 56.3546 44.273 56.138 44.377C55.9213 44.481 55.748 44.6327 55.618 44.832C55.488 45.0227 55.3926 45.2567 55.332 45.534C55.28 45.8113 55.254 46.1233 55.254 46.47V47.406C55.254 47.7527 55.28 48.0647 55.332 48.342C55.3926 48.6193 55.488 48.8533 55.618 49.044C55.748 49.2347 55.9213 49.382 56.138 49.486C56.3546 49.5813 56.6233 49.629 56.944 49.629C57.048 49.629 57.165 49.629 57.295 49.629C57.425 49.6203 57.5593 49.6117 57.698 49.603C57.8366 49.5857 57.971 49.5683 58.101 49.551C58.2396 49.5337 58.361 49.5163 58.465 49.499V44.351ZM66.3562 50.24C66.3562 50.3093 66.3302 50.37 66.2782 50.422C66.2262 50.474 66.1655 50.5 66.0962 50.5H65.4982C65.4288 50.5 65.3682 50.474 65.3162 50.422C65.2642 50.37 65.2382 50.3093 65.2382 50.24V49.954C64.9262 50.136 64.6055 50.2877 64.2762 50.409C63.9468 50.5303 63.6002 50.591 63.2362 50.591C62.9588 50.591 62.6902 50.5607 62.4302 50.5C62.1788 50.4307 61.9535 50.3137 61.7542 50.149C61.5635 49.9843 61.4075 49.7677 61.2862 49.499C61.1735 49.2303 61.1172 48.8923 61.1172 48.485V48.329C61.1172 47.9823 61.1692 47.679 61.2732 47.419C61.3858 47.1503 61.5635 46.9293 61.8062 46.756C62.0575 46.574 62.3825 46.4397 62.7812 46.353C63.1798 46.2663 63.6695 46.223 64.2502 46.223H65.2122V45.703C65.2122 45.157 65.1082 44.7757 64.9002 44.559C64.6922 44.3423 64.3325 44.234 63.8212 44.234C63.3965 44.234 63.0238 44.247 62.7032 44.273C62.3825 44.2903 62.0922 44.312 61.8322 44.338H61.7672C61.7065 44.338 61.6502 44.325 61.5982 44.299C61.5548 44.273 61.5332 44.2167 61.5332 44.13V43.675C61.5332 43.5363 61.6242 43.454 61.8062 43.428C62.0748 43.3847 62.3652 43.3457 62.6772 43.311C62.9978 43.2763 63.3792 43.259 63.8212 43.259C64.7225 43.259 65.3682 43.4757 65.7582 43.909C66.1568 44.3423 66.3562 44.9403 66.3562 45.703V50.24ZM65.2122 47.042H64.2502C63.8602 47.042 63.5352 47.068 63.2752 47.12C63.0152 47.1633 62.8115 47.237 62.6642 47.341C62.5168 47.4363 62.4128 47.5663 62.3522 47.731C62.2915 47.887 62.2612 48.082 62.2612 48.316V48.472C62.2612 48.94 62.3652 49.2563 62.5732 49.421C62.7812 49.577 63.0758 49.655 63.4572 49.655C63.7605 49.655 64.0508 49.6117 64.3282 49.525C64.6055 49.4383 64.9002 49.3083 65.2122 49.135V47.042ZM69.3924 50.24C69.3924 50.3093 69.3707 50.37 69.3274 50.422C69.284 50.474 69.2277 50.5 69.1584 50.5H68.4824C68.413 50.5 68.3567 50.474 68.3134 50.422C68.27 50.37 68.2484 50.3093 68.2484 50.24V40.971C68.2484 40.9017 68.27 40.8453 68.3134 40.802C68.3567 40.75 68.413 40.724 68.4824 40.724H69.1584C69.2277 40.724 69.284 40.75 69.3274 40.802C69.3707 40.8453 69.3924 40.9017 69.3924 40.971V50.24ZM72.5662 50.24C72.5662 50.3093 72.5445 50.37 72.5012 50.422C72.4579 50.474 72.4015 50.5 72.3322 50.5H71.6562C71.5869 50.5 71.5305 50.474 71.4872 50.422C71.4439 50.37 71.4222 50.3093 71.4222 50.24V40.971C71.4222 40.9017 71.4439 40.8453 71.4872 40.802C71.5305 40.75 71.5869 40.724 71.6562 40.724H72.3322C72.4015 40.724 72.4579 40.75 72.5012 40.802C72.5445 40.8453 72.5662 40.9017 72.5662 40.971V50.24ZM78.262 50.305C78.262 50.4263 78.184 50.5 78.028 50.526C77.898 50.5433 77.755 50.5563 77.599 50.565C77.443 50.5823 77.3044 50.591 77.183 50.591C76.8797 50.591 76.6154 50.565 76.39 50.513C76.1734 50.4697 75.9914 50.383 75.844 50.253C75.7054 50.123 75.597 49.9453 75.519 49.72C75.4497 49.4947 75.415 49.2043 75.415 48.849V44.312L74.154 44.169C73.9894 44.1517 73.907 44.0737 73.907 43.935V43.584C73.907 43.428 73.9894 43.35 74.154 43.35H75.415V42.076C75.415 41.9287 75.493 41.842 75.649 41.816L76.325 41.712H76.364C76.416 41.712 76.4594 41.7337 76.494 41.777C76.5374 41.8117 76.559 41.8637 76.559 41.933V43.35H77.963C78.0324 43.35 78.093 43.376 78.145 43.428C78.197 43.48 78.223 43.5407 78.223 43.61V44.052C78.223 44.1213 78.197 44.182 78.145 44.234C78.093 44.286 78.0324 44.312 77.963 44.312H76.559V48.849C76.559 49.2043 76.611 49.4297 76.715 49.525C76.819 49.6203 77.001 49.668 77.261 49.668H77.989C78.171 49.668 78.262 49.7287 78.262 49.85V50.305ZM84.941 50.24C84.941 50.3093 84.915 50.37 84.863 50.422C84.811 50.474 84.7503 50.5 84.681 50.5H84.057C83.9877 50.5 83.927 50.474 83.875 50.422C83.823 50.37 83.797 50.3093 83.797 50.24V45.963C83.797 45.6337 83.7667 45.3607 83.706 45.144C83.654 44.9187 83.5673 44.741 83.446 44.611C83.3333 44.481 83.186 44.39 83.004 44.338C82.822 44.2773 82.6097 44.247 82.367 44.247C82.0897 44.247 81.8037 44.2947 81.509 44.39C81.2143 44.4853 80.9153 44.6067 80.612 44.754V50.24C80.612 50.3093 80.586 50.37 80.534 50.422C80.482 50.474 80.4213 50.5 80.352 50.5H79.715C79.6457 50.5 79.585 50.474 79.533 50.422C79.4897 50.37 79.468 50.3093 79.468 50.24V43.61C79.468 43.5407 79.4897 43.48 79.533 43.428C79.585 43.376 79.6457 43.35 79.715 43.35H80.365C80.4343 43.35 80.4907 43.376 80.534 43.428C80.586 43.48 80.612 43.5407 80.612 43.61V43.857C80.976 43.6577 81.314 43.5103 81.626 43.415C81.938 43.311 82.289 43.259 82.679 43.259C83.4677 43.259 84.0397 43.493 84.395 43.961C84.759 44.429 84.941 45.0963 84.941 45.963V50.24ZM95.3103 50.24C95.3103 50.3093 95.2843 50.37 95.2323 50.422C95.1803 50.474 95.1196 50.5 95.0503 50.5H94.4263C94.357 50.5 94.2963 50.474 94.2443 50.422C94.1923 50.37 94.1663 50.3093 94.1663 50.24V45.638C94.1663 45.3693 94.136 45.144 94.0753 44.962C94.0146 44.78 93.9323 44.637 93.8283 44.533C93.7243 44.429 93.5986 44.3553 93.4513 44.312C93.304 44.2687 93.148 44.247 92.9833 44.247C92.7493 44.247 92.498 44.2817 92.2293 44.351C91.9693 44.4203 91.7136 44.5027 91.4623 44.598C91.5403 44.884 91.5793 45.222 91.5793 45.612V50.24C91.5793 50.3093 91.5576 50.37 91.5143 50.422C91.471 50.474 91.4146 50.5 91.3453 50.5H90.6563C90.587 50.5 90.5306 50.474 90.4873 50.422C90.4526 50.37 90.4353 50.3093 90.4353 50.24V45.612C90.4353 45.326 90.4136 45.0963 90.3703 44.923C90.3356 44.741 90.275 44.6023 90.1883 44.507C90.1016 44.403 89.9933 44.3337 89.8633 44.299C89.742 44.2643 89.599 44.247 89.4343 44.247C89.2003 44.247 88.9446 44.299 88.6673 44.403C88.3986 44.4983 88.1256 44.6153 87.8483 44.754V50.24C87.8483 50.3093 87.8266 50.37 87.7833 50.422C87.74 50.474 87.6836 50.5 87.6143 50.5H86.9253C86.856 50.5 86.7996 50.474 86.7563 50.422C86.7216 50.37 86.7043 50.3093 86.7043 50.24V43.61C86.7043 43.5407 86.726 43.48 86.7693 43.428C86.8213 43.376 86.882 43.35 86.9513 43.35H87.6013C87.6706 43.35 87.727 43.376 87.7703 43.428C87.8223 43.48 87.8483 43.5407 87.8483 43.61V43.857C88.1083 43.6923 88.3986 43.5493 88.7193 43.428C89.04 43.3067 89.3823 43.246 89.7463 43.246C90.0236 43.246 90.2663 43.2893 90.4743 43.376C90.691 43.454 90.8816 43.5883 91.0463 43.779C91.4103 43.6057 91.7743 43.4757 92.1383 43.389C92.511 43.2937 92.8663 43.246 93.2043 43.246C93.499 43.246 93.772 43.285 94.0233 43.363C94.2833 43.441 94.5086 43.5753 94.6993 43.766C94.89 43.948 95.0373 44.195 95.1413 44.507C95.254 44.8103 95.3103 45.1873 95.3103 45.638V50.24ZM102.437 43.571C102.437 43.6143 102.433 43.6447 102.424 43.662L100.279 51.15C100.175 51.5053 100.062 51.8043 99.941 52.047C99.8283 52.2897 99.681 52.4847 99.499 52.632C99.317 52.788 99.096 52.9007 98.836 52.97C98.5846 53.0393 98.2726 53.074 97.9 53.074C97.718 53.074 97.523 53.061 97.315 53.035C97.1156 53.0177 96.9466 52.9917 96.808 52.957C96.73 52.9397 96.665 52.918 96.613 52.892C96.561 52.866 96.535 52.8183 96.535 52.749V52.268C96.535 52.1293 96.6173 52.06 96.782 52.06H96.821C96.9683 52.0773 97.159 52.0947 97.393 52.112C97.6356 52.1293 97.8306 52.138 97.978 52.138C98.16 52.138 98.3203 52.1207 98.459 52.086C98.5976 52.06 98.7146 52.0037 98.81 51.917C98.914 51.839 99.0006 51.7263 99.07 51.579C99.148 51.4403 99.213 51.2583 99.265 51.033L99.395 50.5H99.213C99.1176 50.5 99.0223 50.4913 98.927 50.474C98.8403 50.4567 98.7536 50.4177 98.667 50.357C98.589 50.2963 98.5153 50.2053 98.446 50.084C98.3766 49.9627 98.3116 49.8023 98.251 49.603L96.522 43.662C96.5133 43.6447 96.509 43.6143 96.509 43.571C96.509 43.4237 96.587 43.35 96.743 43.35H97.458C97.51 43.35 97.5533 43.3717 97.588 43.415C97.6313 43.4583 97.6616 43.506 97.679 43.558L99.213 49.2C99.2476 49.33 99.2866 49.4123 99.33 49.447C99.3733 49.473 99.4166 49.486 99.46 49.486H99.668L101.254 43.545C101.271 43.493 101.302 43.4497 101.345 43.415C101.388 43.3717 101.44 43.35 101.501 43.35H102.229C102.368 43.35 102.437 43.4237 102.437 43.571ZM107.626 50.305C107.626 50.4263 107.548 50.5 107.392 50.526C107.262 50.5433 107.119 50.5563 106.963 50.565C106.807 50.5823 106.669 50.591 106.547 50.591C106.244 50.591 105.98 50.565 105.754 50.513C105.538 50.4697 105.356 50.383 105.208 50.253C105.07 50.123 104.961 49.9453 104.883 49.72C104.814 49.4947 104.779 49.2043 104.779 48.849V44.312L103.518 44.169C103.354 44.1517 103.271 44.0737 103.271 43.935V43.584C103.271 43.428 103.354 43.35 103.518 43.35H104.779V42.076C104.779 41.9287 104.857 41.842 105.013 41.816L105.689 41.712H105.728C105.78 41.712 105.824 41.7337 105.858 41.777C105.902 41.8117 105.923 41.8637 105.923 41.933V43.35H107.327C107.397 43.35 107.457 43.376 107.509 43.428C107.561 43.48 107.587 43.5407 107.587 43.61V44.052C107.587 44.1213 107.561 44.182 107.509 44.234C107.457 44.286 107.397 44.312 107.327 44.312H105.923V48.849C105.923 49.2043 105.975 49.4297 106.079 49.525C106.183 49.6203 106.365 49.668 106.625 49.668H107.353C107.535 49.668 107.626 49.7287 107.626 49.85V50.305ZM117.412 45.742C117.412 46.5567 117.308 47.224 117.1 47.744C116.892 48.2553 116.589 48.6627 116.19 48.966C115.783 49.2693 115.285 49.486 114.695 49.616C114.115 49.7373 113.443 49.798 112.68 49.798C112.03 49.798 111.519 49.642 111.146 49.33C110.774 49.0093 110.587 48.563 110.587 47.991C110.587 47.9477 110.587 47.9087 110.587 47.874C110.587 47.8393 110.592 47.8003 110.6 47.757L110.743 46.236C110.813 45.5687 111.047 45.0573 111.445 44.702C111.853 44.3467 112.407 44.169 113.109 44.169C113.387 44.169 113.668 44.1907 113.954 44.234C114.249 44.2687 114.522 44.312 114.773 44.364C114.86 44.3813 114.925 44.4073 114.968 44.442C115.02 44.4767 115.046 44.5417 115.046 44.637V44.689L114.656 48.758C115.064 48.6973 115.389 48.5847 115.631 48.42C115.883 48.2467 116.078 48.03 116.216 47.77C116.355 47.51 116.446 47.211 116.489 46.873C116.533 46.5263 116.554 46.1493 116.554 45.742C116.554 45.3347 116.489 44.949 116.359 44.585C116.229 44.2123 116.03 43.8917 115.761 43.623C115.493 43.3457 115.159 43.129 114.76 42.973C114.362 42.8083 113.894 42.726 113.356 42.726C112.784 42.726 112.273 42.8083 111.822 42.973C111.372 43.129 110.986 43.35 110.665 43.636C110.345 43.922 110.089 44.2687 109.898 44.676C109.708 45.0833 109.586 45.534 109.534 46.028L109.339 48.004C109.331 48.0733 109.322 48.1427 109.313 48.212C109.313 48.2813 109.313 48.3507 109.313 48.42C109.313 48.81 109.378 49.174 109.508 49.512C109.647 49.85 109.851 50.1447 110.119 50.396C110.388 50.6387 110.726 50.8293 111.133 50.968C111.549 51.1153 112.035 51.189 112.589 51.189C112.901 51.189 113.213 51.1803 113.525 51.163C113.837 51.1457 114.149 51.124 114.461 51.098H114.474C114.526 51.098 114.561 51.1153 114.578 51.15C114.587 51.1673 114.591 51.1803 114.591 51.189V51.605C114.591 51.6743 114.574 51.7177 114.539 51.735C114.505 51.761 114.453 51.7783 114.383 51.787C114.21 51.8043 113.963 51.826 113.642 51.852C113.322 51.878 112.966 51.891 112.576 51.891C111.952 51.891 111.389 51.8043 110.886 51.631C110.384 51.4663 109.95 51.2323 109.586 50.929C109.231 50.6257 108.958 50.2617 108.767 49.837C108.577 49.4037 108.481 48.927 108.481 48.407C108.481 48.3377 108.481 48.2727 108.481 48.212C108.481 48.1427 108.486 48.0733 108.494 48.004L108.689 45.976C108.741 45.3867 108.884 44.8493 109.118 44.364C109.361 43.87 109.682 43.4453 110.08 43.09C110.479 42.7347 110.956 42.4617 111.51 42.271C112.074 42.0717 112.702 41.972 113.395 41.972C114.063 41.972 114.648 42.0803 115.15 42.297C115.653 42.505 116.069 42.7867 116.398 43.142C116.736 43.4887 116.988 43.8873 117.152 44.338C117.326 44.7887 117.412 45.2567 117.412 45.742ZM113.889 45.183C113.751 45.1657 113.603 45.1483 113.447 45.131C113.3 45.1137 113.153 45.105 113.005 45.105C112.615 45.105 112.329 45.2003 112.147 45.391C111.974 45.5817 111.866 45.872 111.822 46.262L111.679 47.744C111.671 47.7873 111.666 47.8263 111.666 47.861C111.666 47.8957 111.666 47.9303 111.666 47.965C111.666 48.2683 111.749 48.4937 111.913 48.641C112.078 48.7883 112.351 48.862 112.732 48.862H113.005C113.101 48.862 113.192 48.862 113.278 48.862C113.374 48.862 113.469 48.8533 113.564 48.836L113.889 45.183ZM124.713 43.974C124.713 44.0607 124.691 44.1213 124.648 44.156C124.605 44.182 124.548 44.2037 124.479 44.221L124.011 44.312C124.132 44.4333 124.236 44.598 124.323 44.806C124.41 45.014 124.453 45.2957 124.453 45.651V45.755C124.453 46.4743 124.223 47.0247 123.764 47.406C123.305 47.7873 122.572 47.978 121.567 47.978C121.22 47.978 120.93 47.9563 120.696 47.913C120.462 47.861 120.25 47.796 120.059 47.718C119.842 47.822 119.734 47.9693 119.734 48.16C119.734 48.2727 119.764 48.3593 119.825 48.42C119.886 48.4807 119.99 48.5327 120.137 48.576L122.074 49.07C122.395 49.148 122.702 49.2347 122.997 49.33C123.3 49.4253 123.569 49.5467 123.803 49.694C124.037 49.8327 124.223 50.006 124.362 50.214C124.501 50.422 124.57 50.6777 124.57 50.981V51.085C124.57 51.709 124.34 52.1987 123.881 52.554C123.43 52.918 122.672 53.1 121.606 53.1C120.575 53.1 119.816 52.9137 119.331 52.541C118.854 52.177 118.616 51.6743 118.616 51.033V50.916C118.616 50.552 118.698 50.227 118.863 49.941C119.028 49.655 119.218 49.4297 119.435 49.265L119.344 49.226C119.136 49.1307 118.984 48.9877 118.889 48.797C118.794 48.6063 118.746 48.4113 118.746 48.212V48.199C118.746 48.0257 118.789 47.8523 118.876 47.679C118.963 47.5057 119.097 47.367 119.279 47.263C119.08 47.0723 118.928 46.8557 118.824 46.613C118.729 46.3703 118.681 46.0843 118.681 45.755V45.651C118.681 45.365 118.724 45.0833 118.811 44.806C118.906 44.5287 119.062 44.2817 119.279 44.065C119.504 43.8483 119.799 43.675 120.163 43.545C120.536 43.415 121.004 43.35 121.567 43.35H124.414C124.492 43.35 124.561 43.3803 124.622 43.441C124.683 43.493 124.713 43.558 124.713 43.636V43.974ZM123.322 45.651C123.322 45.4603 123.296 45.2783 123.244 45.105C123.192 44.9317 123.101 44.7843 122.971 44.663C122.841 44.5417 122.659 44.4463 122.425 44.377C122.2 44.299 121.914 44.26 121.567 44.26C121.203 44.26 120.904 44.299 120.67 44.377C120.445 44.455 120.267 44.559 120.137 44.689C120.016 44.8103 119.929 44.9577 119.877 45.131C119.834 45.2957 119.812 45.469 119.812 45.651V45.755C119.812 45.9023 119.834 46.054 119.877 46.21C119.92 46.366 120.003 46.509 120.124 46.639C120.254 46.769 120.432 46.8773 120.657 46.964C120.891 47.042 121.194 47.081 121.567 47.081C121.914 47.081 122.2 47.0507 122.425 46.99C122.659 46.9207 122.841 46.8297 122.971 46.717C123.101 46.5957 123.192 46.457 123.244 46.301C123.296 46.1363 123.322 45.9543 123.322 45.755V45.651ZM123.426 50.981C123.426 50.7297 123.305 50.5347 123.062 50.396C122.828 50.2573 122.421 50.1143 121.84 49.967L120.371 49.59C120.18 49.7547 120.024 49.9323 119.903 50.123C119.79 50.3137 119.734 50.578 119.734 50.916V51.033C119.734 51.215 119.764 51.3797 119.825 51.527C119.886 51.6743 119.985 51.7957 120.124 51.891C120.271 51.995 120.462 52.073 120.696 52.125C120.939 52.1857 121.242 52.216 121.606 52.216C121.979 52.216 122.282 52.19 122.516 52.138C122.75 52.086 122.932 52.0123 123.062 51.917C123.201 51.8217 123.296 51.7047 123.348 51.566C123.4 51.4273 123.426 51.267 123.426 51.085V50.981ZM134.666 50.24C134.666 50.3093 134.64 50.37 134.588 50.422C134.536 50.474 134.475 50.5 134.406 50.5H133.782C133.712 50.5 133.652 50.474 133.6 50.422C133.548 50.37 133.522 50.3093 133.522 50.24V45.638C133.522 45.3693 133.491 45.144 133.431 44.962C133.37 44.78 133.288 44.637 133.184 44.533C133.08 44.429 132.954 44.3553 132.807 44.312C132.659 44.2687 132.503 44.247 132.339 44.247C132.105 44.247 131.853 44.2817 131.585 44.351C131.325 44.4203 131.069 44.5027 130.818 44.598C130.896 44.884 130.935 45.222 130.935 45.612V50.24C130.935 50.3093 130.913 50.37 130.87 50.422C130.826 50.474 130.77 50.5 130.701 50.5H130.012C129.942 50.5 129.886 50.474 129.843 50.422C129.808 50.37 129.791 50.3093 129.791 50.24V45.612C129.791 45.326 129.769 45.0963 129.726 44.923C129.691 44.741 129.63 44.6023 129.544 44.507C129.457 44.403 129.349 44.3337 129.219 44.299C129.097 44.2643 128.954 44.247 128.79 44.247C128.556 44.247 128.3 44.299 128.023 44.403C127.754 44.4983 127.481 44.6153 127.204 44.754V50.24C127.204 50.3093 127.182 50.37 127.139 50.422C127.095 50.474 127.039 50.5 126.97 50.5H126.281C126.211 50.5 126.155 50.474 126.112 50.422C126.077 50.37 126.06 50.3093 126.06 50.24V43.61C126.06 43.5407 126.081 43.48 126.125 43.428C126.177 43.376 126.237 43.35 126.307 43.35H126.957C127.026 43.35 127.082 43.376 127.126 43.428C127.178 43.48 127.204 43.5407 127.204 43.61V43.857C127.464 43.6923 127.754 43.5493 128.075 43.428C128.395 43.3067 128.738 43.246 129.102 43.246C129.379 43.246 129.622 43.2893 129.83 43.376C130.046 43.454 130.237 43.5883 130.402 43.779C130.766 43.6057 131.13 43.4757 131.494 43.389C131.866 43.2937 132.222 43.246 132.56 43.246C132.854 43.246 133.127 43.285 133.379 43.363C133.639 43.441 133.864 43.5753 134.055 43.766C134.245 43.948 134.393 44.195 134.497 44.507C134.609 44.8103 134.666 45.1873 134.666 45.638V50.24ZM141.411 50.24C141.411 50.3093 141.385 50.37 141.333 50.422C141.281 50.474 141.22 50.5 141.151 50.5H140.553C140.484 50.5 140.423 50.474 140.371 50.422C140.319 50.37 140.293 50.3093 140.293 50.24V49.954C139.981 50.136 139.66 50.2877 139.331 50.409C139.002 50.5303 138.655 50.591 138.291 50.591C138.014 50.591 137.745 50.5607 137.485 50.5C137.234 50.4307 137.008 50.3137 136.809 50.149C136.618 49.9843 136.462 49.7677 136.341 49.499C136.228 49.2303 136.172 48.8923 136.172 48.485V48.329C136.172 47.9823 136.224 47.679 136.328 47.419C136.441 47.1503 136.618 46.9293 136.861 46.756C137.112 46.574 137.437 46.4397 137.836 46.353C138.235 46.2663 138.724 46.223 139.305 46.223H140.267V45.703C140.267 45.157 140.163 44.7757 139.955 44.559C139.747 44.3423 139.387 44.234 138.876 44.234C138.451 44.234 138.079 44.247 137.758 44.273C137.437 44.2903 137.147 44.312 136.887 44.338H136.822C136.761 44.338 136.705 44.325 136.653 44.299C136.61 44.273 136.588 44.2167 136.588 44.13V43.675C136.588 43.5363 136.679 43.454 136.861 43.428C137.13 43.3847 137.42 43.3457 137.732 43.311C138.053 43.2763 138.434 43.259 138.876 43.259C139.777 43.259 140.423 43.4757 140.813 43.909C141.212 44.3423 141.411 44.9403 141.411 45.703V50.24ZM140.267 47.042H139.305C138.915 47.042 138.59 47.068 138.33 47.12C138.07 47.1633 137.866 47.237 137.719 47.341C137.572 47.4363 137.468 47.5663 137.407 47.731C137.346 47.887 137.316 48.082 137.316 48.316V48.472C137.316 48.94 137.42 49.2563 137.628 49.421C137.836 49.577 138.131 49.655 138.512 49.655C138.815 49.655 139.106 49.6117 139.383 49.525C139.66 49.4383 139.955 49.3083 140.267 49.135V47.042ZM144.486 41.946C144.486 42.0153 144.46 42.076 144.408 42.128C144.356 42.18 144.295 42.206 144.226 42.206H143.563C143.494 42.206 143.433 42.18 143.381 42.128C143.329 42.076 143.303 42.0153 143.303 41.946V40.906C143.303 40.8367 143.329 40.776 143.381 40.724C143.433 40.672 143.494 40.646 143.563 40.646H144.226C144.295 40.646 144.356 40.672 144.408 40.724C144.46 40.776 144.486 40.8367 144.486 40.906V41.946ZM144.46 50.24C144.46 50.3093 144.434 50.37 144.382 50.422C144.33 50.474 144.269 50.5 144.2 50.5H143.576C143.507 50.5 143.446 50.474 143.394 50.422C143.342 50.37 143.316 50.3093 143.316 50.24V43.61C143.316 43.5407 143.342 43.48 143.394 43.428C143.446 43.376 143.507 43.35 143.576 43.35H144.2C144.269 43.35 144.33 43.376 144.382 43.428C144.434 43.48 144.46 43.5407 144.46 43.61V50.24ZM147.659 50.24C147.659 50.3093 147.637 50.37 147.594 50.422C147.551 50.474 147.494 50.5 147.425 50.5H146.749C146.68 50.5 146.623 50.474 146.58 50.422C146.537 50.37 146.515 50.3093 146.515 50.24V40.971C146.515 40.9017 146.537 40.8453 146.58 40.802C146.623 40.75 146.68 40.724 146.749 40.724H147.425C147.494 40.724 147.551 40.75 147.594 40.802C147.637 40.8453 147.659 40.9017 147.659 40.971V50.24ZM150.625 50.227C150.625 50.2963 150.599 50.357 150.547 50.409C150.503 50.461 150.447 50.487 150.378 50.487H149.754C149.684 50.487 149.624 50.461 149.572 50.409C149.528 50.357 149.507 50.2963 149.507 50.227V49.018C149.507 48.9487 149.528 48.8923 149.572 48.849C149.624 48.797 149.684 48.771 149.754 48.771H150.378C150.447 48.771 150.503 48.797 150.547 48.849C150.599 48.8923 150.625 48.9487 150.625 49.018V50.227ZM156.759 50.162C156.759 50.2487 156.742 50.3137 156.707 50.357C156.672 50.4003 156.603 50.4307 156.499 50.448C156.282 50.4913 156.031 50.526 155.745 50.552C155.468 50.578 155.177 50.591 154.874 50.591C154.432 50.591 154.038 50.5173 153.691 50.37C153.353 50.214 153.063 50.0017 152.82 49.733C152.586 49.4557 152.408 49.122 152.287 48.732C152.166 48.342 152.105 47.9087 152.105 47.432V46.418C152.105 45.9413 152.166 45.508 152.287 45.118C152.408 44.728 152.586 44.3987 152.82 44.13C153.054 43.8527 153.344 43.6403 153.691 43.493C154.038 43.337 154.432 43.259 154.874 43.259C155.177 43.259 155.468 43.272 155.745 43.298C156.031 43.324 156.282 43.3587 156.499 43.402C156.603 43.4193 156.672 43.4497 156.707 43.493C156.742 43.5277 156.759 43.5927 156.759 43.688V44.156C156.759 44.2253 156.737 44.2773 156.694 44.312C156.651 44.338 156.599 44.351 156.538 44.351H156.486C156.2 44.3163 155.94 44.2947 155.706 44.286C155.472 44.2687 155.195 44.26 154.874 44.26C154.354 44.26 153.951 44.4377 153.665 44.793C153.388 45.1397 153.249 45.6813 153.249 46.418V47.432C153.249 48.1687 153.388 48.7147 153.665 49.07C153.942 49.4167 154.345 49.59 154.874 49.59C155.195 49.59 155.472 49.5857 155.706 49.577C155.94 49.5597 156.2 49.5337 156.486 49.499H156.538C156.599 49.499 156.651 49.5163 156.694 49.551C156.737 49.577 156.759 49.6247 156.759 49.694V50.162ZM163.298 47.419C163.298 47.8957 163.238 48.329 163.116 48.719C162.995 49.109 162.813 49.4427 162.57 49.72C162.328 49.9973 162.024 50.214 161.66 50.37C161.296 50.5173 160.876 50.591 160.399 50.591C159.923 50.591 159.502 50.5173 159.138 50.37C158.783 50.214 158.484 49.9973 158.241 49.72C157.999 49.4427 157.817 49.109 157.695 48.719C157.574 48.329 157.513 47.8957 157.513 47.419V46.431C157.513 45.9543 157.574 45.521 157.695 45.131C157.817 44.741 157.999 44.4073 158.241 44.13C158.484 43.8527 158.783 43.6403 159.138 43.493C159.502 43.337 159.923 43.259 160.399 43.259C160.876 43.259 161.296 43.337 161.66 43.493C162.024 43.6403 162.328 43.8527 162.57 44.13C162.813 44.4073 162.995 44.741 163.116 45.131C163.238 45.521 163.298 45.9543 163.298 46.431V47.419ZM162.154 46.431C162.154 45.7637 162.016 45.235 161.738 44.845C161.461 44.455 161.015 44.26 160.399 44.26C159.793 44.26 159.351 44.455 159.073 44.845C158.796 45.2263 158.657 45.755 158.657 46.431V47.419C158.657 48.0863 158.792 48.615 159.06 49.005C159.338 49.395 159.784 49.59 160.399 49.59C161.006 49.59 161.448 49.3993 161.725 49.018C162.011 48.628 162.154 48.095 162.154 47.419V46.431ZM173.437 50.24C173.437 50.3093 173.411 50.37 173.359 50.422C173.307 50.474 173.247 50.5 173.177 50.5H172.553C172.484 50.5 172.423 50.474 172.371 50.422C172.319 50.37 172.293 50.3093 172.293 50.24V45.638C172.293 45.3693 172.263 45.144 172.202 44.962C172.142 44.78 172.059 44.637 171.955 44.533C171.851 44.429 171.726 44.3553 171.578 44.312C171.431 44.2687 171.275 44.247 171.11 44.247C170.876 44.247 170.625 44.2817 170.356 44.351C170.096 44.4203 169.841 44.5027 169.589 44.598C169.667 44.884 169.706 45.222 169.706 45.612V50.24C169.706 50.3093 169.685 50.37 169.641 50.422C169.598 50.474 169.542 50.5 169.472 50.5H168.783C168.714 50.5 168.658 50.474 168.614 50.422C168.58 50.37 168.562 50.3093 168.562 50.24V45.612C168.562 45.326 168.541 45.0963 168.497 44.923C168.463 44.741 168.402 44.6023 168.315 44.507C168.229 44.403 168.12 44.3337 167.99 44.299C167.869 44.2643 167.726 44.247 167.561 44.247C167.327 44.247 167.072 44.299 166.794 44.403C166.526 44.4983 166.253 44.6153 165.975 44.754V50.24C165.975 50.3093 165.954 50.37 165.91 50.422C165.867 50.474 165.811 50.5 165.741 50.5H165.052C164.983 50.5 164.927 50.474 164.883 50.422C164.849 50.37 164.831 50.3093 164.831 50.24V43.61C164.831 43.5407 164.853 43.48 164.896 43.428C164.948 43.376 165.009 43.35 165.078 43.35H165.728C165.798 43.35 165.854 43.376 165.897 43.428C165.949 43.48 165.975 43.5407 165.975 43.61V43.857C166.235 43.6923 166.526 43.5493 166.846 43.428C167.167 43.3067 167.509 43.246 167.873 43.246C168.151 43.246 168.393 43.2893 168.601 43.376C168.818 43.454 169.009 43.5883 169.173 43.779C169.537 43.6057 169.901 43.4757 170.265 43.389C170.638 43.2937 170.993 43.246 171.331 43.246C171.626 43.246 171.899 43.285 172.15 43.363C172.41 43.441 172.636 43.5753 172.826 43.766C173.017 43.948 173.164 44.195 173.268 44.507C173.381 44.8103 173.437 45.1873 173.437 45.638V50.24Z" fill="#0F4173"/>
<g clip-path="url(#clip0_467_2044)">
<path d="M220 39.0058C219.92 38.9981 219.839 38.9981 219.759 39.0058H203.311C203.206 39.0073 203.101 39.0222 203 39.05L211.488 47L220 39.0058Z" fill="#0F4173"/>
<path d="M220.929 40L212.284 48.337C212.061 48.5512 211.76 48.6714 211.447 48.6714C211.133 48.6714 210.832 48.5512 210.609 48.337L202.042 40.0632C202.015 40.157 202.001 40.2536 202 40.3507V51.8501C202 52.155 202.125 52.4475 202.348 52.6632C202.571 52.8788 202.873 53 203.188 53H219.812C220.127 53 220.429 52.8788 220.652 52.6632C220.875 52.4475 221 52.155 221 51.8501V40.3507C220.995 40.2309 220.971 40.1126 220.929 40ZM204.001 51.8501H203.176V51.0279L207.492 46.8824L208.329 47.6931L204.001 51.8501ZM219.801 51.8501H218.969L214.641 47.6931L215.478 46.8824L219.795 51.0279L219.801 51.8501Z" fill="#0F4173"/>
</g>
<defs>
<clipPath id="clip0_467_2044">
<rect width="25" height="25" fill="white" transform="translate(199 34)"/>
</clipPath>
</defs>
</svg>
