<svg width="293" height="53" viewBox="0 0 293 53" fill="none" xmlns="http://www.w3.org/2000/svg">
<path d="M2.35352 15.745C2.35352 15.5416 2.36122 15.2998 2.38048 15.0272C2.39589 14.7547 2.41901 14.4553 2.44597 14.1291C2.47294 13.8028 2.50761 13.4804 2.54998 13.1541C2.59236 12.8317 2.65014 12.5131 2.71563 12.2061C2.7503 12.0372 2.80038 11.9067 2.86973 11.8222C2.93907 11.7378 3.0662 11.6956 3.25496 11.6956H5.80135C6.10953 11.6956 6.26362 11.8491 6.26362 12.1562C6.22895 12.517 6.20199 12.8624 6.18658 13.1964C6.16732 13.5303 6.15961 13.8143 6.15961 14.0561C6.15961 14.9774 6.21354 15.8218 6.32526 16.5818C6.43698 17.3418 6.66427 17.9905 7.00712 18.5317C7.34998 19.069 7.83922 19.4874 8.47486 19.7868C9.11049 20.0862 9.958 20.2359 11.0212 20.2359C11.4681 20.2359 11.8379 20.2244 12.1384 20.1975C12.4389 20.1706 12.7586 20.1323 13.1015 20.0824C13.1169 19.687 13.1323 19.3339 13.14 19.0153C13.1477 18.6967 13.1554 18.3973 13.167 18.1171C13.1747 17.8331 13.1785 17.5529 13.1785 17.2688C13.1785 16.9848 13.1785 16.6739 13.1785 16.3323V14.3978C13.1785 12.3442 13.7834 10.8281 14.993 9.84931C16.2026 8.87437 17.9631 8.38306 20.2784 8.38306C21.0488 8.38306 21.7962 8.4176 22.5166 8.48669C23.237 8.55578 23.811 8.63255 24.2386 8.71699C24.3772 8.75154 24.489 8.80144 24.5737 8.87053C24.6585 8.93962 24.7008 9.05861 24.7008 9.23133V14.82C24.7008 15.1769 24.7779 15.4149 24.932 15.5262C25.0861 15.6375 25.3711 15.6913 25.7795 15.6913H26.9622V19.664H24.724C24.0883 19.664 23.5297 19.6218 23.0405 19.5373C22.5512 19.4529 22.1352 19.2801 21.7923 19.023C21.4495 18.7658 21.1875 18.405 21.0065 17.9329C20.8254 17.4646 20.7368 16.8428 20.7368 16.0751V12.0794C20.5326 12.0448 20.3631 12.0257 20.236 12.0141C20.1089 12.0065 19.9471 12.0026 19.7583 12.0026C18.8492 12.0026 18.1827 12.2099 17.7628 12.6168C17.3429 13.0275 17.131 13.7452 17.131 14.7701V18.7428C17.131 19.4605 17.1233 20.1898 17.1041 20.9345C17.0887 21.6791 17.0617 22.3892 17.027 23.0763C17.027 23.3833 16.8383 23.5714 16.4607 23.6405C15.6903 23.7787 14.8273 23.8785 13.8758 23.9476C12.9243 24.0167 11.9419 24.0512 10.9288 24.0512C8.01258 24.0512 5.85143 23.3795 4.44533 22.0399C3.05464 20.6965 2.35352 18.5969 2.35352 15.745ZM5.7243 26.2007C5.7243 26.028 5.78594 25.8975 5.90536 25.8053C6.02478 25.7094 6.17117 25.6633 6.34067 25.6633H8.52879C8.68288 25.6633 8.82157 25.7094 8.94099 25.8053C9.06041 25.8975 9.12205 26.0318 9.12205 26.2007V28.3809C9.12205 28.4999 9.05656 28.6112 8.92943 28.7148C8.8023 28.8185 8.66747 28.8684 8.53264 28.8684H6.34452C6.17117 28.8684 6.02863 28.8185 5.90921 28.7148C5.78979 28.6112 5.72815 28.4999 5.72815 28.3809V26.2007H5.7243ZM10.8941 26.2007C10.8941 26.028 10.9558 25.8975 11.0752 25.8053C11.1946 25.7094 11.3256 25.6633 11.4604 25.6633H13.7256C13.8643 25.6633 13.9914 25.7094 14.1108 25.8053C14.2302 25.8975 14.2919 26.0318 14.2919 26.2007V28.3809C14.2919 28.4999 14.2302 28.6112 14.1108 28.7148C13.9914 28.8185 13.8604 28.8684 13.7256 28.8684H11.4604C11.3217 28.8684 11.1946 28.8185 11.0752 28.7148C10.9558 28.6112 10.8941 28.4999 10.8941 28.3809V26.2007Z" fill="#0F4173"/>
<path d="M25.9453 15.9753C25.9453 15.8908 26.0455 15.8217 26.2419 15.7718C26.4384 15.7219 26.6156 15.6951 26.7697 15.6951H29.9864L28.3915 11.5496C28.3222 11.4652 28.2798 11.3309 28.2644 11.1543C28.249 10.9739 28.249 10.828 28.2644 10.7052L28.3415 9.0432C28.3569 8.90502 28.4147 8.7822 28.5071 8.67088C28.5996 8.55957 28.7267 8.44442 28.8808 8.32543C29.2044 8.08745 29.6012 7.86099 30.0634 7.64604C30.5257 7.43493 31.015 7.25069 31.5312 7.09716C32.0474 6.94362 32.5752 6.82463 33.1145 6.74019C33.6538 6.65575 34.1739 6.61353 34.6708 6.61353C35.5453 6.61353 36.3774 6.69797 37.1671 6.8707C37.9569 7.03958 38.6464 7.3313 39.2397 7.73816C39.8329 8.14887 40.2991 8.6824 40.6419 9.34643C40.9848 10.0105 41.1581 10.8396 41.1581 11.826V12.4401C41.1581 13.0197 41.0541 13.6224 40.85 14.2557C40.6458 14.8852 40.3684 15.365 40.0256 15.6874H42.83V19.6601H26.7697C26.6156 19.6601 26.4384 19.6332 26.2419 19.5833C26.0455 19.5334 25.9453 19.4643 25.9453 19.3799V15.9753ZM35.1832 15.7949C35.5453 15.7949 35.8573 15.7066 36.1231 15.5262C36.389 15.3458 36.6085 15.1078 36.778 14.8084C36.9475 14.509 37.0785 14.1751 37.1633 13.8066C37.248 13.4381 37.2904 13.0658 37.2904 12.6935V12.49C37.2904 11.6533 37.0593 11.043 36.597 10.6553C36.1347 10.2715 35.4914 10.0796 34.667 10.0796C34.3241 10.0796 33.9042 10.1141 33.4073 10.1832C32.9103 10.2523 32.4557 10.4058 32.0435 10.6438L34.0236 15.7949H35.1832Z" fill="#0F4173"/>
<path d="M41.7939 15.9753C41.7939 15.8908 41.8941 15.8217 42.0906 15.7718C42.287 15.7219 42.4642 15.6951 42.6183 15.6951H43.3888C43.6122 15.6951 43.8549 15.6644 44.1207 15.6068C44.3866 15.5454 44.5522 15.3803 44.6216 15.104C44.6562 15.0195 44.6716 14.9351 44.6716 14.8583C44.6716 14.7815 44.6716 14.7009 44.6716 14.6126V12.7088C44.6716 11.7339 44.8219 10.8818 45.1224 10.1525C45.4228 9.42319 45.8389 8.81673 46.3705 8.32542C46.9021 7.83795 47.5416 7.46947 48.289 7.21998C49.0363 6.97048 49.853 6.84766 50.7467 6.84766C51.6366 6.84766 52.4495 6.96665 53.1776 7.20846C53.9056 7.45028 54.5297 7.80724 55.0421 8.28704C55.5583 8.76683 55.9551 9.36562 56.2402 10.0834C56.5214 10.8012 56.6639 11.6494 56.6639 12.6244V14.1904C56.6639 15.1999 56.5214 16.0635 56.2402 16.7852C55.9589 17.5068 55.5583 18.1056 55.0421 18.5815C54.5259 19.0613 53.9018 19.4106 53.166 19.6332C52.4264 19.8558 51.6058 19.9672 50.6967 19.9672C50.2845 19.9672 49.8646 19.9441 49.437 19.9019C49.0093 19.8597 48.5971 19.7868 48.2042 19.6831C47.8113 19.5795 47.4453 19.4528 47.1102 19.2993C46.775 19.1457 46.5053 18.9653 46.3012 18.7619C45.9236 19.1035 45.4691 19.3377 44.9374 19.4682C44.4058 19.5948 43.7779 19.6601 43.0575 19.6601H42.6222C42.4681 19.6601 42.2909 19.6332 42.0944 19.5833C41.898 19.5334 41.7978 19.4643 41.7978 19.3799V15.9753H41.7939ZM48.5355 13.9217C48.5355 14.2634 48.5625 14.5896 48.6126 14.8967C48.732 15.4417 48.9747 15.8179 49.3329 16.0252C49.6951 16.2286 50.1458 16.3322 50.6967 16.3322C51.4016 16.3322 51.9256 16.1518 52.28 15.7949C52.6305 15.4341 52.8077 14.7854 52.8077 13.845V12.8432C52.8077 11.922 52.6344 11.2656 52.2915 10.8818C51.9487 10.4979 51.4171 10.306 50.6967 10.306C49.9763 10.306 49.437 10.4979 49.0748 10.8818C48.7127 11.2656 48.5355 11.922 48.5355 12.8432V13.9217Z" fill="#0F4173"/>
<path d="M59.8799 0.541276C59.8799 0.387742 59.93 0.261076 60.034 0.15744C60.138 0.0538049 60.2651 0.00390625 60.4192 0.00390625H63.3508C63.5203 0.00390625 63.6552 0.0538049 63.7476 0.15744C63.8401 0.261076 63.8902 0.387742 63.8902 0.541276V14.5359C63.8902 15.0311 63.9942 15.3458 64.1983 15.484C64.4025 15.6222 64.73 15.6874 65.1768 15.6874H66.1284V19.6601H63.9942C63.3778 19.6601 62.8154 19.6141 62.3107 19.5181C61.806 19.4221 61.3707 19.2417 61.0125 18.9654C60.6503 18.6929 60.373 18.3052 60.1765 17.7985C59.98 17.2957 59.8799 16.6317 59.8799 15.8103V0.541276Z" fill="#0F4173"/>
<path d="M65.925 19.6639C65.7555 19.6639 65.5745 19.6332 65.3857 19.5756C65.1969 19.5142 65.1045 19.4528 65.1045 19.3837V15.9752C65.1045 15.8908 65.2047 15.8217 65.4011 15.7718C65.5976 15.7219 65.7748 15.695 65.9289 15.695H76.2724L75.7061 14.5166L75.2669 13.6185C75.0281 13.1387 74.7353 12.7011 74.3924 12.2981C74.0496 11.895 73.6335 11.5457 73.1443 11.2464C72.655 10.947 72.0888 10.7167 71.4454 10.5555C70.8021 10.3942 70.0701 10.3136 69.2457 10.3136C69.1957 10.3136 69.1225 10.3136 69.0262 10.3136C68.9298 10.3136 68.8258 10.3175 68.7064 10.3251C68.587 10.3328 68.4753 10.3367 68.3713 10.3367C68.2672 10.3367 68.1825 10.3367 68.1132 10.3367C67.7549 10.3367 67.5738 10.1908 67.5738 9.90293V7.46558C67.5738 7.20841 67.7549 7.04719 68.1132 6.9781C68.5947 6.89366 69.0185 6.83225 69.3883 6.7977C69.7581 6.76316 70.1896 6.7478 70.6865 6.7478C71.6804 6.7478 72.605 6.85528 73.4525 7.06639C74.3 7.28133 75.0859 7.63062 75.8062 8.1181C76.5266 8.60557 77.1969 9.24273 77.8133 10.0296C78.4297 10.8165 79.0037 11.7799 79.5353 12.9276L79.8936 13.6952C80.0322 13.9677 80.1748 14.271 80.3327 14.6049C80.4868 14.9389 80.6062 15.173 80.6948 15.3112C80.7989 15.4494 80.8913 15.5453 80.9761 15.6067C81.0608 15.6681 81.1918 15.695 81.3613 15.695H81.6425V19.6677H65.925V19.6639ZM70.9176 22.4083C70.9176 22.2394 70.9831 22.0974 71.1103 21.9861C71.2374 21.8748 71.3799 21.821 71.534 21.821H74.0804C74.2499 21.821 74.4001 21.8748 74.5311 21.9861C74.6583 22.0974 74.7237 22.2394 74.7237 22.4083V24.8687C74.7237 25.0069 74.6583 25.1297 74.5311 25.241C74.404 25.3523 74.2538 25.406 74.0804 25.406H71.534C71.3799 25.406 71.2374 25.3485 71.1103 25.241C70.9831 25.1297 70.9176 25.0069 70.9176 24.8687V22.4083Z" fill="#0F4173"/>
<path d="M80.6172 15.9753C80.6172 15.8909 80.7173 15.8218 80.9138 15.7719C81.1103 15.722 81.2875 15.6951 81.4416 15.6951H83.0095C83.3716 15.6951 83.6181 15.6606 83.7568 15.5915C83.8955 15.5224 83.961 15.2921 83.961 14.9006V0.541276C83.961 0.387742 84.0111 0.261076 84.1151 0.15744C84.2191 0.0538049 84.3462 0.00390625 84.5003 0.00390625H87.4589C87.5976 0.00390625 87.717 0.0538049 87.821 0.15744C87.925 0.261076 87.9751 0.387742 87.9751 0.541276V15.5109C87.9751 16.0252 87.9636 16.5511 87.9366 17.0884C87.9096 17.6258 87.8711 18.144 87.821 18.6391C87.7864 18.8118 87.7324 18.9539 87.6554 19.0767C87.5783 19.1957 87.4358 19.2916 87.2316 19.3569C87.0275 19.4068 86.7308 19.4567 86.3456 19.4989C85.9604 19.5411 85.5443 19.5757 85.0974 19.6025C84.6506 19.6294 84.1883 19.6448 83.7067 19.6524C83.2252 19.6601 82.7976 19.664 82.4201 19.664H81.4416C81.2875 19.664 81.1103 19.6371 80.9138 19.5872C80.7173 19.5373 80.6172 19.4682 80.6172 19.3838V15.9753Z" fill="#0F4173"/>
<path d="M91.6777 0.541276C91.6777 0.387742 91.724 0.261076 91.8203 0.15744C91.9166 0.0538049 92.0476 0.00390625 92.2209 0.00390625H95.1525C95.3066 0.00390625 95.4338 0.0538049 95.5378 0.15744C95.6418 0.261076 95.6919 0.387742 95.6919 0.541276V19.1266C95.6919 19.2648 95.6418 19.3876 95.5378 19.4989C95.4338 19.6102 95.3066 19.664 95.1525 19.664H92.2209C92.0476 19.664 91.9166 19.6102 91.8203 19.4989C91.7278 19.3876 91.6777 19.2648 91.6777 19.1266V0.541276Z" fill="#0F4173"/>
<path d="M105.854 19.1265C105.561 19.1265 105.415 18.9883 105.415 18.7158V16.3322C105.415 16.0405 105.561 15.8985 105.854 15.8985H106.883C106.505 15.3841 106.316 14.6011 106.316 13.5417C106.316 12.6359 106.455 11.8835 106.729 11.2848C107.002 10.686 107.376 10.21 107.85 9.84921C108.32 9.4884 108.874 9.23891 109.51 9.09305C110.146 8.9472 110.812 8.87427 111.517 8.87427C111.964 8.87427 112.357 8.8973 112.7 8.93952C113.043 8.98174 113.42 9.04699 113.832 9.13144C114.141 9.18134 114.295 9.32719 114.295 9.56517V11.565C114.295 11.8567 114.156 11.991 113.882 11.9757C113.49 11.9603 113.17 11.945 112.931 11.9373C112.692 11.9296 112.457 11.9258 112.238 11.9258C111.328 11.9258 110.677 12.0639 110.281 12.3365C109.888 12.609 109.687 13.1233 109.687 13.8756C109.687 14.4207 109.791 14.8698 109.995 15.2229C110.2 15.5722 110.423 15.8102 110.666 15.9292L114.472 15.9023C114.765 15.9023 114.911 16.0482 114.911 16.336V18.7196C114.911 18.9922 114.765 19.1304 114.472 19.1304H105.854V19.1265Z" fill="#0F4173"/>
<path d="M118.204 0.541276C118.204 0.387742 118.254 0.261076 118.358 0.15744C118.462 0.0538049 118.589 0.00390625 118.743 0.00390625H121.675C121.845 0.00390625 121.979 0.0538049 122.076 0.15744C122.168 0.261076 122.218 0.387742 122.218 0.541276V14.5359C122.218 15.0311 122.322 15.3458 122.526 15.484C122.731 15.6222 123.058 15.6874 123.505 15.6874H124.456V19.6601H122.322C121.706 19.6601 121.143 19.6141 120.639 19.5181C120.134 19.4221 119.699 19.2417 119.341 18.9654C118.978 18.6929 118.701 18.3052 118.505 17.7985C118.308 17.2957 118.208 16.6317 118.208 15.8103V0.541276H118.204Z" fill="#0F4173"/>
<path d="M123.425 15.9751C123.425 15.8907 123.525 15.8216 123.721 15.7717C123.918 15.7218 124.095 15.6949 124.249 15.6949H126.796C126.537 15.407 126.333 15.0309 126.179 14.5703C126.025 14.1097 125.948 13.557 125.948 12.9083V12.4976C125.948 11.5111 126.118 10.6437 126.464 9.90285C126.807 9.16205 127.293 8.54407 127.917 8.04892C128.541 7.55377 129.292 7.18913 130.166 6.95115C131.041 6.71317 132 6.59419 133.048 6.59419C133.41 6.59419 133.799 6.6057 134.219 6.63257C134.639 6.65944 135.047 6.68631 135.44 6.72085C135.833 6.7554 136.203 6.80146 136.546 6.86287C136.889 6.92045 137.162 6.97802 137.37 7.02792C137.559 7.07782 137.682 7.14691 137.744 7.23135C137.806 7.3158 137.832 7.42711 137.832 7.56145V15.6911H140.098V19.6638H124.249C124.095 19.6638 123.918 19.6369 123.721 19.587C123.525 19.5371 123.425 19.468 123.425 19.3836V15.9751ZM127.828 1.31261C127.828 1.14372 127.89 1.0017 128.009 0.890391C128.128 0.779079 128.275 0.725342 128.444 0.725342H130.683C130.852 0.725342 131.006 0.782917 131.133 0.890391C131.26 1.0017 131.326 1.14372 131.326 1.31261V3.74613C131.326 3.89966 131.257 4.034 131.122 4.14148C130.983 4.25279 130.841 4.30653 130.683 4.30653H128.444C128.275 4.30653 128.128 4.25279 128.009 4.14148C127.89 4.03016 127.828 3.89582 127.828 3.74613V1.31261ZM133.872 15.8216V10.1293C133.479 10.0794 133.059 10.0525 132.613 10.0525C130.814 10.0525 129.912 10.9315 129.912 12.6933V13.0772C129.912 13.9677 130.101 14.6471 130.478 15.1153C130.856 15.5836 131.465 15.8216 132.304 15.8216H133.872ZM133.048 1.31261C133.048 1.14372 133.117 1.0017 133.252 0.890391C133.391 0.779079 133.533 0.725342 133.687 0.725342H135.926C136.095 0.725342 136.241 0.782917 136.361 0.890391C136.48 1.0017 136.542 1.14372 136.542 1.31261V3.74613C136.542 3.89966 136.48 4.034 136.361 4.14148C136.241 4.25279 136.095 4.30653 135.926 4.30653H133.687C133.533 4.30653 133.387 4.25279 133.252 4.14148C133.113 4.03016 133.048 3.89582 133.048 3.74613V1.31261Z" fill="#0F4173"/>
<path d="M139.068 15.9752C139.068 15.8908 139.169 15.8217 139.365 15.7718C139.561 15.7219 139.739 15.695 139.893 15.695H141.384C141.761 15.695 142.015 15.6605 142.143 15.5914C142.27 15.5223 142.335 15.292 142.335 14.9005C142.335 14.0791 142.335 13.1233 142.335 12.0294C142.335 10.9355 142.32 9.79932 142.285 8.62095C142.285 8.48277 142.331 8.36761 142.428 8.27549C142.52 8.18337 142.647 8.13347 142.801 8.13347H145.633C145.821 8.13347 145.964 8.17953 146.056 8.27549C146.149 8.37145 146.207 8.4866 146.222 8.62095C146.238 9.15064 146.253 9.63427 146.261 10.068C146.268 10.5056 146.276 10.9124 146.288 11.3001C146.295 11.684 146.299 12.0678 146.299 12.4555C146.299 12.8431 146.299 13.2462 146.299 13.6722C146.299 14.9389 146.291 15.956 146.272 16.7352C146.257 17.5144 146.222 18.1477 146.168 18.6429C146.134 18.8156 146.08 18.9576 146.003 19.0805C145.925 19.1994 145.783 19.2954 145.579 19.3607C145.375 19.4106 145.086 19.4605 144.716 19.5027C144.346 19.5449 143.945 19.5794 143.506 19.6063C143.071 19.6332 142.62 19.6485 142.154 19.6562C141.692 19.6639 141.272 19.6677 140.894 19.6677H139.893C139.739 19.6677 139.561 19.6409 139.365 19.591C139.169 19.5411 139.068 19.472 139.068 19.3875V15.9752ZM139.893 2.6715C139.893 2.50261 139.954 2.36059 140.074 2.24928C140.193 2.13797 140.34 2.08423 140.509 2.08423H142.747C142.917 2.08423 143.071 2.13797 143.198 2.24928C143.325 2.36059 143.391 2.50261 143.391 2.6715V5.10501C143.391 5.25855 143.321 5.39289 143.186 5.50036C143.048 5.61168 142.905 5.66541 142.747 5.66541H140.509C140.34 5.66541 140.193 5.61168 140.074 5.50036C139.954 5.38905 139.893 5.25855 139.893 5.10501V2.6715ZM145.113 2.6715C145.113 2.50261 145.182 2.36059 145.317 2.24928C145.456 2.13797 145.598 2.08423 145.752 2.08423H147.99C148.16 2.08423 148.306 2.13797 148.426 2.24928C148.545 2.36059 148.607 2.50261 148.607 2.6715V5.10501C148.607 5.25855 148.545 5.39289 148.426 5.50036C148.306 5.61168 148.16 5.66541 147.99 5.66541H145.752C145.598 5.66541 145.452 5.61168 145.317 5.50036C145.178 5.38905 145.113 5.25855 145.113 5.10501V2.6715Z" fill="#0F4173"/>
<path d="M147.07 22.8459C147.07 22.5542 147.224 22.4084 147.533 22.4084H148.049C148.476 22.4084 148.85 22.393 149.17 22.3585C149.486 22.3239 149.744 22.2356 149.94 22.0898C150.137 21.9439 150.283 21.7328 150.376 21.4488C150.468 21.1686 150.518 20.7809 150.518 20.2858V8.71696C150.518 8.57878 150.568 8.46363 150.672 8.37151C150.776 8.27939 150.903 8.22949 151.057 8.22949H153.966C154.105 8.22949 154.224 8.27555 154.328 8.37151C154.432 8.46747 154.482 8.58262 154.482 8.71696V19.7906C154.482 20.493 154.444 21.1609 154.367 21.8019C154.29 22.4429 154.112 23.0455 153.839 23.6098C153.411 24.4312 152.822 25.0108 152.078 25.3524C151.331 25.694 150.403 25.8667 149.285 25.8667C149.201 25.8667 149.081 25.8667 148.923 25.8667C148.769 25.8667 148.604 25.8629 148.422 25.8552C148.241 25.8475 148.06 25.8322 147.883 25.8168C147.702 25.7976 147.552 25.7823 147.432 25.7631C147.194 25.7132 147.07 25.5405 147.07 25.2449V22.8459Z" fill="#0F4173"/>
<path d="M157.464 16.1787C157.464 15.8525 157.626 15.6913 157.953 15.6913H167.549C167.911 15.6913 168.158 15.6567 168.297 15.5876C168.435 15.5185 168.501 15.2882 168.501 14.8967V0.541276C168.501 0.387742 168.551 0.261076 168.655 0.15744C168.759 0.0538049 168.886 0.00390625 169.04 0.00390625H171.999C172.153 0.00390625 172.276 0.0538049 172.372 0.15744C172.465 0.261076 172.515 0.387742 172.515 0.541276V15.5109C172.515 16.1595 172.503 16.7199 172.476 17.1882C172.449 17.6603 172.419 18.1401 172.388 18.6353C172.353 18.808 172.303 18.95 172.234 19.0729C172.164 19.1918 172.029 19.2878 171.821 19.3531C171.598 19.4029 171.278 19.4528 170.858 19.4951C170.438 19.5373 169.984 19.5718 169.495 19.5987C169.005 19.6256 168.505 19.6409 167.988 19.6486C167.472 19.6563 167.018 19.6601 166.625 19.6601H157.953C157.814 19.6601 157.699 19.6179 157.606 19.5335C157.51 19.449 157.464 19.3377 157.464 19.1995V16.1787ZM159.806 26.3542C159.702 26.3542 159.613 26.3273 159.536 26.2774C159.459 26.2275 159.421 26.1508 159.421 26.0471V25.0991C159.421 25.0146 159.459 24.9532 159.536 24.9187C159.613 24.8841 159.702 24.8688 159.806 24.8688H160.322C160.184 24.6461 160.087 24.412 160.026 24.1625C159.964 23.913 159.937 23.6635 159.937 23.4064C159.937 21.9363 160.812 21.2031 162.56 21.2031C162.715 21.2031 162.926 21.2108 163.192 21.23C163.458 21.2454 163.712 21.2914 163.951 21.3567C164.121 21.3912 164.209 21.4757 164.209 21.6138V22.4851C164.209 22.654 164.098 22.7423 163.874 22.7423H162.923C162.51 22.7423 162.206 22.8114 162.01 22.9458C161.813 23.0839 161.713 23.3296 161.713 23.6904C161.713 23.9629 161.755 24.1971 161.84 24.3966C161.925 24.5924 162.044 24.7344 162.202 24.8189H164.078C164.336 24.8189 164.464 24.9033 164.464 25.076V26.051C164.464 26.2544 164.336 26.358 164.078 26.358H159.806V26.3542ZM160.241 2.10732C160.241 1.96914 160.291 1.85399 160.395 1.76187C160.499 1.66975 160.627 1.61985 160.781 1.61985H163.585C163.928 1.61985 164.101 1.78106 164.101 2.10732V13.488C164.101 13.6416 164.051 13.7682 163.947 13.8719C163.843 13.9755 163.716 14.0254 163.562 14.0254H160.758C160.619 14.0254 160.499 13.9755 160.395 13.8719C160.291 13.7682 160.241 13.6416 160.241 13.488V2.10732Z" fill="#0F4173"/>
<path d="M176.193 0.541276C176.193 0.387742 176.24 0.261076 176.336 0.15744C176.432 0.0538049 176.563 0.00390625 176.737 0.00390625H179.668C179.822 0.00390625 179.949 0.0538049 180.053 0.15744C180.157 0.261076 180.207 0.387742 180.207 0.541276V19.1266C180.207 19.2648 180.157 19.3876 180.053 19.4989C179.949 19.6102 179.822 19.664 179.668 19.664H176.737C176.563 19.664 176.432 19.6102 176.336 19.4989C176.243 19.3876 176.193 19.2648 176.193 19.1266V0.541276Z" fill="#0F4173"/>
<path d="M187.847 22.8459C187.847 22.5542 188.001 22.4083 188.309 22.4083H188.825C189.253 22.4083 189.626 22.393 189.946 22.3584C190.262 22.3239 190.52 22.2356 190.717 22.0897C190.913 21.9439 191.06 21.7328 191.152 21.4487C191.244 21.1685 191.295 20.7809 191.295 20.2857V8.71691C191.295 8.57872 191.345 8.46357 191.449 8.37145C191.553 8.27933 191.68 8.22943 191.834 8.22943H194.742C194.881 8.22943 195 8.27549 195.104 8.37145C195.208 8.46741 195.259 8.58256 195.259 8.71691V15.6912H197.497V19.6639H195.155V20.5851C195.155 21.1839 195.112 21.7404 195.027 22.2509C194.943 22.7653 194.804 23.2144 194.615 23.6097C194.188 24.4311 193.598 25.0107 192.855 25.3523C192.107 25.6939 191.179 25.8667 190.062 25.8667C189.977 25.8667 189.858 25.8667 189.7 25.8667C189.542 25.8667 189.38 25.8628 189.199 25.8552C189.018 25.8475 188.837 25.8321 188.66 25.8168C188.478 25.7976 188.328 25.7822 188.209 25.763C187.97 25.7131 187.847 25.5404 187.847 25.2449V22.8459ZM191.399 2.6715C191.399 2.50261 191.456 2.36059 191.58 2.24928C191.699 2.13797 191.845 2.08423 192.019 2.08423H194.642C194.796 2.08423 194.927 2.13797 195.043 2.24928C195.155 2.36059 195.208 2.50261 195.208 2.6715V5.10501C195.208 5.25855 195.151 5.39289 195.043 5.50036C194.931 5.61168 194.789 5.66541 194.619 5.66541H192.019C191.83 5.66541 191.68 5.61168 191.568 5.50036C191.456 5.38905 191.402 5.25855 191.402 5.10501V2.6715H191.399Z" fill="#0F4173"/>
<path d="M196.465 16.1787C196.465 16.0405 196.553 15.9253 196.735 15.8332C196.916 15.7411 197.1 15.6912 197.289 15.6912H206.885C206.955 15.6912 207.155 15.6912 207.49 15.6912C207.825 15.6912 208.184 15.6912 208.569 15.6912C208.954 15.6912 209.316 15.6874 209.651 15.6797C209.986 15.672 210.195 15.6682 210.283 15.6682C210.299 15.4609 210.314 15.2268 210.322 14.9619C210.329 14.6971 210.333 14.4706 210.333 14.2825C210.333 13.0197 209.929 12.1138 209.124 11.565C208.318 11.0199 207.143 10.7436 205.599 10.7436H199.863C199.435 10.7436 199.212 10.59 199.192 10.283C199.192 10.2484 199.188 10.1793 199.181 10.0795C199.173 9.97588 199.165 9.86457 199.154 9.74558C199.146 9.62659 199.142 9.51528 199.142 9.41165C199.142 9.30801 199.142 9.25043 199.142 9.23124C199.142 8.78599 199.181 8.36377 199.258 7.96075C199.335 7.55772 199.447 7.15853 199.593 6.7555C199.739 6.35248 199.913 5.94177 200.121 5.51188C200.325 5.08582 200.568 4.62522 200.841 4.12623L202.798 0.510501C202.883 0.37232 202.983 0.253331 203.095 0.153534C203.206 0.0498986 203.357 0 203.545 0H206.531C206.67 0 206.762 0.0307068 206.812 0.0882822C206.862 0.149696 206.889 0.218786 206.889 0.307068C206.889 0.391512 206.862 0.487471 206.812 0.587268L204.393 5.20097C204.324 5.31996 204.243 5.47349 204.15 5.66157C204.054 5.84965 203.965 6.04157 203.881 6.23733C203.796 6.43308 203.723 6.60965 203.661 6.76318C203.599 6.91672 203.572 7.02035 203.572 7.07025C204.223 7.0357 204.743 7.01267 205.129 6.99348C205.514 6.97429 205.861 6.96661 206.173 6.96661C207.733 6.96661 209.043 7.15085 210.094 7.51934C211.15 7.88782 211.994 8.41751 212.629 9.10842C213.265 9.79932 213.716 10.6476 213.981 11.6456C214.247 12.6435 214.378 13.7682 214.378 15.0156V15.7603C214.378 15.9292 214.374 16.1671 214.367 16.4665C214.359 16.7659 214.34 17.073 214.317 17.3877C214.29 17.7063 214.266 18.0134 214.239 18.309C214.213 18.6083 214.193 18.8502 214.174 19.0382C214.124 19.3453 213.916 19.5065 213.558 19.5257C213.265 19.5603 212.88 19.5794 212.398 19.591C211.917 19.5986 211.396 19.614 210.83 19.6293C210.264 19.6447 209.69 19.6562 209.108 19.6562C208.526 19.6562 207.983 19.6562 207.486 19.6562H197.297C197.108 19.6562 196.923 19.614 196.742 19.5295C196.561 19.4451 196.473 19.3338 196.473 19.1956V16.1787H196.465Z" fill="#0F4173"/>
<path d="M214.936 22.8459C214.936 22.5542 215.09 22.4084 215.398 22.4084H215.914C216.342 22.4084 216.715 22.393 217.035 22.3585C217.351 22.3239 217.609 22.2356 217.806 22.0898C218.002 21.9439 218.148 21.7328 218.241 21.4488C218.333 21.1686 218.383 20.7809 218.383 20.2858V8.71696C218.383 8.57878 218.433 8.46363 218.537 8.37151C218.641 8.27939 218.769 8.22949 218.923 8.22949H221.831C221.97 8.22949 222.089 8.27555 222.193 8.37151C222.297 8.46747 222.347 8.58262 222.347 8.71696V15.6913H224.586V19.6639H222.243V20.5852C222.243 21.1839 222.201 21.7405 222.116 22.251C222.032 22.7653 221.893 23.2144 221.704 23.6098C221.276 24.4312 220.687 25.0108 219.944 25.3524C219.196 25.694 218.268 25.8667 217.151 25.8667C217.066 25.8667 216.946 25.8667 216.789 25.8667C216.631 25.8667 216.469 25.8629 216.288 25.8552C216.107 25.8475 215.926 25.8322 215.748 25.8168C215.567 25.7976 215.417 25.7823 215.298 25.7631C215.059 25.7132 214.936 25.5405 214.936 25.2449V22.8459Z" fill="#0F4173"/>
<path d="M223.558 15.9753C223.558 15.8908 223.658 15.8217 223.854 15.7718C224.051 15.7219 224.228 15.6951 224.382 15.6951H225.152C225.376 15.6951 225.619 15.6644 225.884 15.6068C226.15 15.5454 226.316 15.3803 226.385 15.104C226.42 15.0195 226.435 14.9351 226.435 14.8583C226.435 14.7815 226.435 14.7009 226.435 14.6126V12.7088C226.435 11.7339 226.586 10.8818 226.886 10.1525C227.187 9.42319 227.603 8.81673 228.134 8.32542C228.666 7.83795 229.305 7.46947 230.053 7.21998C230.8 6.97048 231.617 6.84766 232.51 6.84766C233.4 6.84766 234.213 6.96665 234.941 7.20846C235.669 7.45028 236.293 7.80724 236.806 8.28704C237.322 8.76683 237.719 9.36562 238.004 10.0834C238.285 10.8012 238.428 11.6494 238.428 12.6244V14.1904C238.428 15.1999 238.285 16.0635 238.004 16.7852C237.723 17.5068 237.322 18.1056 236.806 18.5815C236.29 19.0613 235.665 19.4106 234.93 19.6332C234.19 19.8558 233.369 19.9672 232.46 19.9672C232.048 19.9672 231.628 19.9441 231.201 19.9019C230.773 19.8597 230.361 19.7868 229.968 19.6831C229.575 19.5795 229.209 19.4528 228.874 19.2993C228.539 19.1457 228.269 18.9653 228.065 18.7619C227.687 19.1035 227.233 19.3377 226.701 19.4682C226.169 19.5948 225.542 19.6601 224.821 19.6601H224.386C224.232 19.6601 224.055 19.6332 223.858 19.5833C223.662 19.5334 223.561 19.4643 223.561 19.3799V15.9753H223.558ZM230.295 13.9217C230.295 14.2634 230.322 14.5896 230.372 14.8967C230.492 15.4417 230.734 15.8179 231.093 16.0252C231.455 16.2286 231.906 16.3322 232.456 16.3322C233.161 16.3322 233.685 16.1518 234.04 15.7949C234.39 15.4341 234.568 14.7854 234.568 13.845V12.8432C234.568 11.922 234.394 11.2656 234.051 10.8818C233.708 10.4979 233.177 10.306 232.456 10.306C231.736 10.306 231.197 10.4979 230.835 10.8818C230.473 11.2656 230.295 11.922 230.295 12.8432V13.9217Z" fill="#0F4173"/>
<path d="M11.5223 48.7316C11.5223 48.9465 11.4106 49.0501 11.1833 49.0501H10.0006C9.90818 49.0501 9.83498 49.0194 9.78105 48.9619C9.72712 48.9005 9.68859 48.8314 9.66163 48.7508L8.35954 44.1601H3.16661L1.88379 48.7508C1.85682 48.8314 1.81059 48.9005 1.7451 48.9619C1.67961 49.0233 1.60642 49.0501 1.52552 49.0501H0.339004C0.111717 49.0501 0 48.9427 0 48.7316C0 48.6663 0.00770465 48.6203 0.0192616 48.5934L3.7252 35.5967C3.8061 35.2896 3.92167 35.0402 4.07576 34.8482C4.22985 34.6563 4.39935 34.5028 4.58812 34.3876C4.77688 34.2763 4.97335 34.1957 5.17752 34.1497C5.38555 34.1036 5.58202 34.0806 5.76693 34.0806C5.95569 34.0806 6.14831 34.0998 6.34863 34.142C6.54895 34.1804 6.74157 34.2571 6.93033 34.3723C7.11909 34.4874 7.2886 34.6371 7.44269 34.8329C7.59678 35.0248 7.71235 35.2743 7.79325 35.5814L11.4992 48.5972C11.5146 48.6203 11.5223 48.6663 11.5223 48.7316ZM6.15216 36.0151C6.08667 35.7771 5.95954 35.6543 5.77078 35.6543C5.57046 35.6543 5.43563 35.7733 5.37014 36.0151L3.54799 42.5825H7.97431L6.15216 36.0151Z" fill="#0F4173"/>
<path d="M16.1911 48.6509C16.1911 48.7584 16.1564 48.8505 16.0909 48.9311C16.0254 49.0118 15.9368 49.0501 15.829 49.0501H14.785C14.6771 49.0501 14.5924 49.0118 14.523 48.9311C14.4575 48.8505 14.4229 48.7584 14.4229 48.6509V34.4183C14.4229 34.3109 14.4575 34.2226 14.523 34.1496C14.5885 34.0767 14.6771 34.0383 14.785 34.0383H15.829C15.9368 34.0383 16.0216 34.0767 16.0909 34.1496C16.1564 34.2226 16.1911 34.3109 16.1911 34.4183V48.6509Z" fill="#0F4173"/>
<path d="M21.9003 35.9154C21.9003 36.0229 21.8618 36.115 21.7809 36.1956C21.7 36.2762 21.6075 36.3146 21.4996 36.3146H20.4788C20.3709 36.3146 20.2784 36.2762 20.1975 36.1956C20.1166 36.115 20.0781 36.0229 20.0781 35.9154V34.3186C20.0781 34.2111 20.1166 34.119 20.1975 34.0384C20.2784 33.9578 20.3709 33.9194 20.4788 33.9194H21.4996C21.6075 33.9194 21.7 33.9578 21.7809 34.0384C21.8618 34.119 21.9003 34.2111 21.9003 34.3186V35.9154ZM21.8618 48.651C21.8618 48.7585 21.8232 48.8506 21.7423 48.9312C21.6614 49.0118 21.569 49.0502 21.4611 49.0502H20.498C20.3902 49.0502 20.2977 49.0118 20.2168 48.9312C20.1359 48.8506 20.0974 48.7585 20.0974 48.651V38.4679C20.0974 38.3604 20.1359 38.2683 20.2168 38.1877C20.2977 38.1071 20.3902 38.0687 20.498 38.0687H21.4611C21.569 38.0687 21.6614 38.1071 21.7423 38.1877C21.8232 38.2683 21.8618 38.3604 21.8618 38.4679V48.651Z" fill="#0F4173"/>
<path d="M30.5371 39.109C30.5371 39.3354 30.3946 39.4467 30.1172 39.4467C29.6511 39.4467 29.2004 39.5082 28.7651 39.6348C28.3298 39.7615 27.8598 39.9764 27.3513 40.2835V48.6473C27.3513 48.7548 27.3128 48.8469 27.2319 48.9275C27.151 49.0081 27.0585 49.0465 26.9506 49.0465H25.9683C25.8604 49.0465 25.7718 49.0081 25.6986 48.9275C25.6254 48.8469 25.5869 48.7548 25.5869 48.6473V38.4641C25.5869 38.3567 25.6254 38.2645 25.6986 38.1839C25.7718 38.1033 25.8604 38.0649 25.9683 38.0649H26.9083C27.0161 38.0649 27.1047 38.1033 27.1779 38.1839C27.2511 38.2645 27.2896 38.3567 27.2896 38.4641V38.8825C27.7981 38.5371 28.2835 38.2914 28.742 38.1455C29.2042 37.9997 29.6588 37.9268 30.1134 37.9268C30.3946 37.9268 30.5333 38.0457 30.5333 38.2876V39.109H30.5371Z" fill="#0F4173"/>
<path d="M39.0505 48.7509C39.0505 48.939 38.9311 49.0503 38.6884 49.0887C38.4881 49.1155 38.2685 49.1386 38.0258 49.1577C37.787 49.1769 37.5712 49.1885 37.3863 49.1885C36.9202 49.1885 36.5157 49.1501 36.1729 49.0771C35.8338 49.0042 35.5526 48.866 35.333 48.6664C35.1135 48.4668 34.944 48.1943 34.8322 47.8489C34.7205 47.5034 34.6627 47.0582 34.6627 46.5131V39.5465L32.7173 39.3277C32.4631 39.3009 32.3359 39.1819 32.3359 38.9669V38.4295C32.3359 38.1916 32.4631 38.0687 32.7173 38.0687H34.6627V36.1112C34.6627 35.8847 34.7822 35.7504 35.0249 35.712L36.0688 35.5508H36.1305C36.2114 35.5508 36.2807 35.5815 36.3424 35.6391C36.404 35.7005 36.431 35.7811 36.431 35.8886V38.0649H38.596C38.7038 38.0649 38.7963 38.1033 38.8772 38.1839C38.9581 38.2645 38.9966 38.3566 38.9966 38.4641V39.1435C38.9966 39.251 38.9581 39.3431 38.8772 39.4237C38.7963 39.5043 38.7038 39.5427 38.596 39.5427H36.431V46.5093C36.431 47.0543 36.5119 47.3998 36.6698 47.5456C36.8316 47.6915 37.109 47.7644 37.5096 47.7644H38.6306C38.9119 47.7644 39.0505 47.8565 39.0505 48.0446V48.7509Z" fill="#0F4173"/>
<path d="M43.7011 35.9154C43.7011 36.0229 43.6625 36.115 43.5816 36.1956C43.5007 36.2762 43.4083 36.3146 43.3004 36.3146H42.2795C42.1717 36.3146 42.0792 36.2762 41.9983 36.1956C41.9174 36.115 41.8789 36.0229 41.8789 35.9154V34.3186C41.8789 34.2111 41.9174 34.119 41.9983 34.0384C42.0792 33.9578 42.1717 33.9194 42.2795 33.9194H43.3004C43.4083 33.9194 43.5007 33.9578 43.5816 34.0384C43.6625 34.119 43.7011 34.2111 43.7011 34.3186V35.9154ZM43.6625 48.651C43.6625 48.7585 43.624 48.8506 43.5431 48.9312C43.4622 49.0118 43.3698 49.0502 43.2619 49.0502H42.2988C42.1909 49.0502 42.0985 49.0118 42.0176 48.9312C41.9367 48.8506 41.8982 48.7585 41.8982 48.651V38.4679C41.8982 38.3604 41.9367 38.2683 42.0176 38.1877C42.0985 38.1071 42.1909 38.0687 42.2988 38.0687H43.2619C43.3698 38.0687 43.4622 38.1071 43.5431 38.1877C43.624 38.2683 43.6625 38.3604 43.6625 38.4679V48.651Z" fill="#0F4173"/>
<path d="M55.5044 52.5854C55.5044 52.6929 55.4697 52.7811 55.4043 52.8541C55.3388 52.927 55.2502 52.9654 55.1423 52.9654H54.1214C54.0136 52.9654 53.925 52.927 53.8518 52.8541C53.7786 52.7811 53.74 52.6929 53.74 52.5854V48.9735C53.351 49.0388 52.9465 49.0925 52.5189 49.1347C52.0912 49.1731 51.7176 49.1961 51.3978 49.1961C49.9417 49.1961 48.8514 48.7739 48.1234 47.9295C47.3953 47.085 47.0293 45.8759 47.0293 44.3061V42.8705C47.0293 42.1259 47.1179 41.4503 47.2913 40.8439C47.4646 40.2374 47.7304 39.7192 48.0925 39.2855C48.4547 38.8518 48.9054 38.5217 49.4563 38.2875C50.0033 38.0534 50.6505 37.9382 51.4017 37.9382C52.0026 37.9382 52.6344 37.9805 53.297 38.0687C53.9596 38.157 54.5567 38.2645 55.0922 38.3988C55.281 38.4372 55.3965 38.4871 55.4428 38.5485C55.489 38.6099 55.5121 38.7136 55.5121 38.8594V52.5854H55.5044ZM53.74 39.6079C53.4742 39.5542 53.1237 39.5081 52.6884 39.4697C52.253 39.4314 51.8254 39.4083 51.3978 39.4083C50.9047 39.4083 50.4887 39.4889 50.1574 39.6463C49.8222 39.8075 49.5564 40.034 49.3561 40.3334C49.1558 40.6328 49.0132 40.9974 48.9246 41.4235C48.836 41.8495 48.7937 42.3293 48.7937 42.8628V44.2984C48.7937 44.8319 48.836 45.3117 48.9246 45.7339C49.0132 46.16 49.1558 46.5208 49.3561 46.8125C49.5564 47.1042 49.8222 47.3268 50.1574 47.4804C50.4925 47.6339 50.9047 47.7107 51.3978 47.7107C51.5596 47.7107 51.7368 47.7068 51.9372 47.6992C52.1375 47.6915 52.3455 47.68 52.5574 47.6608C52.7693 47.6416 52.9811 47.6186 53.1892 47.5917C53.3972 47.5648 53.5782 47.538 53.74 47.5111V39.6079Z" fill="#0F4173"/>
<path d="M66.6643 48.6511C66.6643 48.7585 66.6258 48.8506 66.5449 48.9313C66.464 49.0119 66.3715 49.0502 66.2637 49.0502H65.343C65.2351 49.0502 65.1426 49.0119 65.0617 48.9313C64.9808 48.8506 64.9423 48.7585 64.9423 48.6511V48.2135C64.4608 48.4937 63.9677 48.7278 63.4592 48.9121C62.9507 49.1001 62.4152 49.1923 61.8566 49.1923C61.429 49.1923 61.0168 49.1424 60.6239 49.0426C60.2309 48.9428 59.8842 48.7662 59.5799 48.5129C59.2794 48.2595 59.0406 47.9256 58.8595 47.5149C58.6784 47.1042 58.5898 46.5822 58.5898 45.9565V45.7147C58.5898 45.1812 58.6746 44.7129 58.8402 44.306C59.0059 43.8992 59.2794 43.5614 59.6608 43.2889C60.0422 43.0163 60.5391 42.8129 61.1555 42.6786C61.7719 42.5442 62.5231 42.479 63.4207 42.479H64.9038V41.6806C64.9038 40.84 64.742 40.2566 64.4223 39.9226C64.1025 39.5887 63.5478 39.4236 62.7581 39.4236C62.1032 39.4236 61.5292 39.439 61.0361 39.4735C60.543 39.5081 60.0922 39.5426 59.6916 39.5849H59.5915C59.499 39.5849 59.4142 39.5657 59.341 39.5234C59.2679 39.4851 59.2293 39.3968 59.2293 39.2624V38.5639C59.2293 38.3527 59.368 38.2261 59.6492 38.1839C60.0653 38.1186 60.5122 38.0572 61.0014 38.0035C61.4868 37.9497 62.0723 37.9229 62.7542 37.9229C64.1449 37.9229 65.1426 38.2568 65.7513 38.9208C66.36 39.5849 66.6643 40.5061 66.6643 41.6768V48.6511ZM64.9 43.7418H63.4168C62.8158 43.7418 62.315 43.7802 61.9144 43.8531C61.5138 43.926 61.2017 44.0412 60.9744 44.1909C60.7471 44.3444 60.5853 44.544 60.4929 44.7897C60.4004 45.0353 60.3542 45.3386 60.3542 45.6994V45.9412C60.3542 46.6589 60.516 47.1426 60.8357 47.3882C61.1555 47.6339 61.6101 47.7567 62.1995 47.7567C62.6656 47.7567 63.1125 47.6915 63.5401 47.5571C63.9677 47.4228 64.4223 47.2232 64.9038 46.9583V43.7418H64.9Z" fill="#0F4173"/>
<path d="M86.2607 43.6611C86.2607 45.5649 85.81 46.9621 84.9086 47.8526C84.0071 48.7431 82.7474 49.1883 81.1333 49.1883C79.5038 49.1883 78.2402 48.7431 77.3465 47.8526C76.4527 46.9621 76.0059 45.5649 76.0059 43.6611V34.5987C76.0059 34.4913 76.0405 34.403 76.1176 34.3301C76.1908 34.2571 76.2794 34.2188 76.3872 34.2188H77.4697C77.5776 34.2188 77.6662 34.2571 77.7394 34.3301C77.8126 34.403 77.8511 34.4951 77.8511 34.5987V43.6611C77.8511 44.2983 77.9051 44.8702 78.0129 45.3692C78.1208 45.8682 78.3018 46.2827 78.5638 46.6166C78.8258 46.9506 79.1609 47.2039 79.577 47.3766C79.993 47.5494 80.5131 47.6376 81.141 47.6376C81.7574 47.6376 82.2736 47.5494 82.6935 47.3766C83.1134 47.2039 83.4563 46.9506 83.7144 46.6166C83.9763 46.2827 84.1574 45.872 84.2652 45.3807C84.3731 44.8894 84.427 44.3175 84.427 43.6649V34.5987C84.427 34.4913 84.4617 34.403 84.5388 34.3301C84.6119 34.2571 84.7005 34.2188 84.8084 34.2188H85.8909C85.9988 34.2188 86.0874 34.2571 86.1606 34.3301C86.2338 34.403 86.2723 34.4951 86.2723 34.5987V43.6611H86.2607Z" fill="#0F4173"/>
<path d="M98.3232 48.6509C98.3232 48.7584 98.2847 48.8505 98.2038 48.9311C98.1229 49.0118 98.0305 49.0501 97.9226 49.0501H96.9595C96.8517 49.0501 96.7592 49.0118 96.6783 48.9311C96.5974 48.8505 96.5589 48.7584 96.5589 48.6509V42.0835C96.5589 41.5769 96.5165 41.1546 96.4279 40.8169C96.3393 40.4791 96.2083 40.2066 96.0273 40.007C95.8462 39.8074 95.6151 39.6654 95.3338 39.5771C95.0526 39.4888 94.7252 39.4466 94.3515 39.4466C93.9239 39.4466 93.4847 39.5195 93.0302 39.6654C92.5756 39.8112 92.1133 39.9993 91.6472 40.2258V48.6509C91.6472 48.7584 91.6086 48.8505 91.5278 48.9311C91.4469 49.0118 91.3544 49.0501 91.2465 49.0501H90.2642C90.1563 49.0501 90.0677 49.0118 89.9945 48.9311C89.9213 48.8505 89.8828 48.7584 89.8828 48.6509V38.4678C89.8828 38.3603 89.9213 38.2682 89.9945 38.1876C90.0677 38.107 90.1563 38.0686 90.2642 38.0686H91.2658C91.3737 38.0686 91.4623 38.107 91.5355 38.1876C91.6087 38.2682 91.6472 38.3603 91.6472 38.4678V38.8478C92.2096 38.5407 92.7297 38.3104 93.2112 38.1607C93.6928 38.0072 94.2321 37.9304 94.833 37.9304C96.0465 37.9304 96.9326 38.2912 97.4873 39.009C98.042 39.7268 98.3194 40.7516 98.3194 42.0835V48.6509H98.3232Z" fill="#0F4173"/>
<path d="M103.832 35.9154C103.832 36.0229 103.793 36.115 103.712 36.1956C103.632 36.2762 103.539 36.3146 103.431 36.3146H102.41C102.303 36.3146 102.21 36.2762 102.129 36.1956C102.048 36.115 102.01 36.0229 102.01 35.9154V34.3186C102.01 34.2111 102.048 34.119 102.129 34.0384C102.21 33.9578 102.303 33.9194 102.41 33.9194H103.431C103.539 33.9194 103.632 33.9578 103.712 34.0384C103.793 34.119 103.832 34.2111 103.832 34.3186V35.9154ZM103.793 48.651C103.793 48.7585 103.755 48.8506 103.674 48.9312C103.593 49.0118 103.501 49.0502 103.393 49.0502H102.43C102.322 49.0502 102.229 49.0118 102.148 48.9312C102.068 48.8506 102.029 48.7585 102.029 48.651V38.4679C102.029 38.3604 102.068 38.2683 102.148 38.1877C102.229 38.1071 102.322 38.0687 102.43 38.0687H103.393C103.501 38.0687 103.593 38.1071 103.674 38.1877C103.755 38.2683 103.793 38.3604 103.793 38.4679V48.651Z" fill="#0F4173"/>
<path d="M115.997 38.4103C115.997 38.464 115.99 38.5101 115.978 38.5485L113.274 48.0522C113.139 48.5052 112.912 48.8084 112.592 48.9619C112.272 49.1155 111.898 49.1922 111.471 49.1922C111.043 49.1922 110.67 49.1155 110.35 48.9619C110.03 48.8084 109.803 48.5052 109.668 48.0522L106.964 38.5485C106.952 38.5101 106.944 38.4602 106.944 38.4103C106.944 38.1838 107.052 38.0725 107.264 38.0725H108.366C108.539 38.0725 108.666 38.1992 108.747 38.4525L111.051 47.1579C111.116 47.3959 111.178 47.5532 111.232 47.6262C111.286 47.6991 111.367 47.7375 111.475 47.7375C111.567 47.7375 111.644 47.6991 111.706 47.6262C111.767 47.5532 111.829 47.3959 111.898 47.1579L114.202 38.4525C114.283 38.1992 114.41 38.0725 114.583 38.0725H115.685C115.889 38.0725 115.997 38.1838 115.997 38.4103Z" fill="#0F4173"/>
<path d="M126.995 43.6803C126.995 43.972 126.868 44.1178 126.614 44.1178H119.903V44.398C119.903 45.5841 120.138 46.4209 120.604 46.9122C121.07 47.4035 121.768 47.653 122.688 47.653C123.278 47.653 123.902 47.6338 124.561 47.5916C125.223 47.5493 125.786 47.4994 126.256 47.4303H126.356C126.437 47.4303 126.51 47.4495 126.575 47.4918C126.641 47.5301 126.675 47.6069 126.675 47.7105V48.3899C126.675 48.5243 126.649 48.6279 126.595 48.7008C126.541 48.7738 126.433 48.8237 126.275 48.8505C125.701 48.958 125.131 49.0386 124.561 49.1C123.99 49.1614 123.37 49.1883 122.688 49.1883C122.114 49.1883 121.552 49.1115 121.005 48.958C120.458 48.8045 119.972 48.5473 119.553 48.1788C119.133 47.8142 118.79 47.3229 118.532 46.7126C118.27 46.0984 118.143 45.3269 118.143 44.398V42.6017C118.143 41.1662 118.524 40.0262 119.283 39.1894C120.046 38.3526 121.147 37.9304 122.588 37.9304C123.324 37.9304 123.963 38.0417 124.51 38.2605C125.057 38.4793 125.516 38.7941 125.882 39.1971C126.248 39.6039 126.525 40.0953 126.714 40.6748C126.903 41.2544 126.995 41.8954 126.995 42.6017V43.6803ZM125.212 42.6017C125.212 41.4694 124.996 40.6633 124.561 40.1874C124.125 39.7076 123.47 39.4696 122.588 39.4696C121.721 39.4696 121.055 39.7229 120.597 40.2296C120.134 40.7363 119.907 41.527 119.907 42.6055V42.7859H125.215V42.6017H125.212Z" fill="#0F4173"/>
<path d="M135.112 39.109C135.112 39.3354 134.97 39.4467 134.692 39.4467C134.226 39.4467 133.776 39.5082 133.34 39.6348C132.905 39.7615 132.435 39.9764 131.926 40.2835V48.6473C131.926 48.7548 131.888 48.8469 131.807 48.9275C131.726 49.0081 131.634 49.0465 131.526 49.0465H130.543C130.436 49.0465 130.347 49.0081 130.274 48.9275C130.201 48.8469 130.162 48.7548 130.162 48.6473V38.4641C130.162 38.3567 130.201 38.2645 130.274 38.1839C130.347 38.1033 130.436 38.0649 130.543 38.0649H131.483C131.591 38.0649 131.68 38.1033 131.753 38.1839C131.826 38.2645 131.865 38.3567 131.865 38.4641V38.8825C132.373 38.5371 132.859 38.2914 133.317 38.1455C133.779 37.9997 134.234 37.9268 134.689 37.9268C134.97 37.9268 135.108 38.0457 135.108 38.2876V39.109H135.112Z" fill="#0F4173"/>
<path d="M144.751 46.2981C144.751 46.8048 144.662 47.2385 144.481 47.607C144.3 47.9716 144.046 48.271 143.718 48.5052C143.391 48.7393 142.998 48.912 142.536 49.0233C142.074 49.1346 141.565 49.1922 141.003 49.1922C140.814 49.1922 140.59 49.1884 140.332 49.1807C140.07 49.173 139.797 49.1577 139.512 49.1308C139.223 49.1039 138.934 49.0732 138.641 49.0425C138.348 49.008 138.079 48.9581 137.84 48.8928C137.559 48.8276 137.42 48.6932 137.42 48.4936V47.7951C137.42 47.7029 137.455 47.63 137.52 47.5763C137.586 47.5225 137.674 47.4957 137.782 47.4957H137.863C138.106 47.5225 138.368 47.5494 138.657 47.5763C138.942 47.6031 139.234 47.6262 139.527 47.6454C139.82 47.6646 140.093 47.6837 140.348 47.6953C140.602 47.7068 140.822 47.7145 141.01 47.7145C141.665 47.7145 142.158 47.6147 142.493 47.4151C142.829 47.2155 142.994 46.8431 142.994 46.2981C142.994 45.991 142.886 45.7262 142.674 45.4997C142.463 45.2733 142.066 44.9892 141.492 44.6399L139.469 43.4424C138.853 43.07 138.36 42.6593 137.986 42.2141C137.613 41.7688 137.424 41.2238 137.424 40.5866C137.424 40.0685 137.516 39.6386 137.705 39.3008C137.894 38.963 138.144 38.6866 138.468 38.4832C138.787 38.2759 139.169 38.1339 139.608 38.0533C140.047 37.9727 140.529 37.9343 141.053 37.9343C141.615 37.9343 142.158 37.9574 142.686 38.0034C143.214 38.0495 143.711 38.1147 144.181 38.1953C144.435 38.2337 144.562 38.3681 144.562 38.5945V39.2547C144.562 39.4812 144.447 39.5925 144.223 39.5925H144.161C143.815 39.5656 143.349 39.5311 142.771 39.4927C142.189 39.4543 141.619 39.4313 141.057 39.4313C140.494 39.4313 140.043 39.4965 139.704 39.6309C139.365 39.7652 139.192 40.0838 139.192 40.5905C139.192 40.8975 139.304 41.1585 139.531 41.3773C139.758 41.5961 140.105 41.8418 140.575 42.1066L142.559 43.285C143.387 43.7763 143.961 44.2561 144.281 44.7244C144.589 45.185 144.751 45.7108 144.751 46.2981Z" fill="#0F4173"/>
<path d="M149.897 35.9154C149.897 36.0229 149.859 36.115 149.778 36.1956C149.697 36.2762 149.605 36.3146 149.497 36.3146H148.476C148.368 36.3146 148.276 36.2762 148.195 36.1956C148.114 36.115 148.075 36.0229 148.075 35.9154V34.3186C148.075 34.2111 148.114 34.119 148.195 34.0384C148.276 33.9578 148.368 33.9194 148.476 33.9194H149.497C149.605 33.9194 149.697 33.9578 149.778 34.0384C149.859 34.119 149.897 34.2111 149.897 34.3186V35.9154ZM149.859 48.651C149.859 48.7585 149.82 48.8506 149.739 48.9312C149.659 49.0118 149.566 49.0502 149.458 49.0502H148.495C148.387 49.0502 148.295 49.0118 148.214 48.9312C148.133 48.8506 148.094 48.7585 148.094 48.651V38.4679C148.094 38.3604 148.133 38.2683 148.214 38.1877C148.295 38.1071 148.387 38.0687 148.495 38.0687H149.458C149.566 38.0687 149.659 38.1071 149.739 38.1877C149.82 38.2683 149.859 38.3604 149.859 38.4679V48.651Z" fill="#0F4173"/>
<path d="M159.436 48.7509C159.436 48.939 159.317 49.0503 159.074 49.0887C158.874 49.1155 158.654 49.1386 158.412 49.1577C158.173 49.1769 157.957 49.1885 157.772 49.1885C157.306 49.1885 156.901 49.1501 156.559 49.0771C156.22 49.0042 155.938 48.866 155.719 48.6664C155.499 48.4668 155.33 48.1943 155.218 47.8489C155.106 47.5034 155.048 47.0582 155.048 46.5131V39.5465L153.103 39.3277C152.849 39.3009 152.722 39.1819 152.722 38.9669V38.4295C152.722 38.1916 152.849 38.0687 153.103 38.0687H155.048V36.1112C155.048 35.8847 155.168 35.7504 155.411 35.712L156.455 35.5508H156.516C156.597 35.5508 156.666 35.5815 156.728 35.6391C156.79 35.7005 156.817 35.7811 156.817 35.8886V38.0649H158.982C159.09 38.0649 159.182 38.1033 159.263 38.1839C159.344 38.2645 159.382 38.3566 159.382 38.4641V39.1435C159.382 39.251 159.344 39.3431 159.263 39.4237C159.182 39.5043 159.09 39.5427 158.982 39.5427H156.817V46.5093C156.817 47.0543 156.898 47.3998 157.056 47.5456C157.217 47.6915 157.495 47.7644 157.895 47.7644H159.016C159.298 47.7644 159.436 47.8565 159.436 48.0446V48.7509Z" fill="#0F4173"/>
<path d="M170.619 38.4103C170.619 38.4756 170.611 38.5255 170.6 38.5485L167.295 50.0482C167.133 50.5932 166.963 51.0538 166.782 51.4262C166.601 51.7985 166.37 52.1017 166.093 52.3359C165.811 52.57 165.476 52.7389 165.08 52.8464C164.687 52.9538 164.201 53.0076 163.627 53.0076C163.346 53.0076 163.049 52.9922 162.733 52.9577C162.421 52.9231 162.156 52.8809 161.944 52.8272C161.824 52.8003 161.724 52.7658 161.643 52.7274C161.562 52.689 161.524 52.6161 161.524 52.5086V51.7716C161.524 51.5567 161.651 51.453 161.905 51.453H161.967C162.194 51.4799 162.491 51.5068 162.861 51.5336C163.227 51.5605 163.523 51.572 163.75 51.572C164.032 51.572 164.278 51.549 164.49 51.5029C164.702 51.4569 164.887 51.3686 165.041 51.2419C165.195 51.1153 165.33 50.9425 165.442 50.7237C165.553 50.505 165.654 50.2209 165.731 49.8755L165.931 49.0579H165.65C165.503 49.0579 165.361 49.0464 165.218 49.0195C165.076 48.9926 164.945 48.9312 164.818 48.8391C164.69 48.747 164.575 48.605 164.467 48.4207C164.359 48.2327 164.259 47.987 164.167 47.6838L161.501 38.56C161.489 38.5331 161.481 38.4871 161.481 38.4218C161.481 38.1954 161.601 38.084 161.844 38.084H162.945C163.026 38.084 163.096 38.1186 163.157 38.1838C163.219 38.2491 163.261 38.322 163.288 38.4026L165.654 47.0658C165.707 47.2654 165.765 47.3882 165.835 47.4343C165.9 47.4803 165.969 47.5034 166.035 47.5034H166.355L168.801 38.3796C168.828 38.299 168.874 38.2299 168.94 38.1685C169.005 38.1071 169.086 38.0802 169.178 38.0802H170.299C170.511 38.0725 170.619 38.1838 170.619 38.4103Z" fill="#0F4173"/>
<path d="M188.09 48.5321C188.09 48.6511 188.051 48.7432 187.97 48.8008C187.889 48.8622 187.797 48.9044 187.689 48.9313C187.477 48.9697 187.261 49.008 187.049 49.0426C186.838 49.0771 186.603 49.104 186.348 49.1232C186.094 49.1424 185.809 49.1616 185.485 49.1731C185.166 49.1846 184.792 49.1923 184.364 49.1923C183.748 49.1923 183.128 49.1002 182.5 48.9121C181.872 48.724 181.306 48.3977 180.797 47.9218C180.289 47.4497 179.876 46.8163 179.557 46.0256C179.237 45.2349 179.075 44.2331 179.075 43.0202V40.2451C179.075 39.0206 179.237 38.0111 179.557 37.2204C179.876 36.4297 180.293 35.8003 180.797 35.332C181.306 34.8675 181.872 34.5413 182.5 34.3532C183.128 34.1651 183.748 34.073 184.364 34.073C185.004 34.073 185.616 34.1114 186.198 34.1843C186.78 34.2572 187.292 34.3263 187.731 34.3954C187.943 34.4223 188.051 34.5106 188.051 34.6564V35.6736C188.051 35.7388 188.04 35.7926 188.013 35.8348C187.986 35.8732 187.92 35.8962 187.812 35.8962H187.751L187.088 35.8348C186.822 35.8233 186.537 35.8041 186.237 35.7849C185.936 35.7657 185.624 35.7465 185.304 35.735C184.985 35.7235 184.676 35.7158 184.384 35.7158C183.891 35.7158 183.432 35.7926 183.012 35.9461C182.592 36.0996 182.223 36.353 181.91 36.7061C181.595 37.0592 181.348 37.5237 181.171 38.1033C180.99 38.6829 180.901 39.3968 180.901 40.2489V43.024C180.901 43.8608 180.99 44.5709 181.171 45.1505C181.352 45.7301 181.598 46.1945 181.91 46.5476C182.223 46.9008 182.592 47.1579 183.012 47.3153C183.432 47.4765 183.891 47.5533 184.384 47.5533C184.665 47.5533 184.965 47.5456 185.285 47.5341L186.206 47.4957C186.499 47.4842 186.772 47.465 187.026 47.4458C187.281 47.4266 187.5 47.4074 187.689 47.3959H187.77C187.982 47.3959 188.09 47.5034 188.09 47.7145V48.5321Z" fill="#0F4173"/>
<path d="M199.411 43.6803C199.411 43.972 199.284 44.1178 199.03 44.1178H192.319V44.398C192.319 45.5841 192.554 46.4209 193.02 46.9122C193.486 47.4035 194.184 47.653 195.104 47.653C195.694 47.653 196.318 47.6338 196.977 47.5916C197.639 47.5493 198.202 47.4994 198.672 47.4303H198.772C198.853 47.4303 198.926 47.4495 198.991 47.4918C199.057 47.5301 199.091 47.6069 199.091 47.7105V48.3899C199.091 48.5243 199.065 48.6279 199.011 48.7008C198.957 48.7738 198.849 48.8237 198.691 48.8505C198.117 48.958 197.547 49.0386 196.977 49.1C196.41 49.1614 195.786 49.1883 195.104 49.1883C194.53 49.1883 193.968 49.1115 193.421 48.958C192.874 48.8045 192.388 48.5473 191.969 48.1788C191.549 47.8142 191.206 47.3229 190.948 46.7126C190.686 46.0984 190.559 45.3269 190.559 44.398V42.6017C190.559 41.1662 190.94 40.0262 191.699 39.1894C192.462 38.3526 193.563 37.9304 195.004 37.9304C195.74 37.9304 196.379 38.0417 196.926 38.2605C197.474 38.4793 197.932 38.7941 198.298 39.1971C198.664 39.6039 198.941 40.0953 199.13 40.6748C199.315 41.2544 199.411 41.8954 199.411 42.6017V43.6803ZM197.628 42.6017C197.628 41.4694 197.412 40.6633 196.977 40.1874C196.541 39.7076 195.886 39.4696 195.004 39.4696C194.137 39.4696 193.471 39.7229 193.013 40.2296C192.55 40.7363 192.323 41.527 192.323 42.6055V42.7859H197.631V42.6017H197.628Z" fill="#0F4173"/>
<path d="M211.015 48.6509C211.015 48.7584 210.976 48.8505 210.895 48.9311C210.814 49.0118 210.722 49.0501 210.614 49.0501H209.651C209.543 49.0501 209.451 49.0118 209.37 48.9311C209.289 48.8505 209.25 48.7584 209.25 48.6509V42.0835C209.25 41.5769 209.208 41.1546 209.119 40.8169C209.031 40.4791 208.9 40.2066 208.719 40.007C208.538 39.8074 208.306 39.6654 208.025 39.5771C207.744 39.4888 207.417 39.4466 207.043 39.4466C206.615 39.4466 206.176 39.5195 205.722 39.6654C205.267 39.8112 204.805 39.9993 204.339 40.2258V48.6509C204.339 48.7584 204.3 48.8505 204.219 48.9311C204.138 49.0118 204.046 49.0501 203.938 49.0501H202.956C202.848 49.0501 202.759 49.0118 202.686 48.9311C202.613 48.8505 202.574 48.7584 202.574 48.6509V38.4678C202.574 38.3603 202.613 38.2682 202.686 38.1876C202.759 38.107 202.848 38.0686 202.956 38.0686H203.957C204.065 38.0686 204.154 38.107 204.227 38.1876C204.3 38.2682 204.339 38.3603 204.339 38.4678V38.8478C204.901 38.5407 205.421 38.3104 205.903 38.1607C206.384 38.0072 206.924 37.9304 207.524 37.9304C208.738 37.9304 209.624 38.2912 210.179 39.009C210.733 39.7268 211.011 40.7516 211.011 42.0835V48.6509H211.015Z" fill="#0F4173"/>
<path d="M219.948 48.7509C219.948 48.939 219.829 49.0503 219.586 49.0887C219.386 49.1155 219.166 49.1386 218.923 49.1577C218.684 49.1769 218.469 49.1885 218.284 49.1885C217.818 49.1885 217.413 49.1501 217.07 49.0771C216.731 49.0042 216.45 48.866 216.23 48.6664C216.011 48.4668 215.841 48.1943 215.73 47.8489C215.618 47.5034 215.56 47.0582 215.56 46.5131V39.5465L213.615 39.3277C213.361 39.3009 213.233 39.1819 213.233 38.9669V38.4295C213.233 38.1916 213.361 38.0687 213.615 38.0687H215.56V36.1112C215.56 35.8847 215.68 35.7504 215.922 35.712L216.966 35.5508H217.028C217.109 35.5508 217.178 35.5815 217.24 35.6391C217.301 35.7005 217.328 35.7811 217.328 35.8886V38.0649H219.493C219.601 38.0649 219.694 38.1033 219.775 38.1839C219.856 38.2645 219.894 38.3566 219.894 38.4641V39.1435C219.894 39.251 219.856 39.3431 219.775 39.4237C219.694 39.5043 219.601 39.5427 219.493 39.5427H217.328V46.5093C217.328 47.0543 217.409 47.3998 217.567 47.5456C217.729 47.6915 218.006 47.7644 218.407 47.7644H219.528C219.809 47.7644 219.948 47.8565 219.948 48.0446V48.7509Z" fill="#0F4173"/>
<path d="M231.07 43.6803C231.07 43.972 230.943 44.1178 230.689 44.1178H223.978V44.398C223.978 45.5841 224.213 46.4209 224.679 46.9122C225.146 47.4035 225.843 47.653 226.764 47.653C227.353 47.653 227.977 47.6338 228.636 47.5916C229.298 47.5493 229.861 47.4994 230.331 47.4303H230.431C230.512 47.4303 230.585 47.4495 230.65 47.4918C230.716 47.5301 230.751 47.6069 230.751 47.7105V48.3899C230.751 48.5243 230.724 48.6279 230.67 48.7008C230.616 48.7738 230.508 48.8237 230.35 48.8505C229.776 48.958 229.206 49.0386 228.636 49.1C228.066 49.1614 227.445 49.1883 226.764 49.1883C226.19 49.1883 225.627 49.1115 225.08 48.958C224.533 48.8045 224.048 48.5473 223.628 48.1788C223.208 47.8142 222.865 47.3229 222.607 46.7126C222.345 46.0984 222.218 45.3269 222.218 44.398V42.6017C222.218 41.1662 222.599 40.0262 223.358 39.1894C224.121 38.3526 225.223 37.9304 226.663 37.9304C227.399 37.9304 228.039 38.0417 228.586 38.2605C229.133 38.4793 229.591 38.7941 229.957 39.1971C230.323 39.6039 230.6 40.0953 230.789 40.6748C230.978 41.2544 231.07 41.8954 231.07 42.6017V43.6803ZM229.287 42.6017C229.287 41.4694 229.071 40.6633 228.636 40.1874C228.2 39.7076 227.546 39.4696 226.663 39.4696C225.797 39.4696 225.13 39.7229 224.672 40.2296C224.209 40.7363 223.982 41.527 223.982 42.6055V42.7859H229.291V42.6017H229.287Z" fill="#0F4173"/>
<path d="M239.187 39.109C239.187 39.3354 239.044 39.4467 238.767 39.4467C238.301 39.4467 237.85 39.5082 237.414 39.6348C236.979 39.7615 236.509 39.9764 236.001 40.2835V48.6473C236.001 48.7548 235.962 48.8469 235.881 48.9275C235.8 49.0081 235.708 49.0465 235.6 49.0465H234.618C234.51 49.0465 234.421 49.0081 234.348 48.9275C234.275 48.8469 234.236 48.7548 234.236 48.6473V38.4641C234.236 38.3567 234.275 38.2645 234.348 38.1839C234.421 38.1033 234.51 38.0649 234.618 38.0649H235.558C235.666 38.0649 235.754 38.1033 235.827 38.1839C235.901 38.2645 235.939 38.3567 235.939 38.4641V38.8825C236.448 38.5371 236.933 38.2914 237.391 38.1455C237.854 37.9997 238.308 37.9268 238.763 37.9268C239.044 37.9268 239.183 38.0457 239.183 38.2876V39.109H239.187Z" fill="#0F4173"/>
<path d="M261.591 12.2278C261.225 12.1933 260.859 12.1933 260.493 12.2278C260.458 12.1933 260.366 12.1549 260.412 12.1127C260.555 11.9899 260.543 11.8325 260.558 11.6751C260.651 10.5735 260.736 9.4719 260.828 8.36646C261.055 8.47393 261.179 8.68504 261.329 8.86928C261.402 9.82887 261.471 10.7923 261.549 11.7519C261.556 11.867 261.549 11.9822 261.672 12.0743C261.799 12.1703 261.637 12.1818 261.591 12.2278Z" fill="#0F4173"/>
<path d="M254.391 29.0706C254.657 29.0745 254.919 29.0898 255.185 29.1129C260.285 29.5082 265.047 31.8227 269.35 34.5825C269.808 34.8781 270.29 35.1851 270.833 35.2312C271.626 35.2965 272.343 34.7975 272.994 34.3445C276.65 31.8189 280.86 30.084 285.244 29.3393C286.489 29.1282 287.768 28.9977 289.008 29.228C290.248 29.4583 291.458 30.0916 292.152 31.1434C292.637 31.8765 292.779 32.9858 292.105 33.55C291.716 33.8763 291.169 33.9262 290.661 33.9722C283.457 34.6171 276.48 37.5764 271.022 42.3091C264.95 37.1772 257.145 34.1181 249.19 33.7534C249.826 31.8611 250.157 29.9611 252.315 29.3125C252.989 29.109 253.694 29.0591 254.391 29.0706Z" fill="#0F4173"/>
<path d="M254.241 38.8353C254.796 38.8583 255.358 38.9389 255.905 39.0272C260.659 39.8218 265.301 41.5145 269.222 44.3049C269.754 44.6811 270.32 45.0956 270.971 45.0918C271.549 45.088 272.062 44.7502 272.543 44.4316C276.665 41.7179 281.269 39.53 286.184 39.0234C287.425 38.8967 288.708 38.8814 289.886 39.2805C291.065 39.6797 292.14 40.5587 292.506 41.7448C292.706 42.3973 292.614 43.234 292.021 43.568C291.759 43.7138 291.45 43.7369 291.15 43.7561C283.761 44.3049 276.577 47.3104 271.006 52.1813C264.985 46.9764 257.153 43.9019 249.187 43.6102C249.934 41.7409 250.435 39.507 252.669 38.9696C253.189 38.8468 253.713 38.8123 254.241 38.8353Z" fill="#0F4173"/>
<path d="M271.087 32.5096C269.866 30.5866 268.641 28.6636 267.42 26.7406C266.676 25.5699 265.925 24.3839 265.478 23.0673C264.361 19.7586 266.183 16.093 269.689 15.2946C271.596 14.8571 273.707 15.4443 275.117 16.7954C276.527 18.1504 277.189 20.2307 276.823 22.1461C276.557 23.5241 275.814 24.7562 275.082 25.9576C273.749 28.1378 272.416 30.3218 271.087 32.5096Z" fill="#0F4173"/>
<path d="M260.724 8.46246C260.628 8.34347 260.531 8.22065 260.439 8.09782C259.688 7.08066 259.614 6.59702 260.816 5.97137C263.925 4.35542 267.038 2.74332 270.147 1.12737C270.447 0.969995 270.771 0.808784 271.11 0.827976C271.383 0.84333 271.634 0.973834 271.872 1.1005C275.417 2.97362 278.961 4.85057 282.509 6.72369C281.534 7.85217 280.559 8.98064 279.585 10.1091C279.485 10.2243 279.377 10.3471 279.23 10.397C279.007 10.4738 278.772 10.3624 278.56 10.2588C273.96 8.00186 268.324 7.96732 263.698 10.1629C263.447 10.2818 263.178 10.4085 262.908 10.3509C262.754 10.3164 262.615 10.2243 262.488 10.1321C261.837 9.65619 261.24 9.09195 260.724 8.46246Z" fill="#0F4173"/>
<path d="M263.012 15.1144C262.916 14.508 262.735 13.4524 262.97 12.8651C263.182 12.3393 263.968 11.9439 264.438 11.6752C268.625 9.28012 274.153 9.44133 278.194 12.0744C278.479 12.2587 278.764 12.466 278.926 12.7653C279.296 13.4601 278.841 14.3237 278.999 15.0952C276.923 12.9803 273.972 11.7443 271.002 11.7482C268.032 11.752 265.085 12.9918 263.012 15.1144Z" fill="#0F4173"/>
<path d="M260.466 12.2278L261.641 12.2431C261.641 12.2431 261.46 12.9417 261.564 13.2757C261.664 13.6134 261.795 14.0817 262.003 14.2237C262.003 14.2237 261.229 14.9569 261.148 15.3676L261.121 14.335C261.121 14.335 261.244 14.2775 261.248 14.17C261.252 14.0625 261.148 14.0203 261.048 14.0241C260.947 14.028 260.894 14.0855 260.89 14.1623C260.886 14.2352 260.894 14.312 260.974 14.3197L261.001 15.4328C261.001 15.4328 260.531 14.3466 260.127 14.2429C260.127 14.2429 260.474 13.7094 260.501 13.2987C260.493 13.2948 260.597 12.8035 260.466 12.2278Z" fill="#0F4173"/>
</svg>
