<?xml version="1.0" encoding="utf-8"?>
<!-- Generator: Adobe Illustrator 25.2.0, SVG Export Plug-In . SVG Version: 6.00 Build 0)  -->
<svg version="1.1" id="Layer_1" xmlns="http://www.w3.org/2000/svg" xmlns:xlink="http://www.w3.org/1999/xlink" x="0px" y="0px"
	 viewBox="0 0 178.3 186.5" style="enable-background:new 0 0 178.3 186.5;" xml:space="preserve">
<style type="text/css">
	.st0{fill:#0A4A7A;}
	.st1{fill:#DCA249;}
</style>
<g>
	<g>
		<path class="st0" d="M64.9,29.7c-0.9-0.1-1.9-0.1-2.8,0c-0.1-0.1-0.3-0.2-0.2-0.3c0.4-0.3,0.3-0.7,0.4-1.1
			c0.2-2.9,0.5-5.7,0.7-8.6c0.6,0.3,0.9,0.8,1.3,1.3c0.2,2.5,0.4,5,0.6,7.5c0,0.3,0,0.6,0.3,0.8C65.4,29.6,65,29.6,64.9,29.7z"/>
		<path class="st0" d="M46.2,73.6c0.7,0,1.4,0.1,2.1,0.1c13.2,1,25.6,7.1,36.8,14.2c1.2,0.8,2.4,1.6,3.8,1.7
			c2.1,0.2,3.9-1.1,5.6-2.3c9.5-6.6,20.4-11.1,31.8-13c3.2-0.6,6.6-0.9,9.8-0.3c3.2,0.6,6.4,2.3,8.2,5c1.3,1.9,1.6,4.8-0.1,6.3
			c-1,0.9-2.4,1-3.7,1.1c-18.7,1.7-36.8,9.4-51,21.7c-15.8-13.4-36-21.3-56.7-22.3c1.6-4.9,2.5-9.9,8.1-11.6
			C42.6,73.7,44.4,73.6,46.2,73.6z"/>
		<path class="st1" d="M45.8,99c1.4,0.1,2.9,0.3,4.3,0.5c12.3,2.1,24.4,6.5,34.6,13.7c1.4,1,2.9,2.1,4.5,2c1.5,0,2.8-0.9,4.1-1.7
			c10.7-7.1,22.7-12.8,35.4-14.1c3.2-0.3,6.5-0.4,9.6,0.7c3.1,1,5.8,3.3,6.8,6.4c0.5,1.7,0.3,3.9-1.3,4.8c-0.7,0.4-1.5,0.4-2.3,0.5
			c-19.2,1.4-37.8,9.3-52.3,21.9c-15.6-13.6-36-21.6-56.6-22.3c1.9-4.9,3.2-10.7,9-12.1C43.1,99.1,44.4,99,45.8,99z"/>
		<path class="st1" d="M89.5,82.5c-3.2-5-6.3-10-9.5-15c-1.9-3.1-3.9-6.1-5-9.6c-2.9-8.6,1.8-18.2,10.9-20.3
			c5-1.1,10.4,0.4,14.1,3.9c3.7,3.5,5.4,8.9,4.4,13.9c-0.7,3.6-2.6,6.8-4.5,9.9C96.4,71.2,93,76.8,89.5,82.5z"/>
		<path class="st1" d="M62.6,19.9c-0.3-0.3-0.5-0.6-0.7-1c-1.9-2.6-2.1-3.9,1-5.5C71,9.2,79,5,87.1,0.8C87.9,0.4,88.7,0,89.6,0
			c0.7,0,1.4,0.4,2,0.7c9.2,4.9,18.4,9.8,27.6,14.6c-2.5,2.9-5.1,5.9-7.6,8.8c-0.3,0.3-0.5,0.6-0.9,0.7c-0.6,0.2-1.2-0.1-1.7-0.4
			c-11.9-5.9-26.6-6-38.6-0.2c-0.6,0.3-1.4,0.6-2.1,0.5c-0.4-0.1-0.8-0.3-1.1-0.6C65.5,23,64,21.5,62.6,19.9z"/>
		<path class="st0" d="M68.6,37.2c-0.3-1.6-0.7-4.3-0.1-5.9c0.6-1.4,2.6-2.4,3.8-3.1c10.9-6.2,25.2-5.8,35.7,1
			c0.7,0.5,1.5,1,1.9,1.8c1,1.8-0.2,4.1,0.2,6.1c-5.4-5.5-13.1-8.7-20.8-8.7S73.9,31.7,68.6,37.2z"/>
	</g>
	<path class="st1" d="M62,29.7l3.1,0c0,0-0.5,1.8-0.2,2.7c0.3,0.9,0.6,2.1,1.1,2.5c0,0-2,1.9-2.2,3l-0.1-2.7c0,0,0.3-0.2,0.3-0.4
		s-0.3-0.4-0.5-0.4c-0.3,0-0.4,0.2-0.4,0.4c0,0.2,0,0.4,0.2,0.4l0.1,2.9c0,0-1.2-2.8-2.3-3.1c0,0,0.9-1.4,1-2.5
		C62,32.5,62.3,31.2,62,29.7z"/>
	<g>
		<path class="st0" d="M2.2,155.6c0-0.2,0-0.3,0-0.5s0-0.4,0-0.7c0-0.2,0-0.5,0.1-0.7s0.1-0.5,0.1-0.7c0-0.1,0.1-0.2,0.1-0.3
			c0.1-0.1,0.1-0.1,0.3-0.1h1.9c0.2,0,0.3,0.1,0.3,0.3c0,0.3,0,0.5-0.1,0.8c0,0.2,0,0.5,0,0.6c0,0.7,0,1.3,0.1,1.9
			c0.1,0.6,0.3,1,0.5,1.5c0.3,0.4,0.6,0.7,1.1,0.9c0.5,0.2,1.1,0.3,1.9,0.3c0.3,0,0.6,0,0.8,0s0.5,0,0.7-0.1c0-0.3,0-0.6,0-0.8
			c0-0.2,0-0.5,0-0.7c0-0.2,0-0.4,0-0.6s0-0.4,0-0.7v-1.4c0-1.5,0.4-2.7,1.3-3.4c0.9-0.7,2.2-1.1,3.9-1.1c0.6,0,1.1,0,1.7,0.1
			c0.5,0.1,1,0.1,1.3,0.2c0.1,0,0.2,0.1,0.2,0.1s0.1,0.1,0.1,0.3v4.2c0,0.3,0.1,0.4,0.2,0.5c0.1,0.1,0.3,0.1,0.6,0.1h0.9v3h-1.7
			c-0.5,0-0.9,0-1.3-0.1c-0.4-0.1-0.7-0.2-0.9-0.4c-0.3-0.2-0.4-0.5-0.6-0.8c-0.1-0.3-0.2-0.8-0.2-1.4v-3c-0.2,0-0.3,0-0.4,0
			c-0.1,0-0.2,0-0.4,0c-0.7,0-1.2,0.2-1.5,0.5c-0.3,0.3-0.5,0.8-0.5,1.6v3c0,0.5,0,1.1,0,1.6s0,1.1-0.1,1.6c0,0.2-0.1,0.4-0.4,0.4
			c-0.6,0.1-1.2,0.2-1.9,0.2c-0.7,0.1-1.4,0.1-2.2,0.1c-2.2,0-3.8-0.5-4.8-1.5C2.7,159.3,2.2,157.7,2.2,155.6z M4.7,163.4
			c0-0.1,0-0.2,0.1-0.3C4.9,163,5,163,5.1,163h1.6c0.1,0,0.2,0,0.3,0.1s0.1,0.2,0.1,0.3v1.6c0,0.1,0,0.2-0.1,0.2
			c-0.1,0.1-0.2,0.1-0.3,0.1H5.1c-0.1,0-0.2,0-0.3-0.1c-0.1-0.1-0.1-0.2-0.1-0.2V163.4z M8.5,163.4c0-0.1,0-0.2,0.1-0.3
			c0.1-0.1,0.2-0.1,0.3-0.1h1.7c0.1,0,0.2,0,0.3,0.1c0.1,0.1,0.1,0.2,0.1,0.3v1.6c0,0.1,0,0.2-0.1,0.2c-0.1,0.1-0.2,0.1-0.3,0.1H8.9
			c-0.1,0-0.2,0-0.3-0.1c-0.1-0.1-0.1-0.2-0.1-0.2V163.4z"/>
		<path class="st0" d="M19.7,155.8c0-0.1,0.1-0.1,0.2-0.2c0.1,0,0.3-0.1,0.4-0.1h2.4l-1.2-3.1c-0.1-0.1-0.1-0.2-0.1-0.3
			c0-0.1,0-0.2,0-0.3l0.1-1.2c0-0.1,0.1-0.2,0.1-0.3c0.1-0.1,0.2-0.2,0.3-0.3c0.2-0.2,0.5-0.3,0.9-0.5s0.7-0.3,1.1-0.4
			s0.8-0.2,1.2-0.3s0.8-0.1,1.2-0.1c0.6,0,1.3,0.1,1.9,0.2c0.6,0.1,1.1,0.3,1.5,0.6s0.8,0.7,1,1.2c0.3,0.5,0.4,1.1,0.4,1.8v0.5
			c0,0.4-0.1,0.9-0.2,1.4s-0.4,0.8-0.6,1.1h2.1v3H20.3c-0.1,0-0.2,0-0.4-0.1c-0.1,0-0.2-0.1-0.2-0.2V155.8z M26.5,155.7
			c0.3,0,0.5-0.1,0.7-0.2c0.2-0.1,0.4-0.3,0.5-0.5c0.1-0.2,0.2-0.5,0.3-0.7c0.1-0.3,0.1-0.6,0.1-0.8v-0.2c0-0.6-0.2-1.1-0.5-1.4
			c-0.3-0.3-0.8-0.4-1.4-0.4c-0.3,0-0.6,0-0.9,0.1c-0.4,0.1-0.7,0.2-1,0.3l1.5,3.8H26.5z"/>
		<path class="st0" d="M31.4,155.8c0-0.1,0.1-0.1,0.2-0.2c0.1,0,0.3-0.1,0.4-0.1h0.6c0.2,0,0.3,0,0.5-0.1c0.2,0,0.3-0.2,0.4-0.4
			c0-0.1,0-0.1,0-0.2c0-0.1,0-0.1,0-0.2v-1.4c0-0.7,0.1-1.4,0.3-1.9c0.2-0.5,0.5-1,0.9-1.4c0.4-0.4,0.9-0.6,1.4-0.8
			c0.6-0.2,1.2-0.3,1.8-0.3s1.3,0.1,1.8,0.3c0.5,0.2,1,0.4,1.4,0.8s0.7,0.8,0.9,1.3c0.2,0.5,0.3,1.2,0.3,1.9v1.2
			c0,0.8-0.1,1.4-0.3,1.9s-0.5,1-0.9,1.3c-0.4,0.4-0.8,0.6-1.4,0.8c-0.5,0.2-1.2,0.2-1.8,0.2c-0.3,0-0.6,0-0.9,0s-0.6-0.1-0.9-0.2
			c-0.3-0.1-0.6-0.2-0.8-0.3c-0.2-0.1-0.4-0.2-0.6-0.4c-0.3,0.3-0.6,0.4-1,0.5c-0.4,0.1-0.9,0.1-1.4,0.1H32c-0.1,0-0.2,0-0.4-0.1
			c-0.1,0-0.2-0.1-0.2-0.2V155.8z M36.4,154.3c0,0.3,0,0.5,0.1,0.7c0.1,0.4,0.3,0.7,0.5,0.8s0.6,0.2,1,0.2c0.5,0,0.9-0.1,1.2-0.4
			c0.3-0.3,0.4-0.8,0.4-1.5v-0.7c0-0.7-0.1-1.2-0.4-1.5c-0.3-0.3-0.6-0.4-1.2-0.4c-0.5,0-0.9,0.1-1.2,0.4c-0.3,0.3-0.4,0.8-0.4,1.5
			V154.3z"/>
		<path class="st0" d="M44.9,144.3c0-0.1,0-0.2,0.1-0.3c0.1-0.1,0.2-0.1,0.3-0.1h2.2c0.1,0,0.2,0,0.3,0.1c0.1,0.1,0.1,0.2,0.1,0.3
			v10.4c0,0.4,0.1,0.6,0.2,0.7c0.2,0.1,0.4,0.2,0.7,0.2h0.7v3h-1.6c-0.5,0-0.9,0-1.2-0.1c-0.4-0.1-0.7-0.2-1-0.4s-0.5-0.5-0.6-0.9
			c-0.1-0.4-0.2-0.9-0.2-1.5V144.3z"/>
		<path class="st0" d="M49.3,158.5c-0.1,0-0.3,0-0.4-0.1c-0.1,0-0.2-0.1-0.2-0.1v-2.5c0-0.1,0.1-0.1,0.2-0.2c0.1,0,0.3-0.1,0.4-0.1
			H57l-0.4-0.9l-0.3-0.7c-0.2-0.4-0.4-0.7-0.6-1c-0.3-0.3-0.6-0.6-0.9-0.8s-0.8-0.4-1.3-0.5c-0.5-0.1-1-0.2-1.6-0.2c0,0-0.1,0-0.2,0
			c-0.1,0-0.1,0-0.2,0c-0.1,0-0.2,0-0.2,0s-0.1,0-0.2,0c-0.3,0-0.4-0.1-0.4-0.3v-1.8c0-0.2,0.1-0.3,0.4-0.4c0.4-0.1,0.7-0.1,0.9-0.1
			c0.3,0,0.6,0,1,0c0.7,0,1.4,0.1,2.1,0.2s1.2,0.4,1.7,0.8c0.5,0.4,1,0.8,1.5,1.4c0.5,0.6,0.9,1.3,1.3,2.2l0.3,0.6
			c0.1,0.2,0.2,0.4,0.3,0.7c0.1,0.2,0.2,0.4,0.3,0.5c0.1,0.1,0.1,0.2,0.2,0.2c0.1,0,0.2,0.1,0.3,0.1H61v3H49.3z M53,160.6
			c0-0.1,0-0.2,0.1-0.3c0.1-0.1,0.2-0.1,0.3-0.1h1.9c0.1,0,0.2,0,0.3,0.1c0.1,0.1,0.1,0.2,0.1,0.3v1.8c0,0.1,0,0.2-0.1,0.3
			c-0.1,0.1-0.2,0.1-0.3,0.1h-1.9c-0.1,0-0.2,0-0.3-0.1c-0.1-0.1-0.1-0.2-0.1-0.3V160.6z"/>
		<path class="st0" d="M60.2,155.8c0-0.1,0.1-0.1,0.2-0.2c0.1,0,0.3-0.1,0.4-0.1H62c0.3,0,0.5,0,0.6-0.1c0.1-0.1,0.2-0.2,0.2-0.5
			v-10.7c0-0.1,0-0.2,0.1-0.3c0.1-0.1,0.2-0.1,0.3-0.1h2.2c0.1,0,0.2,0,0.3,0.1c0.1,0.1,0.1,0.2,0.1,0.3v11.1c0,0.4,0,0.8,0,1.2
			s0,0.8-0.1,1.2c0,0.1-0.1,0.2-0.1,0.3c-0.1,0.1-0.2,0.2-0.3,0.2c-0.2,0-0.4,0.1-0.7,0.1s-0.6,0.1-0.9,0.1s-0.7,0-1,0
			c-0.4,0-0.7,0-1,0h-0.7c-0.1,0-0.2,0-0.4-0.1c-0.1,0-0.2-0.1-0.2-0.2V155.8z"/>
		<path class="st0" d="M68.4,144.3c0-0.1,0-0.2,0.1-0.3c0.1-0.1,0.2-0.1,0.3-0.1H71c0.1,0,0.2,0,0.3,0.1s0.1,0.2,0.1,0.3v13.8
			c0,0.1,0,0.2-0.1,0.3c-0.1,0.1-0.2,0.1-0.3,0.1h-2.2c-0.1,0-0.2,0-0.3-0.1c-0.1-0.1-0.1-0.2-0.1-0.3V144.3z"/>
		<path class="st0" d="M79,158.1c-0.2,0-0.3-0.1-0.3-0.3v-1.8c0-0.2,0.1-0.3,0.3-0.3h0.8c-0.3-0.4-0.4-1-0.4-1.8
			c0-0.7,0.1-1.2,0.3-1.7c0.2-0.4,0.5-0.8,0.8-1.1c0.4-0.3,0.8-0.5,1.2-0.6c0.5-0.1,1-0.2,1.5-0.2c0.3,0,0.6,0,0.9,0
			c0.3,0,0.5,0.1,0.8,0.1c0.2,0,0.3,0.1,0.3,0.3v1.5c0,0.2-0.1,0.3-0.3,0.3c-0.3,0-0.5,0-0.7,0c-0.2,0-0.4,0-0.5,0
			c-0.7,0-1.2,0.1-1.5,0.3c-0.3,0.2-0.4,0.6-0.4,1.1c0,0.4,0.1,0.7,0.2,1c0.2,0.3,0.3,0.4,0.5,0.5l2.8,0c0.2,0,0.3,0.1,0.3,0.3v1.8
			c0,0.2-0.1,0.3-0.3,0.3H79z"/>
		<path class="st0" d="M88.1,144.3c0-0.1,0-0.2,0.1-0.3s0.2-0.1,0.3-0.1h2.2c0.1,0,0.2,0,0.3,0.1c0.1,0.1,0.1,0.2,0.1,0.3v10.4
			c0,0.4,0.1,0.6,0.2,0.7c0.2,0.1,0.4,0.2,0.7,0.2h0.7v3h-1.6c-0.5,0-0.9,0-1.2-0.1c-0.4-0.1-0.7-0.2-1-0.4s-0.5-0.5-0.6-0.9
			c-0.1-0.4-0.2-0.9-0.2-1.5V144.3z"/>
		<path class="st0" d="M92,155.8c0-0.1,0.1-0.1,0.2-0.2s0.3-0.1,0.4-0.1h1.9c-0.2-0.2-0.3-0.5-0.5-0.8c-0.1-0.3-0.2-0.8-0.2-1.2
			v-0.3c0-0.7,0.1-1.4,0.4-1.9c0.3-0.6,0.6-1,1.1-1.4c0.5-0.4,1-0.6,1.7-0.8c0.6-0.2,1.4-0.3,2.1-0.3c0.3,0,0.6,0,0.9,0
			c0.3,0,0.6,0,0.9,0.1c0.3,0,0.6,0.1,0.8,0.1c0.3,0,0.5,0.1,0.6,0.1c0.1,0,0.2,0.1,0.3,0.2s0.1,0.1,0.1,0.2v6.1h1.7v3H92.6
			c-0.1,0-0.2,0-0.4-0.1s-0.2-0.1-0.2-0.2V155.8z M95.3,144.9c0-0.1,0-0.2,0.1-0.3c0.1-0.1,0.2-0.1,0.3-0.1h1.7c0.1,0,0.2,0,0.3,0.1
			c0.1,0.1,0.1,0.2,0.1,0.3v1.8c0,0.1-0.1,0.2-0.2,0.3c-0.1,0.1-0.2,0.1-0.3,0.1h-1.7c-0.1,0-0.2,0-0.3-0.1
			c-0.1-0.1-0.1-0.2-0.1-0.3V144.9z M99.7,155.7v-4.2c-0.3,0-0.6-0.1-0.9-0.1c-1.3,0-2,0.7-2,2v0.3c0,0.7,0.1,1.2,0.4,1.5
			c0.3,0.4,0.7,0.5,1.4,0.5H99.7z M99.1,144.9c0-0.1,0.1-0.2,0.2-0.3c0.1-0.1,0.2-0.1,0.3-0.1h1.7c0.1,0,0.2,0,0.3,0.1
			c0.1,0.1,0.1,0.2,0.1,0.3v1.8c0,0.1,0,0.2-0.1,0.3c-0.1,0.1-0.2,0.1-0.3,0.1h-1.7c-0.1,0-0.2,0-0.3-0.1c-0.1-0.1-0.2-0.2-0.2-0.3
			V144.9z"/>
		<path class="st0" d="M103.6,155.8c0-0.1,0.1-0.1,0.2-0.2s0.3-0.1,0.4-0.1h1.1c0.3,0,0.5,0,0.6-0.1s0.1-0.2,0.1-0.5
			c0-0.6,0-1.3,0-2.1c0-0.8,0-1.7,0-2.5c0-0.1,0-0.2,0.1-0.3c0.1-0.1,0.2-0.1,0.3-0.1h2.1c0.1,0,0.2,0,0.3,0.1
			c0.1,0.1,0.1,0.2,0.1,0.3c0,0.4,0,0.8,0,1.1c0,0.3,0,0.6,0,0.9c0,0.3,0,0.6,0,0.9s0,0.6,0,0.9c0,0.9,0,1.7,0,2.3
			c0,0.6,0,1.1-0.1,1.4c0,0.1-0.1,0.2-0.1,0.3c-0.1,0.1-0.2,0.2-0.3,0.2c-0.2,0-0.4,0.1-0.6,0.1s-0.6,0.1-0.9,0.1c-0.3,0-0.7,0-1,0
			c-0.3,0-0.7,0-0.9,0h-0.7c-0.1,0-0.2,0-0.4-0.1s-0.2-0.1-0.2-0.2V155.8z M104.2,145.9c0-0.1,0-0.2,0.1-0.3
			c0.1-0.1,0.2-0.1,0.3-0.1h1.7c0.1,0,0.2,0,0.3,0.1c0.1,0.1,0.1,0.2,0.1,0.3v1.8c0,0.1-0.1,0.2-0.2,0.3c-0.1,0.1-0.2,0.1-0.3,0.1
			h-1.7c-0.1,0-0.2,0-0.3-0.1c-0.1-0.1-0.1-0.2-0.1-0.3V145.9z M108.1,145.9c0-0.1,0.1-0.2,0.2-0.3c0.1-0.1,0.2-0.1,0.3-0.1h1.7
			c0.1,0,0.2,0,0.3,0.1c0.1,0.1,0.1,0.2,0.1,0.3v1.8c0,0.1,0,0.2-0.1,0.3c-0.1,0.1-0.2,0.1-0.3,0.1h-1.7c-0.1,0-0.2,0-0.3-0.1
			c-0.1-0.1-0.2-0.2-0.2-0.3V145.9z"/>
		<path class="st0" d="M109.5,160.9c0-0.2,0.1-0.3,0.3-0.3h0.4c0.3,0,0.6,0,0.8,0c0.2,0,0.4-0.1,0.6-0.2c0.1-0.1,0.3-0.3,0.3-0.5
			c0.1-0.2,0.1-0.5,0.1-0.9v-8.6c0-0.1,0-0.2,0.1-0.3c0.1-0.1,0.2-0.1,0.3-0.1h2.2c0.1,0,0.2,0,0.3,0.1s0.1,0.2,0.1,0.3v8.2
			c0,0.5,0,1-0.1,1.5c-0.1,0.5-0.2,0.9-0.4,1.3c-0.3,0.6-0.8,1-1.3,1.3c-0.6,0.3-1.2,0.4-2.1,0.4c-0.1,0-0.2,0-0.3,0
			c-0.1,0-0.2,0-0.4,0c-0.1,0-0.3,0-0.4,0c-0.1,0-0.2,0-0.3,0c-0.2,0-0.3-0.2-0.3-0.4V160.9z"/>
		<path class="st0" d="M117.3,155.9c0-0.2,0.1-0.4,0.4-0.4h7.1c0.3,0,0.5,0,0.6-0.1c0.1-0.1,0.2-0.2,0.2-0.5v-10.7
			c0-0.1,0-0.2,0.1-0.3c0.1-0.1,0.2-0.1,0.3-0.1h2.2c0.1,0,0.2,0,0.3,0.1c0.1,0.1,0.1,0.2,0.1,0.3v11.1c0,0.5,0,0.9,0,1.3
			c0,0.4,0,0.7-0.1,1.1c0,0.1-0.1,0.2-0.1,0.3c-0.1,0.1-0.2,0.2-0.3,0.2c-0.2,0-0.4,0.1-0.7,0.1c-0.3,0-0.6,0.1-1,0.1
			c-0.4,0-0.7,0-1.1,0c-0.4,0-0.7,0-1,0h-6.4c-0.1,0-0.2,0-0.3-0.1c-0.1-0.1-0.1-0.1-0.1-0.2V155.9z M119,163.5
			c-0.1,0-0.1,0-0.2-0.1c-0.1,0-0.1-0.1-0.1-0.2v-0.7c0-0.1,0-0.1,0.1-0.1c0.1,0,0.1,0,0.2,0h0.4c-0.1-0.2-0.2-0.3-0.2-0.5
			c0-0.2-0.1-0.4-0.1-0.6c0-1.1,0.6-1.6,1.9-1.6c0.1,0,0.3,0,0.5,0c0.2,0,0.4,0,0.6,0.1c0.1,0,0.2,0.1,0.2,0.2v0.6
			c0,0.1-0.1,0.2-0.2,0.2h-0.7c-0.3,0-0.5,0.1-0.7,0.2c-0.1,0.1-0.2,0.3-0.2,0.6c0,0.2,0,0.4,0.1,0.5s0.2,0.3,0.3,0.3h1.4
			c0.2,0,0.3,0.1,0.3,0.2v0.7c0,0.2-0.1,0.2-0.3,0.2H119z M119.3,145.5c0-0.1,0-0.2,0.1-0.3c0.1-0.1,0.2-0.1,0.3-0.1h2.1
			c0.3,0,0.4,0.1,0.4,0.4v8.5c0,0.1,0,0.2-0.1,0.3c-0.1,0.1-0.2,0.1-0.3,0.1h-2.1c-0.1,0-0.2,0-0.3-0.1c-0.1-0.1-0.1-0.2-0.1-0.3
			V145.5z"/>
		<path class="st0" d="M131.1,144.3c0-0.1,0-0.2,0.1-0.3c0.1-0.1,0.2-0.1,0.3-0.1h2.2c0.1,0,0.2,0,0.3,0.1s0.1,0.2,0.1,0.3v13.8
			c0,0.1,0,0.2-0.1,0.3c-0.1,0.1-0.2,0.1-0.3,0.1h-2.2c-0.1,0-0.2,0-0.3-0.1c-0.1-0.1-0.1-0.2-0.1-0.3V144.3z"/>
		<path class="st0" d="M139.8,160.9c0-0.2,0.1-0.3,0.3-0.3h0.4c0.3,0,0.6,0,0.8,0c0.2,0,0.4-0.1,0.6-0.2c0.1-0.1,0.3-0.3,0.3-0.5
			c0.1-0.2,0.1-0.5,0.1-0.9v-8.6c0-0.1,0-0.2,0.1-0.3c0.1-0.1,0.2-0.1,0.3-0.1h2.2c0.1,0,0.2,0,0.3,0.1s0.1,0.2,0.1,0.3v5.2h1.7v3
			h-1.7v0.7c0,0.4,0,0.9-0.1,1.2s-0.2,0.7-0.3,1c-0.3,0.6-0.8,1-1.3,1.3c-0.6,0.3-1.2,0.4-2.1,0.4c-0.1,0-0.2,0-0.3,0
			c-0.1,0-0.2,0-0.4,0c-0.1,0-0.3,0-0.4,0c-0.1,0-0.2,0-0.3,0c-0.2,0-0.3-0.2-0.3-0.4V160.9z M142.4,145.9c0-0.1,0-0.2,0.1-0.3
			c0.1-0.1,0.2-0.1,0.3-0.1h1.9c0.1,0,0.2,0,0.3,0.1c0.1,0.1,0.1,0.2,0.1,0.3v1.8c0,0.1,0,0.2-0.1,0.3c-0.1,0.1-0.2,0.1-0.3,0.1
			h-1.9c-0.1,0-0.3,0-0.3-0.1c-0.1-0.1-0.1-0.2-0.1-0.3V145.9z"/>
		<path class="st0" d="M146.2,155.9c0-0.1,0.1-0.2,0.2-0.3c0.1-0.1,0.3-0.1,0.4-0.1h7.1c0.1,0,0.2,0,0.4,0s0.5,0,0.8,0s0.6,0,0.8,0
			c0.2,0,0.4,0,0.5,0c0-0.2,0-0.3,0-0.5c0-0.2,0-0.4,0-0.5c0-0.9-0.3-1.6-0.9-2c-0.6-0.4-1.5-0.6-2.6-0.6h-4.3
			c-0.3,0-0.5-0.1-0.5-0.3c0,0,0-0.1,0-0.2s0-0.2,0-0.2c0-0.1,0-0.2,0-0.2c0-0.1,0-0.1,0-0.1c0-0.3,0-0.6,0.1-0.9
			c0.1-0.3,0.1-0.6,0.2-0.9c0.1-0.3,0.2-0.6,0.4-0.9c0.2-0.3,0.3-0.7,0.5-1l1.5-2.7c0.1-0.1,0.1-0.2,0.2-0.3s0.2-0.1,0.3-0.1h2.2
			c0.1,0,0.2,0,0.2,0.1c0,0,0.1,0.1,0.1,0.2c0,0.1,0,0.1-0.1,0.2l-1.8,3.4c-0.1,0.1-0.1,0.2-0.2,0.3c-0.1,0.1-0.1,0.3-0.2,0.4
			c-0.1,0.1-0.1,0.3-0.2,0.4c0,0.1-0.1,0.2-0.1,0.2c0.5,0,0.9,0,1.2-0.1c0.3,0,0.5,0,0.8,0c1.2,0,2.1,0.1,2.9,0.4
			c0.8,0.3,1.4,0.7,1.9,1.2c0.5,0.5,0.8,1.1,1,1.9c0.2,0.7,0.3,1.6,0.3,2.5v0.6c0,0.1,0,0.3,0,0.5c0,0.2,0,0.5,0,0.7
			c0,0.2,0,0.5-0.1,0.7c0,0.2,0,0.4,0,0.5c0,0.2-0.2,0.4-0.5,0.4c-0.2,0-0.5,0-0.9,0c-0.4,0-0.7,0-1.2,0s-0.8,0-1.3,0s-0.8,0-1.2,0
			h-7.6c-0.1,0-0.3,0-0.4-0.1c-0.1-0.1-0.2-0.1-0.2-0.2V155.9z"/>
		<path class="st0" d="M159.9,160.9c0-0.2,0.1-0.3,0.3-0.3h0.4c0.3,0,0.6,0,0.8,0c0.2,0,0.4-0.1,0.6-0.2c0.1-0.1,0.3-0.3,0.3-0.5
			c0.1-0.2,0.1-0.5,0.1-0.9v-8.6c0-0.1,0-0.2,0.1-0.3c0.1-0.1,0.2-0.1,0.3-0.1h2.2c0.1,0,0.2,0,0.3,0.1s0.1,0.2,0.1,0.3v5.2h1.7v3
			h-1.7v0.7c0,0.4,0,0.9-0.1,1.2s-0.2,0.7-0.3,1c-0.3,0.6-0.8,1-1.3,1.3c-0.6,0.3-1.2,0.4-2.1,0.4c-0.1,0-0.2,0-0.3,0
			c-0.1,0-0.2,0-0.4,0c-0.1,0-0.3,0-0.4,0c-0.1,0-0.2,0-0.3,0c-0.2,0-0.3-0.2-0.3-0.4V160.9z"/>
		<path class="st0" d="M166.3,155.8c0-0.1,0.1-0.1,0.2-0.2s0.3-0.1,0.4-0.1h0.6c0.2,0,0.3,0,0.5-0.1c0.2,0,0.3-0.2,0.4-0.4
			c0-0.1,0-0.1,0-0.2c0-0.1,0-0.1,0-0.2v-1.4c0-0.7,0.1-1.4,0.3-1.9c0.2-0.5,0.5-1,0.9-1.4s0.9-0.6,1.4-0.8c0.6-0.2,1.2-0.3,1.8-0.3
			c0.7,0,1.3,0.1,1.8,0.3c0.5,0.2,1,0.4,1.4,0.8s0.7,0.8,0.9,1.3c0.2,0.5,0.3,1.2,0.3,1.9v1.2c0,0.8-0.1,1.4-0.3,1.9s-0.5,1-0.9,1.3
			c-0.4,0.4-0.8,0.6-1.4,0.8s-1.2,0.2-1.8,0.2c-0.3,0-0.6,0-0.9,0s-0.6-0.1-0.9-0.2s-0.6-0.2-0.8-0.3c-0.2-0.1-0.4-0.2-0.6-0.4
			c-0.3,0.3-0.6,0.4-1,0.5c-0.4,0.1-0.9,0.1-1.4,0.1h-0.3c-0.1,0-0.2,0-0.4-0.1s-0.2-0.1-0.2-0.2V155.8z M171.3,154.3
			c0,0.3,0,0.5,0.1,0.7c0.1,0.4,0.3,0.7,0.5,0.8s0.6,0.2,1,0.2c0.5,0,0.9-0.1,1.2-0.4c0.3-0.3,0.4-0.8,0.4-1.5v-0.7
			c0-0.7-0.1-1.2-0.4-1.5c-0.3-0.3-0.6-0.4-1.2-0.4s-0.9,0.1-1.2,0.4c-0.3,0.3-0.4,0.8-0.4,1.5V154.3z"/>
	</g>
	<g>
		<path class="st1" d="M8.4,180.2c0,0.2-0.1,0.2-0.3,0.2H7.3c-0.1,0-0.1,0-0.2-0.1S7,180.3,7,180.2l-1-3.4H2.2l-1,3.4
			c0,0.1-0.1,0.1-0.1,0.2c0,0-0.1,0.1-0.2,0.1H0.1c-0.2,0-0.3-0.1-0.3-0.2c0,0,0-0.1,0-0.1l2.8-9.7c0.1-0.2,0.1-0.4,0.3-0.6
			c0.1-0.1,0.2-0.3,0.4-0.3c0.1-0.1,0.3-0.1,0.4-0.2c0.2,0,0.3-0.1,0.4-0.1s0.3,0,0.4,0c0.1,0,0.3,0.1,0.4,0.2
			c0.1,0.1,0.3,0.2,0.4,0.3s0.2,0.3,0.3,0.6l2.8,9.7C8.4,180.1,8.4,180.1,8.4,180.2z M4.4,170.7c0-0.2-0.1-0.3-0.3-0.3
			c-0.1,0-0.2,0.1-0.3,0.3l-1.4,4.9h3.3L4.4,170.7z"/>
		<path class="st1" d="M11.8,180.1c0,0.1,0,0.1-0.1,0.2c0,0.1-0.1,0.1-0.2,0.1h-0.8c-0.1,0-0.1,0-0.2-0.1c0-0.1-0.1-0.1-0.1-0.2
			v-10.6c0-0.1,0-0.1,0.1-0.2c0-0.1,0.1-0.1,0.2-0.1h0.8c0.1,0,0.1,0,0.2,0.1c0,0.1,0.1,0.1,0.1,0.2V180.1z"/>
		<path class="st1" d="M16.1,170.6c0,0.1,0,0.1-0.1,0.2c-0.1,0.1-0.1,0.1-0.2,0.1H15c-0.1,0-0.1,0-0.2-0.1c-0.1-0.1-0.1-0.1-0.1-0.2
			v-1.2c0-0.1,0-0.1,0.1-0.2c0.1-0.1,0.1-0.1,0.2-0.1h0.8c0.1,0,0.1,0,0.2,0.1c0.1,0.1,0.1,0.1,0.1,0.2V170.6z M16.1,180.1
			c0,0.1,0,0.1-0.1,0.2c-0.1,0.1-0.1,0.1-0.2,0.1H15c-0.1,0-0.1,0-0.2-0.1c-0.1-0.1-0.1-0.1-0.1-0.2v-7.6c0-0.1,0-0.1,0.1-0.2
			s0.1-0.1,0.2-0.1h0.7c0.1,0,0.1,0,0.2,0.1c0.1,0.1,0.1,0.1,0.1,0.2V180.1z"/>
		<path class="st1" d="M22.5,173c0,0.2-0.1,0.3-0.3,0.3c-0.3,0-0.7,0-1,0.1c-0.3,0.1-0.7,0.3-1,0.5v6.2c0,0.1,0,0.1-0.1,0.2
			c-0.1,0.1-0.1,0.1-0.2,0.1h-0.7c-0.1,0-0.1,0-0.2-0.1c-0.1-0.1-0.1-0.1-0.1-0.2v-7.6c0-0.1,0-0.1,0.1-0.2c0.1-0.1,0.1-0.1,0.2-0.1
			h0.7c0.1,0,0.1,0,0.2,0.1c0.1,0.1,0.1,0.1,0.1,0.2v0.3c0.4-0.3,0.7-0.4,1.1-0.5c0.3-0.1,0.7-0.2,1-0.2c0.2,0,0.3,0.1,0.3,0.3V173z
			"/>
		<path class="st1" d="M28.8,180.2c0,0.1-0.1,0.2-0.3,0.3c-0.1,0-0.3,0-0.5,0.1c-0.2,0-0.3,0-0.5,0c-0.3,0-0.6,0-0.9-0.1
			c-0.3-0.1-0.5-0.2-0.6-0.3c-0.2-0.1-0.3-0.4-0.4-0.6c-0.1-0.3-0.1-0.6-0.1-1v-5.2l-1.4-0.2c-0.2,0-0.3-0.1-0.3-0.3v-0.4
			c0-0.2,0.1-0.3,0.3-0.3h1.4v-1.5c0-0.2,0.1-0.3,0.3-0.3l0.8-0.1h0c0.1,0,0.1,0,0.2,0.1s0.1,0.1,0.1,0.2v1.6h1.6
			c0.1,0,0.1,0,0.2,0.1s0.1,0.1,0.1,0.2v0.5c0,0.1,0,0.1-0.1,0.2c-0.1,0.1-0.1,0.1-0.2,0.1h-1.6v5.2c0,0.4,0.1,0.7,0.2,0.8
			c0.1,0.1,0.3,0.2,0.6,0.2h0.8c0.2,0,0.3,0.1,0.3,0.2V180.2z"/>
		<path class="st1" d="M32.3,170.6c0,0.1,0,0.1-0.1,0.2c-0.1,0.1-0.1,0.1-0.2,0.1h-0.8c-0.1,0-0.1,0-0.2-0.1
			c-0.1-0.1-0.1-0.1-0.1-0.2v-1.2c0-0.1,0-0.1,0.1-0.2c0.1-0.1,0.1-0.1,0.2-0.1H32c0.1,0,0.1,0,0.2,0.1c0.1,0.1,0.1,0.1,0.1,0.2
			V170.6z M32.2,180.1c0,0.1,0,0.1-0.1,0.2c-0.1,0.1-0.1,0.1-0.2,0.1h-0.7c-0.1,0-0.1,0-0.2-0.1c-0.1-0.1-0.1-0.1-0.1-0.2v-7.6
			c0-0.1,0-0.1,0.1-0.2s0.1-0.1,0.2-0.1h0.7c0.1,0,0.1,0,0.2,0.1c0.1,0.1,0.1,0.1,0.1,0.2V180.1z"/>
		<path class="st1" d="M41,183.1c0,0.1,0,0.1-0.1,0.2c0,0.1-0.1,0.1-0.2,0.1H40c-0.1,0-0.1,0-0.2-0.1c-0.1-0.1-0.1-0.1-0.1-0.2v-2.7
			c-0.3,0-0.6,0.1-0.9,0.1s-0.6,0-0.8,0c-1.1,0-1.9-0.3-2.4-0.9c-0.5-0.6-0.8-1.5-0.8-2.7v-1.1c0-0.6,0.1-1.1,0.2-1.5
			s0.3-0.8,0.6-1.2c0.3-0.3,0.6-0.6,1-0.7s0.9-0.3,1.4-0.3c0.4,0,0.9,0,1.4,0.1c0.5,0.1,0.9,0.1,1.3,0.2c0.1,0,0.2,0.1,0.3,0.1
			c0,0,0.1,0.1,0.1,0.2V183.1z M39.7,173.4c-0.2,0-0.5-0.1-0.8-0.1c-0.3,0-0.6,0-1,0c-0.4,0-0.7,0.1-0.9,0.2
			c-0.2,0.1-0.4,0.3-0.6,0.5c-0.1,0.2-0.3,0.5-0.3,0.8c-0.1,0.3-0.1,0.7-0.1,1.1v1.1c0,0.4,0,0.8,0.1,1.1c0.1,0.3,0.2,0.6,0.3,0.8
			c0.1,0.2,0.3,0.4,0.6,0.5c0.2,0.1,0.6,0.2,0.9,0.2c0.1,0,0.3,0,0.4,0c0.1,0,0.3,0,0.5,0c0.2,0,0.3,0,0.5-0.1c0.2,0,0.3,0,0.4-0.1
			V173.4z"/>
		<path class="st1" d="M49.3,180.1c0,0.1,0,0.1-0.1,0.2c-0.1,0.1-0.1,0.1-0.2,0.1h-0.7c-0.1,0-0.1,0-0.2-0.1
			c-0.1-0.1-0.1-0.1-0.1-0.2v-0.3c-0.4,0.2-0.7,0.4-1.1,0.5c-0.4,0.1-0.8,0.2-1.2,0.2c-0.3,0-0.6,0-0.9-0.1
			c-0.3-0.1-0.6-0.2-0.8-0.4c-0.2-0.2-0.4-0.4-0.5-0.7s-0.2-0.7-0.2-1.2v-0.2c0-0.4,0.1-0.7,0.2-1c0.1-0.3,0.3-0.6,0.6-0.8
			c0.3-0.2,0.7-0.4,1.1-0.5c0.5-0.1,1-0.1,1.7-0.1H48v-0.6c0-0.6-0.1-1.1-0.4-1.3c-0.2-0.2-0.6-0.4-1.2-0.4c-0.5,0-0.9,0-1.3,0
			c-0.4,0-0.7,0.1-1,0.1H44c-0.1,0-0.1,0-0.2,0c-0.1,0-0.1-0.1-0.1-0.2v-0.5c0-0.2,0.1-0.3,0.3-0.3c0.3,0,0.6-0.1,1-0.1
			s0.8-0.1,1.3-0.1c1,0,1.8,0.2,2.2,0.7c0.5,0.5,0.7,1.2,0.7,2.1V180.1z M48,176.5h-1.1c-0.4,0-0.8,0-1.1,0.1
			c-0.3,0.1-0.5,0.1-0.7,0.3s-0.3,0.3-0.4,0.4c-0.1,0.2-0.1,0.4-0.1,0.7v0.2c0,0.5,0.1,0.9,0.4,1.1s0.6,0.3,1,0.3c0.3,0,0.7,0,1-0.1
			c0.3-0.1,0.7-0.2,1-0.4V176.5z"/>
		<path class="st1" d="M63.8,176.4c0,1.4-0.3,2.5-1,3.1c-0.7,0.7-1.6,1-2.8,1c-1.2,0-2.1-0.3-2.8-1c-0.7-0.7-1-1.7-1-3.1v-6.7
			c0-0.1,0-0.1,0.1-0.2c0.1-0.1,0.1-0.1,0.2-0.1h0.8c0.1,0,0.1,0,0.2,0.1c0.1,0.1,0.1,0.1,0.1,0.2v6.7c0,0.5,0,0.9,0.1,1.3
			c0.1,0.4,0.2,0.7,0.4,0.9s0.4,0.4,0.8,0.6c0.3,0.1,0.7,0.2,1.2,0.2c0.5,0,0.8-0.1,1.2-0.2c0.3-0.1,0.6-0.3,0.8-0.6
			c0.2-0.2,0.3-0.6,0.4-0.9c0.1-0.4,0.1-0.8,0.1-1.3v-6.7c0-0.1,0-0.1,0.1-0.2c0.1-0.1,0.1-0.1,0.2-0.1h0.8c0.1,0,0.1,0,0.2,0.1
			c0.1,0.1,0.1,0.1,0.1,0.2V176.4z"/>
		<path class="st1" d="M72.8,180.1c0,0.1,0,0.1-0.1,0.2c-0.1,0.1-0.1,0.1-0.2,0.1h-0.7c-0.1,0-0.1,0-0.2-0.1
			c-0.1-0.1-0.1-0.1-0.1-0.2v-4.9c0-0.4,0-0.7-0.1-0.9c-0.1-0.3-0.2-0.5-0.3-0.6c-0.1-0.1-0.3-0.3-0.5-0.3s-0.5-0.1-0.7-0.1
			c-0.3,0-0.6,0.1-1,0.2s-0.7,0.2-1,0.4v6.3c0,0.1,0,0.1-0.1,0.2c-0.1,0.1-0.1,0.1-0.2,0.1h-0.7c-0.1,0-0.1,0-0.2-0.1
			c-0.1-0.1-0.1-0.1-0.1-0.2v-7.6c0-0.1,0-0.1,0.1-0.2c0.1-0.1,0.1-0.1,0.2-0.1h0.7c0.1,0,0.1,0,0.2,0.1c0.1,0.1,0.1,0.1,0.1,0.2
			v0.3c0.4-0.2,0.8-0.4,1.2-0.5c0.4-0.1,0.8-0.2,1.2-0.2c0.9,0,1.6,0.3,2,0.8s0.6,1.3,0.6,2.3V180.1z"/>
		<path class="st1" d="M76.9,170.6c0,0.1,0,0.1-0.1,0.2c-0.1,0.1-0.1,0.1-0.2,0.1h-0.8c-0.1,0-0.1,0-0.2-0.1
			c-0.1-0.1-0.1-0.1-0.1-0.2v-1.2c0-0.1,0-0.1,0.1-0.2s0.1-0.1,0.2-0.1h0.8c0.1,0,0.1,0,0.2,0.1s0.1,0.1,0.1,0.2V170.6z M76.8,180.1
			c0,0.1,0,0.1-0.1,0.2c-0.1,0.1-0.1,0.1-0.2,0.1h-0.7c-0.1,0-0.1,0-0.2-0.1c-0.1-0.1-0.1-0.1-0.1-0.2v-7.6c0-0.1,0-0.1,0.1-0.2
			s0.1-0.1,0.2-0.1h0.7c0.1,0,0.1,0,0.2,0.1s0.1,0.1,0.1,0.2V180.1z"/>
		<path class="st1" d="M85.9,172.5c0,0,0,0.1,0,0.1l-2,7.1c-0.1,0.3-0.3,0.6-0.5,0.7c-0.2,0.1-0.5,0.2-0.8,0.2s-0.6-0.1-0.8-0.2
			c-0.2-0.1-0.4-0.3-0.5-0.7l-2-7.1c0,0,0-0.1,0-0.1c0-0.2,0.1-0.3,0.2-0.3h0.8c0.1,0,0.2,0.1,0.3,0.3l1.7,6.5
			c0,0.2,0.1,0.3,0.1,0.3c0,0.1,0.1,0.1,0.2,0.1c0.1,0,0.1,0,0.2-0.1c0-0.1,0.1-0.2,0.1-0.3l1.7-6.5c0.1-0.2,0.2-0.3,0.3-0.3h0.8
			C85.8,172.2,85.9,172.3,85.9,172.5z"/>
		<path class="st1" d="M94.4,176.4c0,0.2-0.1,0.3-0.3,0.3h-5v0.2c0,0.9,0.2,1.5,0.5,1.9c0.3,0.4,0.9,0.6,1.5,0.6c0.4,0,0.9,0,1.4,0
			c0.5,0,0.9-0.1,1.3-0.1h0.1c0.1,0,0.1,0,0.2,0c0,0,0.1,0.1,0.1,0.2v0.5c0,0.1,0,0.2-0.1,0.2c0,0.1-0.1,0.1-0.2,0.1
			c-0.4,0.1-0.8,0.1-1.3,0.2s-0.9,0.1-1.4,0.1c-0.4,0-0.8-0.1-1.2-0.2s-0.8-0.3-1.1-0.6c-0.3-0.3-0.6-0.6-0.8-1.1
			c-0.2-0.5-0.3-1-0.3-1.7v-1.3c0-1.1,0.3-1.9,0.8-2.5c0.6-0.6,1.4-0.9,2.5-0.9c0.5,0,1,0.1,1.4,0.2s0.7,0.4,1,0.7
			c0.3,0.3,0.5,0.7,0.6,1.1s0.2,0.9,0.2,1.4V176.4z M93,175.6c0-0.8-0.2-1.4-0.5-1.8c-0.3-0.4-0.8-0.5-1.5-0.5
			c-0.6,0-1.1,0.2-1.5,0.6c-0.3,0.4-0.5,1-0.5,1.8v0.1H93V175.6z"/>
		<path class="st1" d="M100.4,173c0,0.2-0.1,0.3-0.3,0.3c-0.3,0-0.7,0-1,0.1s-0.7,0.3-1,0.5v6.2c0,0.1,0,0.1-0.1,0.2
			c-0.1,0.1-0.1,0.1-0.2,0.1H97c-0.1,0-0.1,0-0.2-0.1c-0.1-0.1-0.1-0.1-0.1-0.2v-7.6c0-0.1,0-0.1,0.1-0.2s0.1-0.1,0.2-0.1h0.7
			c0.1,0,0.1,0,0.2,0.1s0.1,0.1,0.1,0.2v0.3c0.4-0.3,0.7-0.4,1.1-0.5c0.3-0.1,0.7-0.2,1-0.2c0.2,0,0.3,0.1,0.3,0.3V173z"/>
		<path class="st1" d="M107.5,178.4c0,0.4-0.1,0.7-0.2,1s-0.3,0.5-0.6,0.7c-0.2,0.2-0.5,0.3-0.9,0.4c-0.3,0.1-0.7,0.1-1.1,0.1
			c-0.1,0-0.3,0-0.5,0c-0.2,0-0.4,0-0.6,0c-0.2,0-0.4,0-0.6-0.1c-0.2,0-0.4-0.1-0.6-0.1c-0.2,0-0.3-0.1-0.3-0.3v-0.5
			c0-0.1,0-0.1,0.1-0.2s0.1-0.1,0.2-0.1h0.1c0.2,0,0.4,0,0.6,0.1c0.2,0,0.4,0,0.6,0.1c0.2,0,0.4,0,0.6,0c0.2,0,0.4,0,0.5,0
			c0.5,0,0.9-0.1,1.1-0.2c0.2-0.1,0.4-0.4,0.4-0.8c0-0.2-0.1-0.4-0.2-0.6c-0.2-0.2-0.5-0.4-0.9-0.6l-1.5-0.9
			c-0.5-0.3-0.8-0.6-1.1-0.9s-0.4-0.7-0.4-1.2c0-0.4,0.1-0.7,0.2-1c0.1-0.3,0.3-0.5,0.6-0.6c0.2-0.2,0.5-0.3,0.8-0.3
			c0.3-0.1,0.7-0.1,1.1-0.1c0.4,0,0.8,0,1.2,0.1s0.8,0.1,1.1,0.1c0.2,0,0.3,0.1,0.3,0.3v0.5c0,0.2-0.1,0.3-0.3,0.3h0
			c-0.3,0-0.6,0-1-0.1c-0.4,0-0.9,0-1.3,0c-0.4,0-0.8,0-1,0.1s-0.4,0.3-0.4,0.7c0,0.2,0.1,0.4,0.3,0.6c0.2,0.2,0.4,0.3,0.8,0.5
			l1.5,0.9c0.6,0.4,1,0.7,1.3,1.1C107.4,177.5,107.5,177.9,107.5,178.4z"/>
		<path class="st1" d="M111.3,170.6c0,0.1,0,0.1-0.1,0.2c-0.1,0.1-0.1,0.1-0.2,0.1h-0.8c-0.1,0-0.1,0-0.2-0.1
			c-0.1-0.1-0.1-0.1-0.1-0.2v-1.2c0-0.1,0-0.1,0.1-0.2s0.1-0.1,0.2-0.1h0.8c0.1,0,0.1,0,0.2,0.1s0.1,0.1,0.1,0.2V170.6z
			 M111.3,180.1c0,0.1,0,0.1-0.1,0.2c-0.1,0.1-0.1,0.1-0.2,0.1h-0.7c-0.1,0-0.1,0-0.2-0.1c-0.1-0.1-0.1-0.1-0.1-0.2v-7.6
			c0-0.1,0-0.1,0.1-0.2s0.1-0.1,0.2-0.1h0.7c0.1,0,0.1,0,0.2,0.1s0.1,0.1,0.1,0.2V180.1z"/>
		<path class="st1" d="M118.4,180.2c0,0.1-0.1,0.2-0.3,0.3c-0.1,0-0.3,0-0.5,0.1c-0.2,0-0.3,0-0.5,0c-0.3,0-0.6,0-0.9-0.1
			c-0.3-0.1-0.5-0.2-0.6-0.3c-0.2-0.1-0.3-0.4-0.4-0.6c-0.1-0.3-0.1-0.6-0.1-1v-5.2l-1.4-0.2c-0.2,0-0.3-0.1-0.3-0.3v-0.4
			c0-0.2,0.1-0.3,0.3-0.3h1.4v-1.5c0-0.2,0.1-0.3,0.3-0.3l0.8-0.1h0c0.1,0,0.1,0,0.2,0.1c0,0,0.1,0.1,0.1,0.2v1.6h1.6
			c0.1,0,0.1,0,0.2,0.1s0.1,0.1,0.1,0.2v0.5c0,0.1,0,0.1-0.1,0.2c-0.1,0.1-0.1,0.1-0.2,0.1h-1.6v5.2c0,0.4,0.1,0.7,0.2,0.8
			c0.1,0.1,0.3,0.2,0.6,0.2h0.8c0.2,0,0.3,0.1,0.3,0.2V180.2z"/>
		<path class="st1" d="M126.7,172.5c0,0,0,0.1,0,0.1l-2.5,8.6c-0.1,0.4-0.2,0.7-0.4,1s-0.3,0.5-0.5,0.7s-0.5,0.3-0.8,0.4
			c-0.3,0.1-0.7,0.1-1.1,0.1c-0.2,0-0.4,0-0.7,0c-0.2,0-0.4-0.1-0.6-0.1c-0.1,0-0.2,0-0.2-0.1c-0.1,0-0.1-0.1-0.1-0.2v-0.5
			c0-0.2,0.1-0.2,0.3-0.2h0c0.2,0,0.4,0,0.7,0.1s0.5,0,0.7,0c0.2,0,0.4,0,0.5-0.1c0.2,0,0.3-0.1,0.4-0.2c0.1-0.1,0.2-0.2,0.3-0.4
			s0.2-0.4,0.2-0.6l0.1-0.6H123c-0.1,0-0.2,0-0.3,0c-0.1,0-0.2-0.1-0.3-0.1c-0.1-0.1-0.2-0.2-0.3-0.3c-0.1-0.1-0.2-0.3-0.2-0.6
			l-2-6.8c0,0,0-0.1,0-0.1c0-0.2,0.1-0.3,0.3-0.3h0.8c0.1,0,0.1,0,0.2,0.1c0,0,0.1,0.1,0.1,0.2l1.8,6.5c0,0.1,0.1,0.2,0.1,0.3
			s0.1,0.1,0.1,0.1h0.2l1.8-6.8c0-0.1,0.1-0.1,0.1-0.2c0,0,0.1-0.1,0.2-0.1h0.8C126.6,172.2,126.7,172.3,126.7,172.5z"/>
		<path class="st1" d="M139.7,180c0,0.1,0,0.2-0.1,0.2c-0.1,0-0.1,0.1-0.2,0.1c-0.2,0-0.3,0.1-0.5,0.1c-0.2,0-0.3,0-0.5,0.1
			c-0.2,0-0.4,0-0.6,0c-0.2,0-0.5,0-0.8,0c-0.5,0-0.9-0.1-1.4-0.2s-0.9-0.4-1.3-0.7c-0.4-0.4-0.7-0.8-0.9-1.4
			c-0.2-0.6-0.4-1.3-0.4-2.2v-2.1c0-0.9,0.1-1.7,0.4-2.3c0.2-0.6,0.5-1.1,0.9-1.4c0.4-0.3,0.8-0.6,1.3-0.7c0.5-0.1,0.9-0.2,1.4-0.2
			c0.5,0,0.9,0,1.4,0.1c0.4,0.1,0.8,0.1,1.1,0.2c0.2,0,0.2,0.1,0.2,0.2v0.8c0,0,0,0.1,0,0.1c0,0-0.1,0-0.1,0h0l-0.5,0
			c-0.2,0-0.4,0-0.6,0c-0.2,0-0.5,0-0.7,0c-0.2,0-0.5,0-0.7,0c-0.4,0-0.7,0.1-1,0.2c-0.3,0.1-0.6,0.3-0.8,0.6
			c-0.2,0.3-0.4,0.6-0.5,1s-0.2,1-0.2,1.6v2.1c0,0.6,0.1,1.2,0.2,1.6s0.3,0.8,0.5,1c0.2,0.3,0.5,0.5,0.8,0.6c0.3,0.1,0.7,0.2,1,0.2
			c0.2,0,0.4,0,0.7,0l0.7,0c0.2,0,0.4,0,0.6,0c0.2,0,0.4,0,0.5,0h0.1c0.2,0,0.2,0.1,0.2,0.2V180z"/>
		<path class="st1" d="M148.1,176.4c0,0.2-0.1,0.3-0.3,0.3h-5v0.2c0,0.9,0.2,1.5,0.5,1.9c0.3,0.4,0.9,0.6,1.5,0.6c0.4,0,0.9,0,1.4,0
			c0.5,0,0.9-0.1,1.3-0.1h0.1c0.1,0,0.1,0,0.2,0c0,0,0.1,0.1,0.1,0.2v0.5c0,0.1,0,0.2-0.1,0.2c0,0.1-0.1,0.1-0.2,0.1
			c-0.4,0.1-0.8,0.1-1.3,0.2s-0.9,0.1-1.4,0.1c-0.4,0-0.8-0.1-1.2-0.2s-0.8-0.3-1.1-0.6c-0.3-0.3-0.6-0.6-0.8-1.1
			c-0.2-0.5-0.3-1-0.3-1.7v-1.3c0-1.1,0.3-1.9,0.8-2.5c0.6-0.6,1.4-0.9,2.5-0.9c0.5,0,1,0.1,1.4,0.2s0.7,0.4,1,0.7
			c0.3,0.3,0.5,0.7,0.6,1.1s0.2,0.9,0.2,1.4V176.4z M146.8,175.6c0-0.8-0.2-1.4-0.5-1.8c-0.3-0.4-0.8-0.5-1.5-0.5
			c-0.6,0-1.1,0.2-1.5,0.6c-0.3,0.4-0.5,1-0.5,1.8v0.1h3.9V175.6z"/>
		<path class="st1" d="M156.7,180.1c0,0.1,0,0.1-0.1,0.2c-0.1,0.1-0.1,0.1-0.2,0.1h-0.7c-0.1,0-0.1,0-0.2-0.1
			c-0.1-0.1-0.1-0.1-0.1-0.2v-4.9c0-0.4,0-0.7-0.1-0.9c-0.1-0.3-0.2-0.5-0.3-0.6c-0.1-0.1-0.3-0.3-0.5-0.3s-0.5-0.1-0.7-0.1
			c-0.3,0-0.6,0.1-1,0.2s-0.7,0.2-1,0.4v6.3c0,0.1,0,0.1-0.1,0.2c-0.1,0.1-0.1,0.1-0.2,0.1h-0.7c-0.1,0-0.1,0-0.2-0.1
			c-0.1-0.1-0.1-0.1-0.1-0.2v-7.6c0-0.1,0-0.1,0.1-0.2s0.1-0.1,0.2-0.1h0.7c0.1,0,0.1,0,0.2,0.1s0.1,0.1,0.1,0.2v0.3
			c0.4-0.2,0.8-0.4,1.2-0.5c0.4-0.1,0.8-0.2,1.2-0.2c0.9,0,1.6,0.3,2,0.8s0.6,1.3,0.6,2.3V180.1z"/>
		<path class="st1" d="M163.6,180.2c0,0.1-0.1,0.2-0.3,0.3c-0.1,0-0.3,0-0.5,0.1c-0.2,0-0.3,0-0.5,0c-0.3,0-0.6,0-0.9-0.1
			c-0.3-0.1-0.5-0.2-0.6-0.3c-0.2-0.1-0.3-0.4-0.4-0.6c-0.1-0.3-0.1-0.6-0.1-1v-5.2l-1.4-0.2c-0.2,0-0.3-0.1-0.3-0.3v-0.4
			c0-0.2,0.1-0.3,0.3-0.3h1.4v-1.5c0-0.2,0.1-0.3,0.3-0.3l0.8-0.1h0c0.1,0,0.1,0,0.2,0.1c0,0,0.1,0.1,0.1,0.2v1.6h1.6
			c0.1,0,0.1,0,0.2,0.1s0.1,0.1,0.1,0.2v0.5c0,0.1,0,0.1-0.1,0.2c-0.1,0.1-0.1,0.1-0.2,0.1h-1.6v5.2c0,0.4,0.1,0.7,0.2,0.8
			c0.1,0.1,0.3,0.2,0.6,0.2h0.8c0.2,0,0.3,0.1,0.3,0.2V180.2z"/>
		<path class="st1" d="M171.9,176.4c0,0.2-0.1,0.3-0.3,0.3h-5v0.2c0,0.9,0.2,1.5,0.5,1.9c0.3,0.4,0.9,0.6,1.5,0.6c0.4,0,0.9,0,1.4,0
			c0.5,0,0.9-0.1,1.3-0.1h0.1c0.1,0,0.1,0,0.2,0c0,0,0.1,0.1,0.1,0.2v0.5c0,0.1,0,0.2-0.1,0.2c0,0.1-0.1,0.1-0.2,0.1
			c-0.4,0.1-0.8,0.1-1.3,0.2s-0.9,0.1-1.4,0.1c-0.4,0-0.8-0.1-1.2-0.2s-0.8-0.3-1.1-0.6c-0.3-0.3-0.6-0.6-0.8-1.1
			c-0.2-0.5-0.3-1-0.3-1.7v-1.3c0-1.1,0.3-1.9,0.8-2.5c0.6-0.6,1.4-0.9,2.5-0.9c0.5,0,1,0.1,1.4,0.2s0.7,0.4,1,0.7
			c0.3,0.3,0.5,0.7,0.6,1.1s0.2,0.9,0.2,1.4V176.4z M170.5,175.6c0-0.8-0.2-1.4-0.5-1.8c-0.3-0.4-0.8-0.5-1.5-0.5
			c-0.6,0-1.1,0.2-1.5,0.6c-0.3,0.4-0.5,1-0.5,1.8v0.1h3.9V175.6z"/>
		<path class="st1" d="M177.9,173c0,0.2-0.1,0.3-0.3,0.3c-0.3,0-0.7,0-1,0.1s-0.7,0.3-1,0.5v6.2c0,0.1,0,0.1-0.1,0.2
			c-0.1,0.1-0.1,0.1-0.2,0.1h-0.7c-0.1,0-0.1,0-0.2-0.1c-0.1-0.1-0.1-0.1-0.1-0.2v-7.6c0-0.1,0-0.1,0.1-0.2s0.1-0.1,0.2-0.1h0.7
			c0.1,0,0.1,0,0.2,0.1s0.1,0.1,0.1,0.2v0.3c0.4-0.3,0.7-0.4,1.1-0.5c0.3-0.1,0.7-0.2,1-0.2c0.2,0,0.3,0.1,0.3,0.3V173z"/>
	</g>
</g>
</svg>
